<svg xmlns="http://www.w3.org/2000/svg" xmlns:xlink="http://www.w3.org/1999/xlink" width="100" height="120" viewBox="0 0 100 120">
    <defs>
        <path id="a" d="M50 120h50V0H0v120z"/>
    </defs>
    <g fill="none" fill-rule="evenodd">
        <mask id="b" fill="#fff">
            <use xlink:href="#a"/>
        </mask>
        <path fill="#FFF" d="M89.209 53.76c-1.186 23.212-15.146 43.788-36.429 53.699L50 108.753l-2.78-1.295C25.042 97.13 10.71 74.816 10.71 50.612V22.058L50 11.006l39.287 11.052v16.43H76.25v-6.7L50 24.403l-26.251 7.385v18.824c0 18.061 10.259 35.092 26.254 43.793 13.303-7.208 22.581-19.875 25.373-34.528H47.193V46.992h42.36l-.344 6.767zM50 0L0 14.067v36.545c0 30.672 19.58 58.373 48.722 68.925L50 120l1.276-.463C80.42 108.985 100 81.284 100 50.612V14.067L50 0z" mask="url(#b)"/>
    </g>
</svg>
