<?xml version="1.0" encoding="UTF-8"?>
<svg id="Layer_1" data-name="Layer 1" xmlns="http://www.w3.org/2000/svg" viewBox="0 0 94.3 114.34">
  <defs>
    <style>
      .cls-1 {
        fill: #3bb795;
      }

      .cls-2 {
        fill: #fff;
        stroke: #fff;
        stroke-miterlimit: 10;
      }
    </style>
  </defs>
  <path class="cls-2" d="m47.15.52h0L.5,13.8v34.5c0,28.95,18.27,55.1,45.46,65.07l1.19.44h0l1.19-.44c27.19-9.96,45.46-36.11,45.46-65.07V13.8L47.15.52Z"/>
  <g>
    <path class="cls-1" d="m11.8,50.41c-.01.2.01.37.07.51.06.14.14.25.24.33.1.09.21.15.34.19.13.04.26.07.39.07l2.67.16-.06.91-2.61-.16c-.17,0-.33-.03-.49-.07-.16-.04-.31-.08-.45-.15-.14-.07-.27-.15-.39-.25-.12-.1-.22-.23-.3-.38-.08-.15-.14-.32-.18-.52-.04-.2-.05-.43-.04-.69.02-.26.05-.49.12-.68.06-.19.14-.36.25-.5.1-.14.21-.25.35-.34.13-.09.27-.16.42-.21.15-.05.31-.08.48-.09.16-.01.33-.02.5,0l2.58.16-.05.89-2.67-.16c-.13,0-.26,0-.39.02-.13.03-.26.08-.37.15-.11.07-.2.18-.28.31-.07.13-.12.29-.13.5Z"/>
    <path class="cls-1" d="m12.5,54.18c-.15.02-.27.05-.37.09-.1.04-.18.11-.25.18-.06.08-.11.17-.13.27-.02.11-.04.23-.03.38,0,.08.01.17.03.26.02.09.05.18.1.26.05.08.11.14.18.19.08.05.17.07.29.07.09,0,.17-.02.23-.06.06-.04.12-.1.17-.18.05-.08.1-.18.15-.3.05-.12.1-.26.16-.42.05-.14.1-.28.15-.41.05-.13.1-.26.15-.37.05-.11.11-.22.17-.31.06-.09.13-.18.21-.25.08-.07.17-.12.27-.17.1-.04.22-.06.35-.07.14,0,.28,0,.39.05.12.04.23.09.32.16.09.07.17.15.25.25.07.1.13.2.18.32.05.12.08.23.11.36.03.12.04.25.04.37,0,.24,0,.47-.05.67-.04.2-.11.38-.22.53-.11.15-.25.27-.44.37-.18.09-.42.15-.7.17l-.03-.9c.14-.02.25-.05.34-.09.09-.04.16-.09.22-.16.05-.06.09-.14.12-.22.02-.08.03-.18.03-.28,0-.08-.01-.15-.04-.23-.02-.08-.05-.15-.09-.22-.04-.07-.09-.12-.16-.16-.06-.04-.14-.06-.23-.06-.07,0-.13.02-.19.06-.05.04-.1.1-.15.18-.04.08-.09.18-.13.3-.04.12-.09.26-.15.43-.1.3-.19.55-.28.74-.09.2-.19.35-.3.47-.11.12-.22.2-.35.25-.13.05-.29.08-.46.08-.25.01-.46-.02-.63-.11-.17-.08-.32-.2-.43-.35-.11-.15-.19-.33-.25-.54-.06-.21-.09-.44-.09-.68,0-.24.01-.47.06-.67.05-.21.13-.4.25-.55.12-.16.28-.29.48-.4.2-.1.44-.17.72-.19l.03.91Z"/>
    <path class="cls-1" d="m16.02,53.2l.74.31.22,2.88-.71.06-.25-3.25Z"/>
    <path class="cls-1" d="m13.46,59.29l1.03-.13.11.84-.31.04.06.44,1.66-.21.12.9-1.66.21.05.4-.72.09-.05-.4-.27.04c-.16.02-.32.03-.48.03-.16,0-.31-.02-.46-.06-.15-.04-.29-.09-.42-.17-.13-.08-.25-.18-.36-.31-.11-.13-.2-.29-.27-.49-.08-.19-.13-.42-.16-.68-.04-.27-.04-.51-.02-.71s.07-.39.14-.54c.07-.15.16-.29.26-.39.11-.11.23-.2.36-.27.13-.07.28-.13.43-.17.15-.04.31-.07.47-.09l2.64-.34.11.89-2.72.35c-.12.02-.25.05-.37.09-.12.04-.23.11-.32.2-.09.09-.16.2-.21.35-.05.14-.05.32-.03.54.03.22.08.39.16.52.08.13.18.22.29.28.11.06.23.1.36.11.13,0,.25,0,.38-.01l.35-.04-.17-1.29Z"/>
    <path class="cls-1" d="m16.4,58.66l1.06-.19.15.82-.38.06.39,2.1-.68.13-.54-2.92Z"/>
    <path class="cls-1" d="m16.46,62.8l-.53.13c.24.1.45.25.61.45.16.2.28.44.35.74.07.31.09.57.06.79-.04.22-.11.41-.23.57-.12.16-.28.28-.48.38-.2.1-.42.18-.67.24l-2.77.67-.21-.87,2.86-.69c.12-.03.22-.08.31-.14.09-.06.16-.14.21-.22.05-.09.09-.19.1-.3.01-.11,0-.22-.02-.35-.05-.21-.12-.38-.23-.51-.1-.14-.22-.24-.36-.31-.14-.07-.29-.12-.46-.13-.17-.01-.35,0-.53.04l-2.37.58-.21-.88,4.36-1.05.2.85Z"/>
    <path class="cls-1" d="m15.47,70c-.13.07-.24.14-.32.22-.08.07-.14.16-.17.25-.04.09-.04.19-.03.3,0,.11.04.23.1.36.03.08.07.15.12.23.05.08.11.15.18.21.07.06.15.09.24.12.09.02.19,0,.3-.04.08-.04.15-.08.19-.14.04-.06.08-.13.1-.23.02-.09.03-.2.04-.33,0-.13,0-.28,0-.45v-.44c0-.14,0-.28.01-.4.01-.13.03-.25.06-.35.03-.11.06-.21.12-.3.05-.09.12-.17.2-.25.08-.07.18-.13.3-.18.13-.05.26-.09.39-.09.12,0,.24,0,.36.04.11.04.22.09.32.16.1.07.19.15.27.24.08.09.16.19.22.3.07.11.12.22.17.33.09.23.15.44.18.65.03.2.02.4-.02.58-.05.18-.15.35-.29.49-.14.15-.34.28-.6.4l-.33-.83c.12-.06.22-.13.29-.2.07-.07.12-.15.15-.23.03-.08.04-.16.03-.25,0-.09-.03-.18-.07-.28-.03-.07-.07-.14-.11-.21-.05-.07-.1-.13-.16-.17-.06-.05-.13-.08-.2-.1-.07-.02-.15,0-.24.03-.07.02-.12.07-.15.12-.04.06-.06.12-.08.22-.01.09-.02.2-.02.33s0,.28,0,.45c.01.31,0,.58-.01.79-.02.22-.06.4-.12.54-.06.15-.14.27-.25.36-.11.09-.24.17-.4.23-.23.1-.44.13-.63.11-.19-.02-.36-.08-.52-.18-.16-.1-.3-.25-.42-.43-.12-.18-.23-.38-.32-.61-.09-.22-.15-.44-.17-.65-.02-.21,0-.42.05-.61.06-.19.16-.37.31-.53.15-.17.35-.31.61-.43l.34.84Z"/>
    <path class="cls-1" d="m18.81,68.66l.97-.45.35.75-.35.15.89,1.95-.62.29-1.24-2.7Z"/>
    <path class="cls-1" d="m19.73,73.79c-.09-.17-.18-.3-.28-.4-.1-.1-.2-.18-.3-.23-.1-.06-.2-.09-.29-.1-.09-.01-.16-.01-.23,0-.01.06-.04.12-.07.18-.03.06-.07.12-.12.17-.05.06-.1.11-.16.16-.06.05-.13.09-.2.12l-2.13,1.14-.42-.79,2.14-1.14c.05-.03.1-.06.15-.1.05-.04.09-.08.14-.13.04-.05.07-.11.1-.18.03-.07.04-.14.04-.23.12-.04.24-.06.37-.06.13,0,.26,0,.4.02.14.02.27.06.41.12.14.05.27.13.4.23.13.1.26.22.38.37.12.14.23.31.34.51.12.23.21.45.26.66.06.2.08.39.08.57,0,.17-.03.34-.09.49-.06.15-.13.28-.22.41-.09.12-.2.23-.32.33-.12.1-.26.18-.4.26l-2.38,1.27-.43-.8,2.45-1.31c.11-.06.21-.14.3-.23.09-.09.16-.2.2-.32.05-.13.06-.27.04-.43-.01-.16-.07-.34-.17-.53Z"/>
    <path class="cls-1" d="m20.68,78.72l.85-.59.49.7-.26.18.25.37,1.37-.95.52.74-1.38.95.23.34-.59.41-.23-.33-.22.16c-.13.09-.27.17-.41.24-.14.07-.29.13-.43.16-.15.03-.3.05-.45.04-.15,0-.31-.04-.46-.11-.15-.07-.31-.17-.46-.3-.16-.14-.31-.32-.46-.53-.15-.22-.27-.43-.34-.62-.07-.19-.12-.37-.13-.54,0-.17,0-.32.05-.47.05-.15.11-.28.2-.41.08-.13.19-.24.3-.35.12-.11.24-.21.38-.3l2.19-1.52.51.73-2.26,1.56c-.1.07-.2.16-.29.25-.09.09-.15.2-.19.32-.04.12-.05.25-.03.4.02.15.1.31.23.49.13.18.25.31.38.38.13.07.26.11.39.12.13,0,.25-.02.37-.07.12-.05.23-.11.33-.19l.29-.2-.74-1.07Z"/>
    <path class="cls-1" d="m23.12,80.54c.13-.11.26-.2.39-.26.14-.06.27-.11.41-.12.14-.02.27-.02.41,0,.13.02.27.06.39.11.13.05.24.12.36.2.11.08.22.18.31.28.15.17.27.35.36.54.08.19.13.38.13.58,0,.19-.05.39-.14.58-.09.19-.24.38-.44.55l-2.24,2-.59-.67,2.13-1.9c.24-.21.38-.41.41-.6.03-.19-.04-.37-.19-.55-.14-.16-.3-.24-.48-.25-.18-.01-.38.06-.58.22l-.62-.7Z"/>
    <path class="cls-1" d="m24.64,86.55l-.67-.59,1.71-1.95c.11-.13.23-.24.36-.35.12-.11.26-.2.4-.27.14-.07.29-.12.45-.15.15-.03.32-.03.49,0,.17.03.35.09.53.18.18.09.37.23.57.4.19.17.35.34.46.51.11.17.19.33.24.5.05.17.07.33.06.48-.01.16-.04.31-.09.46-.05.15-.12.29-.21.43-.09.14-.19.27-.3.4l-1.71,1.95-.68-.6,1.78-2.02c.05-.07.11-.13.15-.21.05-.08.08-.15.11-.24.03-.08.04-.17.05-.26,0-.09,0-.18-.03-.27-.02-.09-.06-.18-.12-.28-.06-.09-.14-.18-.24-.27-.1-.09-.2-.16-.3-.21-.1-.05-.2-.08-.29-.09-.09-.01-.19,0-.27,0-.09.02-.17.05-.25.08-.08.04-.15.08-.22.14-.07.05-.13.11-.19.17l-.4.45c.14-.04.27-.05.39-.05.12,0,.24.01.36.05.12.03.24.09.35.16.11.07.24.17.36.28l-.53.58c-.2-.17-.38-.29-.56-.36-.18-.06-.35-.08-.52-.06-.17.03-.33.09-.48.2-.16.11-.31.25-.46.42l-.29.34Z"/>
    <path class="cls-1" d="m31.42,88.94c.15-.23.26-.44.33-.63.07-.19.11-.37.12-.52,0-.16-.03-.29-.09-.41-.06-.12-.16-.22-.28-.3-.09-.06-.19-.1-.29-.13-.1-.02-.2-.02-.3,0-.1.02-.2.07-.31.15-.1.08-.21.18-.31.31l-.76-.5c.15-.2.31-.37.5-.49.19-.13.38-.21.59-.25.21-.04.42-.04.64,0,.22.05.44.14.65.28.27.18.47.38.61.6.14.23.21.47.23.72.02.26-.03.53-.12.81-.1.28-.24.57-.43.87-.19.29-.4.54-.62.74-.22.2-.45.34-.69.42-.24.09-.49.11-.75.07-.26-.04-.53-.15-.79-.32-.21-.14-.39-.3-.52-.49-.13-.18-.22-.38-.26-.59-.04-.21-.04-.42,0-.64.04-.22.13-.44.26-.65l.76.5c-.08.14-.14.27-.16.4-.03.12-.03.24-.02.34.02.1.06.19.12.28.06.09.14.16.23.22.12.08.25.13.38.14.13.01.27-.01.41-.08.14-.06.29-.16.44-.3.15-.14.29-.32.44-.55Z"/>
    <path class="cls-1" d="m33.09,89.09c.07-.15.16-.28.26-.39.1-.11.21-.2.33-.27.12-.07.24-.13.37-.16.13-.04.27-.05.4-.05s.27.01.41.05c.14.03.27.08.39.14.21.1.39.22.54.36.15.14.26.31.34.48.08.18.11.38.09.59-.01.21-.08.44-.19.68l-1.3,2.71-.81-.39,1.23-2.57c.14-.29.19-.53.14-.72-.05-.19-.17-.33-.39-.43-.19-.09-.37-.11-.54-.04-.17.06-.32.2-.45.43l-.85-.41Z"/>
    <path class="cls-1" d="m36.08,93.78l1.32-4.28.87.27-.73,2.33c-.05.18-.08.36-.08.53,0,.17.04.33.1.47.06.15.16.27.29.38.13.11.29.2.5.26.12.04.24.05.35.04.11,0,.21-.03.3-.08.09-.05.17-.11.24-.2.07-.08.12-.19.15-.3l.87-2.8.86.26-.84,2.72c-.08.24-.17.46-.28.65-.11.19-.25.34-.42.45-.16.11-.36.17-.58.19-.23.02-.49-.02-.79-.11-.3-.09-.53-.22-.71-.4-.18-.17-.32-.38-.41-.64l-.16.52-.83-.26Z"/>
    <path class="cls-1" d="m43.32,94.81c.2.02.37.01.51-.04.14-.05.26-.12.35-.22.09-.1.16-.21.21-.33.05-.12.08-.25.1-.38l.58-4.6.9.11-.57,4.53c-.02.17-.05.33-.1.48-.04.16-.1.31-.18.44-.08.14-.17.26-.28.37-.11.11-.24.2-.4.27-.15.07-.33.12-.53.14-.2.03-.43.02-.69,0-.26-.03-.48-.08-.67-.16-.19-.07-.35-.17-.48-.28-.13-.11-.24-.23-.32-.37-.08-.13-.14-.28-.18-.43-.04-.15-.06-.32-.06-.48,0-.17,0-.33.02-.5l.33-2.57.89.12-.33,2.66c-.02.12-.02.26,0,.39.02.14.06.26.12.37.07.12.16.21.29.3.12.08.29.14.49.16Z"/>
    <path class="cls-1" d="m49.49,93.49c-.06.03-.11.05-.18.07-.06.02-.13.04-.2.06-.07.02-.14.03-.22.05-.07.01-.15.02-.22.04-.1.02-.2.03-.31.06-.1.02-.2.04-.29.07-.09.03-.18.06-.26.1-.08.04-.15.09-.2.14-.06.06-.1.12-.13.19-.03.07-.04.16-.04.26,0,.11.03.21.08.28.05.08.12.13.19.17.08.04.17.07.27.09.1.02.2.02.29.02.08,0,.17-.02.25-.03.09-.02.18-.04.27-.07l.03.71c-.12.04-.24.07-.35.1-.11.03-.23.04-.35.05-.21,0-.41,0-.6-.04-.19-.04-.36-.1-.51-.2-.15-.09-.27-.22-.36-.38-.09-.16-.14-.36-.15-.59-.01-.18,0-.33.04-.47.04-.13.09-.25.17-.36.08-.1.17-.19.28-.26.11-.08.24-.14.38-.2.15-.06.31-.11.48-.15.18-.04.37-.08.57-.12.13-.02.25-.05.38-.07.12-.03.23-.06.32-.1.09-.04.17-.09.22-.14.05-.06.08-.13.07-.23,0-.15-.04-.26-.1-.34-.06-.09-.13-.15-.22-.19-.09-.04-.19-.07-.29-.08-.11,0-.22-.01-.32,0-.14,0-.27.03-.39.06-.12.03-.22.09-.31.16-.08.07-.15.16-.2.27-.05.11-.08.25-.08.41l-.92.04c0-.2.02-.38.06-.54.04-.16.1-.3.19-.42.08-.12.18-.23.3-.32.12-.09.25-.16.39-.22.14-.06.29-.1.46-.13.16-.03.33-.05.51-.06.14,0,.28,0,.42,0,.14.01.28.03.41.07.13.04.26.08.37.14.12.06.22.14.3.23.09.09.16.21.21.34.05.13.08.29.09.46l.16,3.23-.89.04-.11-2.17Z"/>
    <path class="cls-1" d="m51.21,92.51c0-.24.03-.47.09-.68.06-.21.16-.41.29-.57.13-.17.3-.31.51-.43.21-.12.45-.22.74-.28.24-.05.47-.07.67-.06.21.01.39.05.56.12.17.06.32.16.46.27.14.12.25.25.36.41.1.16.19.33.26.52.07.19.13.39.18.61.04.2.07.4.08.6,0,.2,0,.39-.03.57-.03.18-.08.36-.16.52-.07.16-.17.31-.3.45-.12.13-.28.25-.46.35-.18.1-.39.17-.63.22-.24.05-.46.07-.67.06-.2-.01-.39-.06-.56-.12-.17-.07-.32-.16-.46-.28-.14-.11-.25-.25-.36-.4-.1-.15-.19-.33-.26-.51-.07-.18-.13-.38-.17-.59,0-.02,0-.04-.02-.07,0-.04-.02-.07-.02-.11l-.03-.13,1.98-.43.15.69-1.07.23c.05.17.11.33.2.46.09.13.19.23.3.32.12.08.25.14.38.16.14.03.29.03.44,0,.17-.04.31-.11.43-.2.12-.1.21-.22.28-.37.07-.15.1-.33.11-.53.01-.2-.01-.42-.06-.67-.11-.5-.29-.87-.53-1.09-.24-.23-.54-.3-.91-.22-.14.03-.26.07-.37.13-.11.06-.2.13-.28.22-.08.09-.13.18-.17.29-.04.11-.05.23-.04.36l-.93.2Z"/>
    <path class="cls-1" d="m57.87,91.69l-.32.13-.26-.64,1.26-.51.24.59-.89,2.6-.79.32-1.01-2.48c-.06-.15-.11-.3-.15-.45-.04-.15-.05-.31-.05-.46,0-.15.03-.31.07-.45.05-.15.12-.29.23-.43.1-.13.24-.26.41-.39.17-.12.37-.23.62-.33.24-.1.46-.16.66-.19.2-.03.39-.03.56,0,.17.03.32.08.46.15.13.07.26.16.37.27.11.11.21.23.29.36.08.14.16.27.22.42l1.01,2.48-.84.34-1.05-2.56c-.04-.11-.11-.22-.18-.33-.07-.11-.17-.19-.28-.25-.11-.06-.24-.1-.4-.11-.15,0-.33.03-.53.11-.14.06-.25.12-.34.19-.09.07-.17.14-.23.22-.06.08-.1.16-.12.24-.02.08-.04.17-.04.25,0,.08,0,.17.03.25.02.08.04.17.07.24l.6,1.48.38-1.08Z"/>
    <path class="cls-1" d="m63.38,87.99c-.07-.11-.15-.21-.24-.29-.1-.08-.21-.15-.34-.18-.13-.04-.27-.04-.43-.02-.16.03-.33.09-.52.21-.16.09-.28.19-.38.3-.1.1-.17.21-.21.32-.05.11-.08.2-.08.29,0,.09,0,.17.02.22.06.01.12.03.18.06.06.03.12.06.18.11.06.04.11.09.17.15.05.06.1.12.14.19l1.27,2.05-1.14.7-.39-.62.37-.23-.89-1.44c-.03-.05-.07-.1-.11-.15-.04-.04-.09-.09-.14-.13-.05-.03-.12-.07-.19-.08-.07-.02-.15-.03-.23-.02-.04-.12-.07-.24-.08-.37-.02-.13-.02-.26,0-.4.01-.13.04-.27.09-.41.05-.14.12-.28.21-.41.09-.14.2-.27.34-.4.14-.13.3-.25.49-.37.22-.14.44-.24.64-.31.2-.07.39-.1.57-.11.18,0,.34.02.49.06.15.04.29.11.42.19.13.08.25.19.35.3.1.12.2.24.28.38l1.42,2.3-.77.47-1.46-2.36Z"/>
    <path class="cls-1" d="m60.87,86.87l-.63-.87.67-.49.22.31,1.73-1.26.41.55-2.4,1.75Z"/>
    <path class="cls-1" d="m64.54,86.48c-.09-.11-.16-.22-.2-.33-.04-.11-.06-.22-.06-.32,0-.11,0-.21.04-.3.03-.1.07-.19.12-.28.05-.09.11-.17.18-.24.07-.07.13-.14.2-.19l.52-.44.49.59-.37.32s-.07.06-.11.1c-.04.05-.08.1-.1.15-.03.06-.04.12-.04.18,0,.07.04.13.1.2.06.08.13.13.19.16.07.03.13.04.2.03.07,0,.13-.03.2-.06.07-.03.13-.08.2-.12l.33-.28.49.58-.33.28c-.06.06-.12.12-.16.18-.04.06-.07.12-.08.19-.01.07,0,.14.03.22.03.08.08.16.17.26.08.1.18.18.28.22.11.04.22.06.33.05.11-.01.23-.04.34-.1.12-.05.22-.12.32-.21.11-.09.2-.19.27-.3.07-.11.11-.22.13-.35.02-.12,0-.25-.05-.39-.05-.14-.14-.28-.27-.43l-1.77-2.11.69-.58,1.87,2.22c.18.21.29.43.35.65.06.22.07.45.03.67-.04.22-.13.44-.25.64-.13.2-.29.39-.49.56-.12.1-.25.2-.39.28-.14.08-.28.15-.43.2-.14.05-.29.08-.44.1-.15.01-.29,0-.43-.02-.14-.03-.28-.08-.41-.15-.13-.08-.25-.18-.36-.31-.07-.09-.14-.18-.19-.26s-.09-.18-.12-.27c-.03-.09-.04-.18-.03-.28,0-.1.03-.19.08-.29-.12.02-.23.02-.33,0-.1-.02-.19-.05-.27-.09-.08-.04-.15-.09-.22-.15-.07-.05-.13-.12-.18-.17Z"/>
    <path class="cls-1" d="m71.99,79.48c.09.08.18.17.28.3.1.12.2.26.29.41.1.15.2.31.3.49.1.17.2.34.29.52.09.17.18.35.27.52.08.17.16.33.23.47l-.72.87-1.99-.7-.38.46-.55-.45.83-1,1.74.65c-.08-.15-.17-.31-.26-.48-.09-.17-.19-.33-.29-.5-.1-.16-.2-.31-.3-.45-.1-.13-.2-.25-.3-.34-.22-.19-.44-.27-.65-.24-.21.02-.41.15-.6.39-.15.19-.23.37-.24.55,0,.18.07.37.23.57l-.62.76c-.15-.17-.26-.35-.33-.54-.07-.19-.11-.39-.1-.6,0-.21.05-.42.14-.63.09-.21.22-.43.4-.65.09-.11.18-.21.29-.3.11-.1.22-.18.34-.25.12-.07.25-.13.38-.17.13-.04.27-.06.41-.05.14,0,.29.04.44.11.15.06.31.16.46.3Z"/>
    <path class="cls-1" d="m67.94,80.1l1.21-1.66-.52-.36.5-.69,1.09.79-1.92,2.63-.36-.71Z"/>
    <path class="cls-1" d="m74.99,80.39l-3.69-2.54.52-.75,3.69,2.55-.52.75Z"/>
    <path class="cls-1" d="m75.47,76.8c.12.07.24.11.35.13.11.02.22.01.32-.01.1-.02.19-.07.27-.14.08-.07.15-.14.2-.24.05-.09.09-.19.11-.28.02-.1.02-.19,0-.28-.02-.09-.07-.18-.13-.26-.07-.08-.17-.16-.29-.24l-.25-.14c-.14-.08-.26-.13-.36-.14-.11-.02-.2,0-.28.03s-.15.09-.22.16c-.06.07-.12.16-.19.26l-.58-.32c.07-.15.11-.28.12-.41,0-.13-.02-.25-.08-.37-.06-.12-.15-.23-.27-.33-.12-.1-.27-.21-.45-.31l.45-.78c.14.08.28.17.41.28.13.1.24.21.33.33.1.12.17.25.22.4.05.14.06.3.05.46.12-.11.25-.19.37-.22.12-.04.24-.05.35-.04.11.01.21.04.31.08.1.04.19.09.26.14l.3.18c.16.09.28.18.38.29.1.11.18.23.24.35.06.12.1.25.12.38.02.13.02.27,0,.4-.02.13-.04.27-.09.4-.05.13-.1.26-.18.39-.07.12-.16.24-.25.35-.09.11-.2.2-.31.28-.11.08-.23.14-.36.19-.13.05-.26.08-.4.09-.14.01-.28,0-.42-.03-.14-.04-.29-.09-.43-.17-.15-.09-.29-.17-.41-.25-.12-.07-.22-.15-.31-.24-.09-.09-.16-.19-.22-.29-.06-.11-.11-.25-.14-.42-.01-.03-.02-.07-.04-.12-.02-.05-.03-.09-.06-.15-.02-.05-.05-.1-.07-.15-.03-.05-.06-.09-.09-.12,0,.08,0,.15-.02.23-.02.08-.05.15-.09.22-.03.05-.06.1-.1.15-.04.05-.1.11-.16.16-.07.05-.14.09-.22.13-.08.04-.18.06-.28.06-.1,0-.22,0-.34-.03-.12-.03-.26-.09-.4-.17l.42-.74s.1.05.15.07c.05.02.1.02.15.02.05,0,.09-.01.13-.04.04-.02.07-.05.1-.09.03-.05.04-.09.04-.13,0-.04,0-.09-.03-.14-.02-.04-.05-.08-.09-.12-.04-.04-.08-.08-.14-.11l.44-.76.8.46c.08.05.14.09.19.15.05.05.1.12.14.19.04.07.07.16.11.25.03.1.07.21.1.33.03.09.07.18.13.26.05.08.12.15.19.21.07.07.15.12.23.17.08.05.16.1.24.14Z"/>
    <path class="cls-1" d="m75.71,69.71l3.21.58-4.37-2.87.38-.91,5.39,3.82-.38.91-3.22-.54,2.68,1.85-.38.92-4.57-.67.38-.92,3.22.63-2.7-1.87.38-.92Z"/>
    <path class="cls-1" d="m79.48,62.17c.11.03.24.08.38.14.14.07.29.15.45.24.16.09.32.19.48.3.17.11.33.22.49.34.16.12.32.23.47.35.15.12.29.22.42.32l-.26,1.1-2.1.25-.14.59-.69-.16.29-1.27,1.85-.19c-.14-.1-.29-.21-.45-.32-.16-.11-.32-.22-.48-.32-.16-.1-.31-.19-.46-.27-.15-.08-.29-.13-.42-.17-.29-.07-.51-.05-.69.07-.18.12-.3.32-.37.61-.05.24-.04.43.03.6.07.16.22.3.45.41l-.22.96c-.21-.09-.39-.2-.54-.34-.15-.14-.27-.3-.36-.49-.09-.19-.14-.4-.15-.63-.02-.23,0-.48.07-.75.03-.14.07-.27.13-.41.05-.13.12-.26.19-.38.08-.12.17-.22.27-.32.1-.1.22-.17.35-.23.13-.06.28-.09.44-.1.16-.01.35,0,.55.06Z"/>
    <path class="cls-1" d="m76.42,63.1c-.12-.02-.22-.05-.32-.11-.1-.06-.18-.13-.24-.21-.07-.08-.12-.18-.15-.29-.03-.11-.04-.22-.02-.34.02-.11.05-.22.11-.31.06-.1.13-.18.22-.25.09-.07.19-.12.3-.15.11-.03.22-.04.34-.03.12.02.22.05.32.11.1.06.18.13.24.22.07.09.11.19.14.29.03.11.04.22.02.34-.02.11-.05.22-.11.31-.06.09-.13.17-.22.24-.09.06-.18.11-.29.14-.11.03-.22.04-.34.02Zm.08-.54s.08,0,.12,0c.04,0,.07-.03.11-.05.03-.02.06-.05.08-.08.02-.03.04-.07.04-.11,0-.04,0-.08,0-.12-.01-.04-.03-.08-.05-.11-.02-.03-.05-.06-.09-.08-.04-.02-.07-.03-.11-.04-.04,0-.08,0-.12,0-.04.01-.08.03-.11.05-.03.02-.06.05-.08.09-.02.04-.04.07-.04.11,0,.04,0,.08,0,.12.01.04.03.07.05.1.02.03.05.06.09.08.04.02.07.03.12.03Zm3.09-.96c-.17-.02-.32-.07-.46-.13-.14-.06-.26-.14-.36-.23-.1-.09-.19-.19-.27-.31-.07-.11-.13-.24-.17-.37-.04-.13-.07-.26-.08-.4,0-.14,0-.28.01-.42.03-.23.09-.44.18-.62.09-.19.21-.34.36-.47.15-.13.32-.22.53-.27.21-.05.44-.06.7-.02l2.98.4-.12.89-2.83-.38c-.32-.05-.56-.02-.72.08-.16.1-.26.27-.3.5-.03.21.01.38.13.53.11.14.29.24.55.29l-.13.93Z"/>
    <path class="cls-1" d="m79.41,55.57c0,.18,0,.35.04.49.04.14.08.26.14.36.06.1.12.18.19.23.07.06.14.09.2.11.04-.04.09-.08.15-.12.06-.04.12-.06.19-.09.07-.02.14-.04.22-.06.08-.01.15-.01.23,0l2.41.09-.04.9-2.42-.1c-.06,0-.12,0-.18.01-.06,0-.12.02-.19.05-.06.02-.12.06-.17.11-.05.05-.1.11-.15.18-.12-.03-.24-.08-.35-.14-.12-.06-.23-.13-.33-.22-.11-.09-.2-.19-.29-.3-.09-.12-.17-.25-.23-.4-.06-.15-.11-.32-.14-.5-.03-.18-.04-.39-.03-.61.01-.26.05-.5.1-.7.06-.2.13-.38.23-.53.09-.15.2-.27.32-.37.12-.1.25-.18.4-.24.14-.06.29-.1.45-.12.16-.02.31-.03.47-.02l2.7.11-.04.91-2.77-.11c-.13,0-.25,0-.37.04-.13.03-.24.09-.34.18-.1.09-.19.2-.25.35-.07.15-.11.33-.12.54Z"/>
    <path class="cls-1" d="m78.15,55.9h-1.07s-.01-.82-.01-.82h.38l-.03-2.14.69-.02.04,2.97Z"/>
    <path class="cls-1" d="m81.19,50.9l.02.35-.69.04-.08-1.35.63-.04,2.18,1.67.05.85-2.68.16c-.16.01-.32,0-.47,0-.16-.02-.31-.05-.45-.1-.14-.05-.28-.12-.41-.21-.12-.09-.23-.21-.33-.35-.1-.14-.17-.31-.23-.51-.06-.2-.1-.43-.11-.69-.02-.26,0-.49.03-.69.04-.2.09-.38.17-.53.08-.15.18-.28.29-.38.11-.11.24-.19.38-.26.14-.07.29-.12.44-.16.15-.04.31-.06.47-.07l2.67-.16.05.9-2.76.17c-.12,0-.25.03-.37.06-.12.04-.23.1-.33.19-.1.09-.17.2-.23.34-.05.14-.08.32-.06.54,0,.15.03.28.07.39.04.11.08.2.14.28.06.08.12.14.19.19.07.05.15.09.23.11.08.03.16.05.25.06.08,0,.17.01.25,0l1.59-.09-.9-.71Z"/>
  </g>
  <g>
    <path class="cls-1" d="m18.28,34.07c.03.19.05.38.04.56,0,.19-.03.37-.07.55-.04.18-.1.36-.17.53-.07.17-.15.33-.25.48-.19.3-.39.55-.62.76-.23.21-.48.38-.73.51-.26.13-.53.22-.81.27-.28.05-.56.07-.84.04-.28-.02-.56-.08-.84-.17-.28-.09-.54-.22-.79-.38-.28-.17-.53-.37-.76-.58-.23-.22-.42-.45-.59-.7-.16-.25-.29-.51-.38-.79-.09-.28-.14-.56-.15-.86,0-.29.03-.6.12-.91.09-.31.23-.62.43-.93.2-.32.42-.59.67-.83.25-.24.53-.42.83-.55.3-.12.63-.18.98-.17.35.01.72.12,1.12.31l-.63,1c-.24-.09-.46-.14-.66-.14-.2,0-.4.03-.57.11-.18.07-.34.18-.49.32-.15.14-.28.3-.4.49-.13.22-.23.42-.28.63-.05.21-.07.41-.05.61.02.2.06.39.14.57.08.18.18.36.3.53.12.16.26.32.42.46s.33.27.52.39c.18.11.37.2.56.28.2.07.39.12.59.15.2.03.39.03.59,0,.19-.02.38-.07.55-.14.18-.08.35-.18.5-.31.16-.13.29-.3.42-.49.16-.25.26-.5.31-.75.05-.25.05-.49,0-.72-.05-.23-.14-.44-.27-.64-.14-.2-.3-.37-.51-.51l-1.13,1.8-.87-.54,1.72-2.74,3.14,1.96-.45.72-.64-.16Z"/>
    <path class="cls-1" d="m20.09,24.85c-.17-.06-.33-.08-.49-.06-.16.02-.31.08-.46.17-.15.09-.29.21-.44.37-.12.12-.22.25-.31.38-.09.14-.15.28-.18.42-.04.14-.04.28,0,.42.03.14.12.27.24.4.11.11.23.16.36.17.13,0,.28-.02.43-.08.15-.06.32-.14.49-.25.17-.11.35-.22.53-.35.17-.12.35-.24.53-.35.18-.12.36-.22.54-.31.18-.09.37-.17.56-.22.19-.06.37-.08.57-.07.19,0,.37.05.56.13.19.08.37.21.56.4.18.17.32.36.41.55.09.19.14.39.16.59.02.2,0,.4-.04.6-.05.2-.12.4-.21.59-.09.19-.21.38-.34.56-.13.18-.27.35-.42.5-.19.19-.38.36-.58.51-.2.15-.4.27-.61.36-.21.09-.42.15-.64.19-.21.03-.43.03-.65-.01-.22-.04-.44-.12-.66-.24-.22-.12-.44-.29-.66-.5l.79-.81c.2.19.4.32.6.39.2.07.4.09.6.06.2-.03.39-.1.58-.22.18-.12.36-.26.53-.43.13-.14.25-.28.36-.43.11-.15.19-.31.23-.46.05-.16.06-.31.02-.47-.03-.16-.12-.31-.27-.45-.08-.08-.18-.14-.28-.17-.1-.03-.2-.04-.3-.03-.11,0-.21.04-.33.08-.12.04-.23.1-.35.16-.12.07-.24.14-.37.23-.12.08-.25.17-.38.26-.17.12-.34.23-.51.34-.17.11-.35.21-.52.3-.18.09-.35.16-.53.21-.18.05-.35.07-.52.07-.17,0-.35-.04-.52-.12-.17-.07-.34-.19-.51-.35-.17-.16-.29-.33-.38-.52-.09-.18-.15-.37-.18-.56-.03-.19-.02-.38.01-.57.03-.19.09-.38.17-.57.08-.19.18-.37.3-.55.12-.18.26-.34.41-.5.25-.26.52-.47.79-.63.27-.16.55-.26.84-.29.29-.03.58,0,.88.11.3.1.6.29.91.56l-.79.82c-.19-.15-.37-.25-.54-.31Z"/>
    <path class="cls-1" d="m24,19.6l6.16,3.85-1.08.8-1.68-1.12-2.07,1.54c.05.17.09.33.14.49.05.16.1.32.15.47.05.16.1.32.15.48.05.16.1.32.15.49l-1,.75-1.97-6.97,1.05-.78Zm2.46,2.94l-2.2-1.46.79,2.51,1.41-1.05Z"/>
    <path class="cls-1" d="m31.5,15.21l.47.91-3.08,1.6.82,1.56,2.69-1.39.47.92-2.69,1.39,1.36,2.62-1.06.55-3.13-6,4.14-2.14Z"/>
    <path class="cls-1" d="m37.62,13.08l.32.98-3.52,1.16.57,1.67,3.26-1.07.32.98-3.27,1.07.6,1.85,3.53-1.16.32.96-4.66,1.53-2.12-6.43,4.65-1.53Z"/>
    <path class="cls-1" d="m45.73,13.51c-.09-.16-.2-.28-.33-.37-.13-.09-.28-.15-.45-.18-.17-.03-.36-.04-.58-.02-.17.01-.33.04-.48.08-.16.04-.29.11-.41.19-.12.08-.21.19-.28.31-.07.13-.09.28-.08.46.01.15.06.27.16.36.09.09.22.17.37.23.15.06.33.1.53.14.2.03.41.06.63.09.21.03.42.06.63.09.21.03.42.07.62.13.2.05.38.12.56.21.18.08.33.19.47.32.13.13.25.29.33.48.08.19.14.41.16.67.02.25,0,.48-.07.68-.06.2-.15.39-.27.55-.12.16-.26.3-.43.42-.17.12-.35.22-.55.3-.2.08-.41.15-.62.19-.22.05-.43.08-.65.09-.27.02-.52.02-.77,0-.25-.02-.48-.07-.7-.14-.22-.07-.42-.16-.6-.28-.18-.12-.34-.27-.48-.45-.13-.18-.25-.38-.33-.62-.08-.24-.14-.51-.16-.81l1.13-.08c.02.28.08.51.19.69.11.18.25.33.41.44.17.11.36.18.58.22.21.04.44.05.68.03.19-.01.37-.04.55-.08.18-.04.34-.11.48-.19.14-.09.25-.2.33-.34.08-.14.12-.31.1-.52-.01-.12-.04-.22-.1-.31-.05-.08-.12-.16-.21-.23-.08-.06-.18-.12-.3-.16-.11-.04-.24-.08-.37-.11-.13-.03-.28-.06-.42-.08-.15-.02-.3-.04-.46-.06-.2-.03-.41-.06-.61-.09-.2-.03-.4-.07-.59-.13-.19-.05-.36-.12-.53-.19-.17-.08-.31-.18-.44-.3-.13-.12-.23-.26-.31-.43-.08-.17-.13-.37-.15-.6-.02-.23,0-.45.06-.64.05-.2.13-.38.24-.54.11-.16.24-.3.39-.42.15-.12.32-.23.51-.31.19-.09.38-.16.59-.21.21-.05.42-.08.64-.1.36-.02.7,0,1.01.06.31.06.58.18.82.35.24.17.43.39.58.67.15.28.25.62.3,1.02l-1.13.08c-.04-.24-.11-.43-.2-.59Z"/>
    <path class="cls-1" d="m53.86,12.47l-.11,1.02-3.68-.39-.17,1.75,3.42.37-.11,1.02-3.42-.37-.21,1.93,3.7.4-.1,1.01-4.88-.52.71-6.73,4.87.52Z"/>
    <path class="cls-1" d="m59.42,15.62c-.05-.19-.12-.35-.23-.5-.11-.14-.24-.27-.4-.37-.16-.1-.35-.18-.56-.25-.23-.07-.45-.1-.66-.1-.21,0-.4.04-.58.1-.18.06-.35.15-.5.27-.15.12-.3.25-.42.41-.12.15-.23.33-.33.51-.1.18-.17.38-.24.58-.1.33-.16.66-.16.98-.01.32.03.62.13.89.1.27.25.51.47.72.21.21.5.36.85.47.26.08.5.1.73.08.22-.02.43-.09.62-.2.18-.11.35-.26.49-.45.14-.19.26-.41.36-.65l1.14.35c-.17.42-.38.77-.63,1.06-.24.29-.52.51-.83.67-.31.15-.65.24-1.02.26-.37.01-.77-.04-1.21-.17-.35-.11-.65-.24-.91-.41-.26-.16-.49-.35-.67-.56-.19-.21-.34-.44-.45-.7-.11-.25-.19-.52-.23-.8-.04-.28-.04-.57-.01-.88.03-.3.09-.61.19-.93.1-.32.22-.62.37-.89.15-.27.32-.52.52-.73.2-.22.42-.4.66-.55.24-.15.5-.27.78-.34.28-.08.57-.11.89-.1.31,0,.64.06.99.17.36.11.68.26.96.45.28.19.51.41.7.67.18.26.31.55.39.88.07.33.09.69.04,1.08l-1.17-.35c.02-.24.01-.45-.03-.63Z"/>
    <path class="cls-1" d="m66.03,21.76c-.21.38-.44.69-.71.92-.26.23-.55.38-.86.46-.31.08-.65.09-1,.02-.36-.07-.73-.21-1.12-.41-.4-.22-.74-.45-1-.71-.26-.26-.45-.54-.57-.84-.11-.31-.15-.63-.11-.98.04-.35.17-.73.39-1.13l2.01-3.79,1.06.56-2.02,3.78c-.26.48-.32.9-.2,1.27.12.37.43.68.93.95.46.25.88.32,1.23.21.36-.11.67-.4.92-.88l2.01-3.79,1.06.56-2.02,3.78Z"/>
    <path class="cls-1" d="m72.38,21.2c.27.22.49.44.65.68.16.24.27.47.32.71.05.24.04.48-.02.72-.07.24-.19.47-.37.7-.11.14-.23.26-.36.37-.13.11-.26.2-.4.27-.14.07-.29.12-.44.14-.15.02-.32.02-.48-.01.06.17.08.34.06.5-.02.16-.06.32-.12.48-.06.16-.14.31-.23.45-.09.15-.18.29-.26.42-.06.11-.13.21-.2.31-.07.1-.13.21-.19.33-.05.12-.09.24-.12.38-.03.14-.03.29,0,.47l-1.06-.84c0-.09,0-.17.02-.25.02-.08.04-.16.08-.24.04-.08.08-.17.14-.25.05-.08.12-.17.18-.26.06-.1.13-.2.2-.3.07-.11.14-.21.2-.33.06-.11.11-.23.14-.34.04-.12.06-.23.05-.35,0-.12-.03-.23-.08-.34-.05-.11-.14-.22-.25-.33l-1.55-1.24-1.72,2.18-.93-.74,4.2-5.31,2.55,2.03Zm-2.18,2.1c.14.11.29.21.44.29.15.08.3.13.45.15.15.02.3,0,.44-.05.14-.06.28-.16.4-.33.09-.11.16-.22.2-.34.04-.12.05-.23.03-.35-.02-.12-.06-.24-.14-.36-.08-.12-.19-.23-.33-.35l-1.57-1.25-1.22,1.55,1.3,1.04Z"/>
    <path class="cls-1" d="m76.13,24.65l-4.79,4.79-.84-.84,4.79-4.79.84.85Z"/>
    <path class="cls-1" d="m76.29,26.2l.79-.65,3.38,4.13-.8.65-1.33-1.62-4.43,3.65-.76-.92,4.43-3.65-1.3-1.59Z"/>
    <path class="cls-1" d="m77.14,37.05l-.63-1.03,2.31-1.43,2.09-4.34.75,1.23-1.54,3.06h3.41s.73,1.18.73,1.18l-4.81-.12-2.32,1.44Z"/>
  </g>
  <path class="cls-1" d="m47.15,37.78l-14.36,4.09v10.42c0,1.74.17,3.45.5,5.13h-.01c.02.12.06.24.08.36.02.06.03.13.04.2,1.39,6.64,5.16,12.5,10.57,16.51.04.03.07.05.11.08.22.17.44.33.67.49.31.22.63.43.95.63.09.06.18.11.27.16.39.24.78.48,1.19.7,0,0,0,0,0,0,0,0,0,0,0,0,.21-.11.4-.24.6-.36.27-.16.54-.31.8-.47.06-.04.12-.08.18-.12,6.43-4.1,10.89-10.67,12.3-18.17h-.01c.11-.58.21-1.16.28-1.74h-12.61v-5.39h12.83v-8.41h0s-14.36-4.1-14.36-4.1h0s0,0,0,0Z"/>
  <path class="cls-1" d="m47.15,27.53h0l-24.65,7.02v18.23c0,15.3,9.65,29.12,24.02,34.38l.63.23h0l.63-.23c14.37-5.26,24.02-19.08,24.02-34.38v-18.23l-24.65-7.02Zm19.37,19.2h0v4.24h0v1.8c0,.68-.03,1.36-.07,2.04,0,.11-.01.22-.02.33-.02.29-.05.59-.08.88,0,.05-.01.11-.02.17-1.19,10.72-7.92,20.28-17.81,24.94l-1.37.65-1.37-.65c-9.9-4.66-16.62-14.22-17.81-24.94,0-.06-.01-.11-.02-.17-.03-.29-.06-.59-.08-.88,0-.11-.02-.22-.02-.33-.05-.68-.07-1.36-.07-2.04v-1.8h0v-4.24h0v-8.19l19.37-5.51,19.37,5.51v8.19Z"/>
</svg>