<svg xmlns="http://www.w3.org/2000/svg" width="24" height="24" viewBox="0 0 24 24">
    <g fill="none">
        <path fill="#00ca9d" d="M22.633 17.867c.098 0 .19.038.26.107.068.069.107.162.107.26V21.9c0 .607-.493 1.1-1.1 1.1h-3.667c-.202 0-.366-.164-.366-.367 0-.202.164-.366.366-.366H21.9c.202 0 .367-.165.367-.367v-3.667c0-.097.038-.19.107-.259s.162-.107.26-.107zm-21.266 0c.202 0 .366.164.366.366V21.9c0 .202.165.367.367.367h3.667c.202 0 .366.164.366.366 0 .203-.164.367-.366.367H2.1c-.607 0-1.1-.493-1.1-1.1v-3.667c0-.202.164-.366.367-.366zM5.767 1c.202 0 .366.164.366.367 0 .202-.164.366-.366.366H2.1c-.202 0-.367.165-.367.367v3.667c0 .097-.038.19-.107.259s-.162.107-.26.107c-.097 0-.19-.038-.259-.107C1.04 5.957 1 5.864 1 5.766V2.1C1 1.493 1.493 1 2.1 1zM21.9 1c.607 0 1.1.493 1.1 1.1v3.667c0 .202-.164.366-.367.366-.202 0-.366-.164-.366-.366V2.1c0-.202-.165-.367-.367-.367h-3.667c-.202 0-.366-.164-.366-.366 0-.203.164-.367.366-.367zM15.64 7.304c.21.248.171.614-.085.817-.256.202-.634.165-.843-.083-1.515-1.801-4.344-1.787-5.841.023-.207.25-.584.29-.842.09-.258-.2-.3-.566-.093-.816 1.974-2.387 5.707-2.405 7.705-.031zM9.533 8.859c-.234.226-.234.594 0 .82.234.228.613.228.847 0 .784-.76 2.06-.76 2.845 0 .234.228.613.228.847 0 .234-.226.234-.593 0-.82-1.252-1.213-3.288-1.213-4.54 0zM6.797 3h10.406C18.194 3 19 3.781 19 4.742v14.516c0 .96-.806 1.742-1.797 1.742H6.797C5.806 21 5 20.219 5 19.258V4.742C5 3.782 5.806 3 6.797 3zm0 1.161c-.33 0-.6.26-.6.58v14.517c0 .32.27.58.6.58h10.406c.33 0 .6-.26.6-.58V4.742c0-.32-.27-.58-.6-.58H6.797zm3.481 14.299H8.93c-.825 0-1.497-.652-1.497-1.452v-1.306c0-.8.672-1.452 1.497-1.452h1.348c.826 0 1.497.651 1.497 1.452v1.306c0 .8-.671 1.452-1.497 1.452zm0-1.162c.165 0 .3-.13.3-.29v-1.306c0-.16-.135-.29-.3-.29H8.93c-.165 0-.299.13-.299.29v1.306c0 .16.134.29.3.29h1.347zm2.882-4.971v5.552c0 .32.269.58.6.58.33 0 .598-.26.598-.58v-5.552c0-.321-.268-.581-.599-.581-.33 0-.599.26-.599.58zm2.246 1.814v3.738c0 .32.269.58.6.58.33 0 .598-.26.598-.58v-3.738c0-.32-.268-.58-.599-.58-.33 0-.599.26-.599.58z"/>
        <path d="M0 0H24V24H0z"/>
    </g>
</svg>
