<svg xmlns="http://www.w3.org/2000/svg" xmlns:xlink="http://www.w3.org/1999/xlink" width="34" height="34" viewBox="0 0 34 34">
    <defs>
        <circle id="a" cx="17" cy="17" r="17"/>
    </defs>
    <g fill="none" fill-rule="evenodd">
        <mask id="b" fill="#fff">
            <use xlink:href="#a"/>
        </mask>
        <use fill="#D8D8D8" xlink:href="#a"/>
        <g fill="#000" fill-rule="nonzero" mask="url(#b)" opacity=".197">
            <path d="M12.941 22.247c-.75.213-3.397.982-4.059 1.238-.75.257-1.323.855-1.544 1.538L3.544 33.82c-.22.512-.397 1.025-.441 1.58l-.97 10.763c-.045.427.308.811.75.854l2.161.17c.441.043.794-.256.882-.683l1.545-10.72 1.764-3.459c.089 5.381-.882 12.556-.838 13.197.088 1.11.53 1.623 1.412 1.751a49.53 49.53 0 0 0 7.191.512l.265-13.111-4.191-12.044-.133-.384zM23.53 15.285c0-.598-.089-1.195-.265-1.75-1.147.512-3.089.982-6.265.982-3.22 0-5.162-.513-6.309-1.025a5.813 5.813 0 0 0-.265 1.75c0 3.503 2.912 6.322 6.53 6.322 3.662.042 6.573-2.776 6.573-6.279zM18.5 23.827v-.555c0-.427-.353-.726-.75-.726h-1.5a.732.732 0 0 0-.75.726v.555c0 .427.353.726.75.726l-.309 3.972L17 31.557l1.059-3.032-.309-3.972c.397 0 .75-.299.75-.726z"/>
            <path d="M17 11.57c-2.647 0-4.985.256-6.926.683.485.427 2.205 1.495 6.926 1.495 4.72 0 6.441-1.068 6.926-1.495A35.641 35.641 0 0 0 17 11.57z"/>
            <path d="M17 10.844c2.78 0 5.338.299 7.5.811V10.801c0-.427-.22-.811-.618-1.025L19.78 7.342a.839.839 0 0 0-.308-.086h-4.942a.839.839 0 0 0-.308.086l-4.103 2.434c-.397.214-.618.64-.618 1.025V11.655c2.162-.555 4.72-.811 7.5-.811zM30.897 35.401a4.685 4.685 0 0 0-.441-1.58l-3.794-8.798c-.265-.726-.53-1.196-1.544-1.538-.883-.299-3.353-1.067-4.015-1.238l-3.706 10.549.618 1.794v.085l-.265 13.154c.485 0 2.515-.085 2.515-.085a52.892 52.892 0 0 0 3.838-.385c.882-.128 1.323-.64 1.412-1.75.044-.599-.75-7.645-.618-12.984l1.632 3.246 1.545 10.72c.044.427.44.726.882.683l2.162-.17c.44-.044.75-.428.75-.855l-.97-10.848zm-7.412-5.339c0 .47-.22.94-.617 1.282l-.618.512c-.088.086-.176.086-.265 0l-.573-.512a1.582 1.582 0 0 1-.618-1.282v-.982c0-.128.132-.256.265-.256h2.117c.133 0 .265.128.265.256v.983h.044z"/>
        </g>
    </g>
</svg>
