<svg xmlns="http://www.w3.org/2000/svg" xmlns:xlink="http://www.w3.org/1999/xlink" width="150" height="192" viewBox="0 0 150 192">
    <defs>
        <path id="a" d="M0 0h150v192H0z"/>
    </defs>
    <g fill="none" fill-rule="evenodd">
        <mask id="b" fill="#fff">
            <use xlink:href="#a"/>
        </mask>
        <use fill="#E6E6E6" xlink:href="#a"/>
        <g fill="#000" fill-rule="nonzero" mask="url(#b)" opacity=".197">
            <path d="M55.291 122c-3.766 1.07-17.057 4.923-20.38 6.207-3.766 1.285-6.645 4.281-7.753 7.706l-19.05 44.094c-1.108 2.568-1.994 5.137-2.216 7.92l-4.873 53.94c-.222 2.14 1.55 4.066 3.766 4.28l10.854.856c2.215.214 3.987-1.284 4.43-3.424l7.754-53.726 8.86-17.338c.443 26.97-4.43 62.93-4.208 66.14.443 5.566 2.658 8.134 7.088 8.776C51.303 249.144 63.266 250 75.671 250L77 184.288l-21.044-60.362L55.29 122zM108 87.11c0-3.036-.444-6.073-1.333-8.893-5.778 2.603-15.556 4.989-31.556 4.989-16.222 0-26-2.603-31.778-5.206C42.444 80.82 42 83.857 42 86.894c0 17.787 14.667 32.104 32.889 32.104 18.444.216 33.111-14.1 33.111-31.887zM83 129.398v-2.772c0-2.133-1.765-3.626-3.75-3.626h-7.5c-2.206 0-3.75 1.706-3.75 3.626v2.772c0 2.133 1.765 3.626 3.75 3.626l-1.544 19.834L75.5 168l5.294-15.142-1.544-19.834c1.985 0 3.75-1.493 3.75-3.626z"/>
            <path d="M76 68c-13.376 0-25.191 1.294-35 3.451C43.452 73.608 52.146 79 76 79s32.548-5.392 35-7.549A180.197 180.197 0 0 0 76 68zM75.5 63.942c13.897 0 26.691 1.495 37.5 4.058v-4.272c0-2.136-1.103-4.058-3.088-5.126L89.397 46.427c-.441-.213-1.103-.427-1.544-.427H63.147c-.441 0-1.103.214-1.544.427L41.088 58.602C39.103 59.67 38 61.806 38 63.728V68c10.809-2.777 23.603-4.058 37.5-4.058zM145.104 188.33c-.223-2.8-1.113-5.599-2.226-7.968l-19.14-44.364c-1.336-3.66-2.67-6.03-7.79-7.753-4.451-1.507-16.914-5.384-20.253-6.245L77 175.194l3.116 9.045v.43L78.78 251c2.449 0 12.686-.43 12.686-.43a266.936 266.936 0 0 0 19.363-1.939c4.451-.646 6.677-3.23 7.122-8.83.223-3.015-3.783-38.549-3.116-65.469l8.235 16.367 7.79 54.056c.222 2.153 2.225 3.66 4.451 3.445l10.905-.861c2.226-.215 3.784-2.154 3.784-4.307l-4.896-54.701zm-37.39-26.92c0 2.37-1.113 4.739-3.116 6.461l-3.116 2.585c-.445.43-.89.43-1.336 0l-2.893-2.585c-2.003-1.507-3.116-3.876-3.116-6.46v-4.954c0-.646.668-1.292 1.336-1.292h10.682c.668 0 1.336.646 1.336 1.292v4.954h.222z"/>
        </g>
    </g>
</svg>
