<?xml version="1.0" encoding="UTF-8"?>
<svg width="98px" height="118px" viewBox="0 0 98 118" version="1.1" xmlns="http://www.w3.org/2000/svg" xmlns:xlink="http://www.w3.org/1999/xlink">
    <!-- Generator: Sketch 59.1 (86144) - https://sketch.com -->
    <title>Group 6</title>
    <desc>Created with Sketch.</desc>
    <defs>
        <polygon id="path-1" points="0.0002 0.985 97.194 0.985 97.194 119 0.0002 119"></polygon>
    </defs>
    <g id="User" stroke="none" stroke-width="1" fill="none" fill-rule="evenodd">
        <g id="Artboard" transform="translate(-181.000000, -154.000000)">
            <g id="Group-6" transform="translate(181.000000, 153.000000)">
                <path d="M48.5966,21.2138 L20.2776,29.2758 L20.2776,49.8248 C20.2776,53.2438 20.6176,56.6278 21.2586,59.9388 L21.2406,59.9388 C21.2846,60.1728 21.3446,60.4028 21.3916,60.6368 C21.4186,60.7678 21.4486,60.8968 21.4766,61.0268 C24.2186,74.1128 31.6596,85.6628 42.3256,93.5758 C42.3946,93.6278 42.4636,93.6788 42.5326,93.7298 C42.9716,94.0528 43.4096,94.3748 43.8596,94.6848 C44.4736,95.1118 45.1006,95.5238 45.7346,95.9268 C45.9086,96.0368 46.0836,96.1438 46.2596,96.2528 C47.0276,96.7278 47.8046,97.1908 48.5996,97.6288 C48.6016,97.6278 48.6036,97.6258 48.6056,97.6248 C48.6086,97.6258 48.6106,97.6278 48.6126,97.6288 C49.0136,97.4078 49.3966,97.1618 49.7906,96.9318 C50.3176,96.6258 50.8486,96.3248 51.3636,96.0018 C51.4826,95.9268 51.5956,95.8458 51.7136,95.7708 C64.3896,87.6868 73.1836,74.7458 75.9716,59.9388 L75.9476,59.9388 C76.1676,58.7998 76.3586,57.6548 76.5046,56.5018 L70.8526,56.5018 L51.6426,56.5018 L51.6426,45.8728 L75.0856,45.8728 L76.9156,45.8728 L76.9346,45.8728 L76.9346,29.2968 L76.9346,29.2758 L48.6156,21.2138 L48.6056,21.2158 L48.5966,21.2138 Z" id="Fill-1" fill="#FEFEFE"></path>
                <g id="Group-5" transform="translate(0.000000, 0.015000)">
                    <mask id="mask-2" fill="white">
                        <use xlink:href="#path-1"></use>
                    </mask>
                    <g id="Clip-4"></g>
                    <path d="M86.7822,38.836 L86.7712,38.836 L86.7712,47.2 L86.7822,47.2 L86.7822,50.76 C86.7822,52.106 86.7312,53.444 86.6432,54.776 C86.6292,54.996 86.6152,55.215 86.5992,55.433 C86.5542,56.014 86.5022,56.593 86.4412,57.17 C86.4292,57.279 86.4192,57.387 86.4072,57.496 C84.0612,78.632 70.8032,97.475 51.2982,106.665 L48.5972,107.939 L45.8962,106.665 C26.3912,97.475 13.1332,78.632 10.7862,57.496 C10.7752,57.387 10.7642,57.279 10.7532,57.17 C10.6922,56.593 10.6392,56.014 10.5952,55.433 C10.5782,55.215 10.5652,54.996 10.5512,54.776 C10.4632,53.444 10.4122,52.106 10.4122,50.76 L10.4122,47.2 L10.4232,47.2 L10.4232,38.836 L10.4122,38.836 L10.4122,22.678 L48.5972,11.809 L86.7822,22.678 L86.7822,38.836 Z M48.5972,0.985 L48.5972,0.985 L48.5962,0.985 L0.0002,14.819 L0.0002,50.76 C0.0002,80.924 19.0302,108.167 47.3562,118.545 L48.5962,119 L48.5972,119 L48.5972,119 L49.8382,118.545 C78.1642,108.167 97.1942,80.924 97.1942,50.76 L97.1942,14.819 L48.5972,0.985 Z" id="Fill-3" fill="#FEFEFE" mask="url(#mask-2)"></path>
                </g>
            </g>
        </g>
    </g>
</svg>