<svg xmlns="http://www.w3.org/2000/svg" width="177" height="242" viewBox="0 0 177 242">
    <g fill="none" fill-rule="evenodd">
        <path fill="#00CA9D" d="M89 0l75 21.334v55.43c0 46.516-29.37 88.53-73.085 104.534L89 182h-.002l-1.913-.702C43.369 165.294 14 123.28 14 76.763V21.334L88.998 0H89zm58.931 58.373V33.454L89 16.693 30.069 33.454v24.919h.017v12.899h-.017v5.491c0 2.075.079 4.138.214 6.192.022.338.042.677.067 1.015.07.894.151 1.787.247 2.679.015.166.03.334.05.5 3.623 32.598 24.082 61.656 54.185 75.828L89 164.942l4.168-1.965c30.103-14.172 50.562-43.23 54.186-75.829.018-.165.032-.333.05-.5a91.34 91.34 0 0 0 .245-2.678c.026-.338.046-.677.068-1.015.135-2.054.214-4.117.214-6.192v-5.491h-.017v-12.9h.017zM89 31.173l.016.004.013-.005 43.705 12.435v25.596H93.7v16.39h38.37a82.394 82.394 0 0 1-.86 5.3h.037c-4.301 22.835-17.873 42.794-37.437 55.26-.183.117-.357.242-.54.357-.794.497-1.613.961-2.428 1.433-.608.355-1.2.734-1.818 1.075l-.01-.006c-.003.003-.007.004-.01.006a81.033 81.033 0 0 1-3.612-2.122 71.349 71.349 0 0 1-.81-.503 85.29 85.29 0 0 1-2.894-1.914c-.694-.48-1.37-.976-2.048-1.472l-.319-.238a83.897 83.897 0 0 1-32.176-50.198c-.042-.199-.09-.4-.13-.6-.074-.362-.167-.715-.235-1.078h.027a82.087 82.087 0 0 1-1.513-15.597V43.607L89 31.172z"/>
        <g fill="#000">
            <path d="M5.102 212.64c.291.808.698 1.495 1.224 2.053a5.243 5.243 0 0 0 1.893 1.275c.737.293 1.544.44 2.437.44a6.31 6.31 0 0 0 1.49-.163c.451-.109.881-.25 1.304-.43v-2.987h-1.945c-.285 0-.506-.076-.676-.23a.777.777 0 0 1-.242-.58v-2.513h6.996v8.305a10.203 10.203 0 0 1-3.222 1.609c-1.137.33-2.328.5-3.568.5-1.623 0-3.095-.254-4.427-.764-1.323-.508-2.46-1.21-3.41-2.106a9.3 9.3 0 0 1-2.187-3.187c-.515-1.23-.768-2.565-.768-4.006 0-1.468.242-2.817.726-4.044a9.176 9.176 0 0 1 2.087-3.182c.909-.89 1.997-1.583 3.284-2.079 1.282-.493 2.717-.743 4.297-.743.825 0 1.591.07 2.314.203.723.134 1.381.318 1.989.553a8.981 8.981 0 0 1 1.666.839c.51.322.962.674 1.356 1.052l-1.327 2.012c-.198.316-.475.51-.799.582-.332.072-.687-.009-1.064-.244a13.22 13.22 0 0 0-1.022-.56 6.073 6.073 0 0 0-.978-.385 6.398 6.398 0 0 0-1.054-.217c-.37-.044-.779-.067-1.236-.067-.859 0-1.63.152-2.314.454a4.99 4.99 0 0 0-1.752 1.274 5.855 5.855 0 0 0-1.112 1.981c-.258.769-.388 1.625-.388 2.57 0 1.046.144 1.973.428 2.785M24.302 218.494a2.17 2.17 0 0 1-.504.737 2.423 2.423 0 0 1-1.687.662c-.343 0-.663-.061-.95-.177a2.238 2.238 0 0 1-.747-.485 2.307 2.307 0 0 1-.504-.737 2.36 2.36 0 0 1 0-1.815 2.343 2.343 0 0 1 1.251-1.222c.287-.125.607-.183.95-.183.333 0 .64.058.93.183.285.121.538.285.757.492.219.206.385.45.504.73a2.36 2.36 0 0 1 0 1.815M49.5 219.703h-4.028v-11.32c0-.259.01-.542.022-.85.014-.305.04-.616.074-.932l-5.22 10.116a1.81 1.81 0 0 1-.66.72c-.274.158-.59.24-.935.24h-.624c-.35 0-.665-.082-.94-.24a1.756 1.756 0 0 1-.653-.72l-5.228-10.142c.026.322.053.642.067.951.018.311.027.598.027.857v11.32h-4.025v-19.68h3.48c.206 0 .377.005.524.014.152.009.28.038.4.081.117.045.22.114.32.21.093.094.184.227.276.4l5.063 9.98c.18.343.351.7.52 1.065.164.37.33.75.48 1.137.154-.398.314-.785.475-1.163.169-.378.351-.74.535-1.079l5.053-9.94c.094-.173.185-.306.273-.4a.972.972 0 0 1 .318-.21c.12-.043.255-.072.4-.081.152-.01.322-.015.524-.015H49.5v19.681zM56.958 218.494a2.17 2.17 0 0 1-.504.737 2.398 2.398 0 0 1-1.69.662c-.342 0-.656-.061-.946-.177a2.283 2.283 0 0 1-.748-.485 2.397 2.397 0 0 1-.504-.737 2.426 2.426 0 0 1 0-1.815c.126-.28.292-.524.504-.73a2.392 2.392 0 0 1 1.694-.675c.341 0 .647.058.938.183.284.121.535.285.752.492.213.206.39.45.504.73.125.278.183.578.183.904 0 .323-.058.627-.183.91M70.384 212.64c.286.808.696 1.495 1.222 2.053.523.557 1.15.982 1.891 1.275.727.293 1.544.44 2.435.44.55 0 1.045-.055 1.495-.163.441-.109.88-.25 1.302-.43v-2.987h-1.944c-.29 0-.517-.076-.678-.23a.767.767 0 0 1-.245-.58v-2.513h6.997v8.305a10.28 10.28 0 0 1-3.221 1.609c-1.137.33-2.327.5-3.572.5-1.62 0-3.097-.254-4.424-.764-1.332-.508-2.465-1.21-3.407-2.106a9.28 9.28 0 0 1-2.19-3.187c-.515-1.23-.768-2.565-.768-4.006 0-1.468.246-2.817.729-4.044a9.142 9.142 0 0 1 2.082-3.182c.908-.89 2.007-1.583 3.285-2.079 1.283-.493 2.717-.743 4.306-.743.815 0 1.584.07 2.307.203.716.134 1.384.318 1.988.553a9.307 9.307 0 0 1 1.67.839c.505.322.951.674 1.351 1.052l-1.322 2.012c-.211.316-.477.51-.808.582-.327.072-.677-.009-1.053-.244a16.084 16.084 0 0 0-1.024-.56 6.278 6.278 0 0 0-2.032-.602 10.7 10.7 0 0 0-1.245-.067c-.853 0-1.625.152-2.305.454-.683.3-1.273.726-1.752 1.274-.48.55-.853 1.21-1.115 1.981-.262.769-.39 1.625-.39 2.57 0 1.046.146 1.973.435 2.785M95.731 207.406c-.13.374-.332.7-.607.978a2.85 2.85 0 0 1-1.077.656c-.432.157-.968.237-1.584.237h-1.835v-5.836h1.835c1.179 0 2.05.242 2.61.729.564.488.846 1.164.846 2.026 0 .434-.065.835-.188 1.21zm2.24 5.45a4.076 4.076 0 0 0-.7-.819 4.14 4.14 0 0 0-.84-.573 6.564 6.564 0 0 0 1.696-.933c.49-.376.904-.806 1.24-1.289.334-.48.58-1.007.757-1.573a6.535 6.535 0 0 0 .252-1.81c0-.84-.143-1.612-.429-2.322-.29-.712-.756-1.329-1.386-1.851-.635-.524-1.45-.931-2.459-1.222-.998-.293-2.216-.441-3.639-.441h-6.401v19.68h4.566v-7.281h1.157c.354 0 .626.058.81.168.19.114.363.291.515.535l3.265 5.713c.336.576.893.866 1.654.866h4.134l-4.192-6.848zM117.866 212.497c-.252.779-.619 1.44-1.085 1.978a4.575 4.575 0 0 1-1.739 1.236c-.683.284-1.455.425-2.336.425-.882 0-1.661-.141-2.359-.425a4.687 4.687 0 0 1-1.742-1.236c-.467-.537-.834-1.199-1.085-1.978-.251-.78-.376-1.658-.376-2.64 0-.972.125-1.849.376-2.628a5.656 5.656 0 0 1 1.085-1.978c.479-.54 1.059-.954 1.742-1.242.698-.287 1.477-.433 2.36-.433.88 0 1.652.146 2.335.433a4.646 4.646 0 0 1 1.739 1.242c.466.54.833 1.2 1.085 1.978.255.78.38 1.656.38 2.629 0 .981-.125 1.86-.38 2.639m4.32-6.597a9.573 9.573 0 0 0-2.077-3.188c-.888-.9-1.965-1.61-3.218-2.128-1.258-.515-2.652-.776-4.185-.776-1.53 0-2.923.259-4.186.769-1.26.515-2.341 1.222-3.236 2.122a9.437 9.437 0 0 0-2.074 3.187c-.493 1.226-.74 2.547-.74 3.972 0 1.42.247 2.744.74 3.968a9.485 9.485 0 0 0 2.074 3.194c.895.907 1.976 1.616 3.236 2.13 1.263.515 2.655.77 4.186.77 1.533 0 2.927-.255 4.185-.77 1.253-.514 2.33-1.223 3.218-2.13a9.633 9.633 0 0 0 2.077-3.194c.492-1.224.732-2.548.732-3.968 0-1.416-.24-2.734-.732-3.958M142.408 211.68c0 1.205-.193 2.313-.586 3.322a7.461 7.461 0 0 1-1.68 2.609 7.6 7.6 0 0 1-2.666 1.7c-1.043.406-2.218.608-3.523.608-1.312 0-2.495-.202-3.54-.607a7.569 7.569 0 0 1-2.657-1.701 7.324 7.324 0 0 1-1.676-2.609c-.386-1.009-.582-2.117-.582-3.323v-11.656h4.563v11.644c0 .694.09 1.312.262 1.856.181.544.436 1.009.77 1.394.333.38.738.674 1.222.875.478.202 1.024.306 1.638.306.611 0 1.159-.104 1.64-.306.486-.2.887-.492 1.224-.871.334-.378.589-.84.763-1.385.178-.544.263-1.162.263-1.857v-11.656h4.565v11.656zM155.615 208.83c-.517.566-1.378.85-2.565.85h-2.374v-6.239h2.374c.578 0 1.077.07 1.491.217a2.67 2.67 0 0 1 1.038.613c.278.266.486.584.62.953.134.37.197.779.197 1.23 0 1.019-.257 1.809-.781 2.376m4.89-4.915a5.267 5.267 0 0 0-1.425-2.041c-.641-.575-1.457-1.029-2.456-1.358-.996-.327-2.19-.493-3.574-.493h-6.94v19.68h4.566v-6.578h2.374c1.363 0 2.536-.164 3.534-.491.994-.331 1.813-.788 2.46-1.372a5.42 5.42 0 0 0 1.452-2.106c.314-.82.472-1.721.472-2.701a6.85 6.85 0 0 0-.463-2.54M175.225 215.948a6 6 0 0 1-1.367 2.072c-.602.591-1.341 1.056-2.215 1.394-.876.336-1.88.506-2.997.506-.609 0-1.23-.063-1.869-.19a10.904 10.904 0 0 1-1.838-.535 10.137 10.137 0 0 1-1.676-.817 7.046 7.046 0 0 1-1.369-1.052l1.354-2.133c.107-.156.25-.28.421-.385.178-.104.371-.156.579-.156.264 0 .539.085.817.255.278.175.582.362.933.568.347.207.741.397 1.191.567.452.172.985.259 1.595.259.83 0 1.473-.183 1.932-.55.457-.363.689-.942.689-1.735 0-.46-.127-.83-.378-1.121-.251-.29-.586-.524-.99-.714a9.304 9.304 0 0 0-1.4-.5 35.84 35.84 0 0 1-1.607-.482c-.55-.175-1.086-.39-1.609-.647a5.116 5.116 0 0 1-1.397-1.012c-.414-.42-.74-.94-.994-1.568-.254-.625-.38-1.397-.38-2.317 0-.738.15-1.457.446-2.16.302-.7.738-1.327 1.315-1.879.573-.55 1.285-.985 2.12-1.316.834-.327 1.795-.491 2.873-.491.607 0 1.195.047 1.768.139a9.388 9.388 0 0 1 1.625.421c.511.184.994.405 1.439.662.444.256.842.547 1.193.87l-1.135 2.122a1.74 1.74 0 0 1-.422.486.973.973 0 0 1-.57.16c-.218 0-.431-.064-.675-.195-.235-.13-.506-.276-.81-.437a6.634 6.634 0 0 0-1.032-.441 4.126 4.126 0 0 0-1.323-.195c-.861 0-1.492.182-1.915.547-.416.364-.622.857-.622 1.48 0 .395.123.724.378.984.244.262.579.485.989.678.41.188.875.358 1.403.517.526.16 1.066.335 1.618.528.544.194 1.088.42 1.614.682.52.262.994.593 1.401 1 .412.406.741.898.992 1.476.253.584.382 1.284.382 2.104 0 .91-.16 1.761-.477 2.551"/>
        </g>
        <path fill="#4A4A4A" d="M.01 234.687c.168 2.188 2.022 3.612 4.712 3.612 2.9 0 4.737-1.486 4.737-3.815 0-1.863-1.055-2.882-3.683-3.542l-1.327-.351c-1.749-.448-2.443-1.02-2.443-2.013 0-1.283 1.116-2.127 2.804-2.127 1.582 0 2.654.774 2.874 2.074h1.59c-.131-2.047-1.96-3.506-4.412-3.506-2.68 0-4.482 1.459-4.482 3.612 0 1.802.993 2.839 3.287 3.419l1.626.422c1.749.44 2.54 1.125 2.54 2.206 0 1.257-1.257 2.18-2.962 2.18-1.802 0-3.067-.844-3.26-2.171H.01zm12.692 6.75c1.679 0 2.435-.66 3.243-2.857l3.7-10.055h-1.608l-2.593 7.796h-.14l-2.602-7.796h-1.635l3.507 9.484-.176.562c-.395 1.143-.87 1.565-1.74 1.565a3.64 3.64 0 0 1-.633-.044v1.292c.211.035.475.053.677.053zm8.482-10.319c0 1.371.808 2.136 2.584 2.567l1.626.395c1.01.246 1.502.686 1.502 1.336 0 .87-.914 1.477-2.188 1.477-1.213 0-1.969-.51-2.224-1.31H20.93c.167 1.573 1.617 2.584 3.726 2.584 2.154 0 3.797-1.169 3.797-2.865 0-1.363-.861-2.136-2.645-2.567l-1.46-.351c-1.116-.273-1.643-.677-1.643-1.327 0-.844.879-1.415 2.004-1.415 1.143 0 1.88.5 2.083 1.256h1.494c-.202-1.555-1.582-2.54-3.568-2.54-2.013 0-3.533 1.187-3.533 2.76zm10.186-4.957v2.364h-1.59v1.266h1.59v5.748c0 1.81.782 2.531 2.734 2.531.298 0 .57-.035.87-.088v-1.274a6.073 6.073 0 0 1-.686.035c-.984 0-1.406-.474-1.406-1.59v-5.362h2.197v-1.266h-2.197v-2.364H31.37zm9.554 3.533c-1.512 0-2.567 1.108-2.68 2.786h5.22c-.035-1.678-1.037-2.786-2.54-2.786zm2.496 5.854h1.512c-.457 1.626-1.916 2.619-3.99 2.619-2.629 0-4.272-1.898-4.272-4.896 0-2.979 1.67-4.913 4.271-4.913 2.558 0 4.114 1.82 4.114 4.764v.58h-6.812v.07c.08 1.873 1.125 3.06 2.734 3.06 1.221 0 2.047-.45 2.443-1.284zM47.428 238h1.511v-5.871c0-1.336.958-2.408 2.198-2.408 1.195 0 1.977.72 1.977 1.845V238h1.512v-6.09c0-1.205.879-2.19 2.197-2.19 1.336 0 1.995.686 1.995 2.084V238h1.512v-6.548c0-1.986-1.081-3.094-3.015-3.094-1.31 0-2.39.66-2.9 1.662h-.14c-.44-.985-1.337-1.662-2.62-1.662-1.265 0-2.215.607-2.645 1.662h-.14v-1.495h-1.442V238zm22.412 0v-9.686h.105l4 9.598h1.335l4-9.598h.105V238h1.476v-12.683h-1.837l-4.341 10.495h-.141L70.2 225.317h-1.837V238h1.477zm16.98-1.16c1.556 0 2.707-1.02 2.707-2.373v-.87l-2.548.167c-1.442.096-2.075.597-2.075 1.547 0 .966.818 1.529 1.916 1.529zm-.28 1.327c-1.838 0-3.2-1.09-3.2-2.821 0-1.697 1.248-2.672 3.454-2.804l2.733-.167v-.861c0-1.17-.73-1.81-2.144-1.81-1.134 0-1.925.43-2.136 1.177h-1.53c.203-1.52 1.697-2.523 3.719-2.523 2.311 0 3.603 1.187 3.603 3.156V238h-1.441v-1.397h-.141c-.615 1.01-1.652 1.564-2.918 1.564zm7.294-.167h1.512v-5.607c0-1.662 1.002-2.672 2.663-2.672 1.512 0 2.232.808 2.232 2.513V238h1.512v-6.135c0-2.25-1.187-3.507-3.314-3.507-1.45 0-2.548.616-3.023 1.662h-.14v-1.495h-1.442V238zm13.597-1.16c1.555 0 2.707-1.02 2.707-2.373v-.87l-2.55.167c-1.44.096-2.073.597-2.073 1.547 0 .966.817 1.529 1.916 1.529zm-.282 1.327c-1.837 0-3.199-1.09-3.199-2.821 0-1.697 1.248-2.672 3.454-2.804l2.734-.167v-.861c0-1.17-.73-1.81-2.145-1.81-1.134 0-1.925.43-2.136 1.177h-1.529c.202-1.52 1.696-2.523 3.718-2.523 2.311 0 3.603 1.187 3.603 3.156V238h-1.441v-1.397h-.14c-.616 1.01-1.653 1.564-2.919 1.564zm13.94-5.045c0-2.065-1.064-3.401-2.813-3.401-1.757 0-2.742 1.336-2.742 3.401 0 2.065.985 3.401 2.742 3.401 1.758 0 2.813-1.335 2.813-3.4zm-2.742 8.517c-2.285 0-3.744-1.029-3.973-2.593h1.6c.167.773 1.01 1.274 2.373 1.274 1.696 0 2.707-.835 2.707-2.232v-1.863h-.14c-.599 1.046-1.67 1.634-2.972 1.634-2.452 0-3.972-1.898-3.972-4.737 0-2.839 1.538-4.764 3.972-4.764 1.328 0 2.496.65 3.041 1.67h.141v-1.503h1.441v9.642c0 2.118-1.634 3.472-4.218 3.472zm10.845-11.945c-1.511 0-2.566 1.108-2.68 2.786h5.22c-.035-1.678-1.037-2.786-2.54-2.786zm2.496 5.854h1.512c-.457 1.626-1.916 2.619-3.99 2.619-2.628 0-4.272-1.898-4.272-4.896 0-2.979 1.67-4.913 4.272-4.913 2.558 0 4.113 1.82 4.113 4.764v.58h-6.811v.07c.079 1.873 1.125 3.06 2.733 3.06 1.222 0 2.048-.45 2.443-1.284zm4.008 2.452h1.512v-5.871c0-1.336.958-2.408 2.197-2.408 1.196 0 1.978.72 1.978 1.845V238h1.512v-6.09c0-1.205.878-2.19 2.197-2.19 1.336 0 1.995.686 1.995 2.084V238h1.512v-6.548c0-1.986-1.081-3.094-3.015-3.094-1.31 0-2.39.66-2.9 1.662h-.141c-.44-.985-1.336-1.662-2.62-1.662-1.265 0-2.214.607-2.645 1.662h-.14v-1.495h-1.442V238zm19.442-8.306c-1.512 0-2.567 1.108-2.681 2.786h5.22c-.034-1.678-1.036-2.786-2.54-2.786zm2.496 5.854h1.512c-.458 1.626-1.917 2.619-3.99 2.619-2.629 0-4.272-1.898-4.272-4.896 0-2.979 1.67-4.913 4.271-4.913 2.558 0 4.114 1.82 4.114 4.764v.58h-6.812v.07c.08 1.873 1.125 3.06 2.733 3.06 1.222 0 2.048-.45 2.444-1.284zm4.008 2.452h1.511v-5.607c0-1.662 1.002-2.672 2.663-2.672 1.512 0 2.233.808 2.233 2.513V238h1.512v-6.135c0-2.25-1.187-3.507-3.314-3.507-1.45 0-2.549.616-3.023 1.662h-.141v-1.495h-1.441V238zm11.311-11.839v2.364h-1.59v1.266h1.59v5.748c0 1.81.782 2.531 2.734 2.531.298 0 .57-.035.87-.088v-1.274a6.073 6.073 0 0 1-.686.035c-.984 0-1.406-.474-1.406-1.59v-5.362h2.197v-1.266h-2.197v-2.364h-1.512z"/>
    </g>
</svg>
