<svg xmlns="http://www.w3.org/2000/svg" xmlns:xlink="http://www.w3.org/1999/xlink" width="122" height="30" viewBox="0 0 122 30">
    <defs>
        <path id="a" d="M12.251 29.752h12.251V0H0v29.752z"/>
    </defs>
    <g fill="none" fill-rule="evenodd">
        <path fill="#4A4A4A" d="M33.505 22.343c.084 1.095 1.011 1.806 2.356 1.806 1.45 0 2.368-.742 2.368-1.907 0-.931-.527-1.441-1.84-1.77l-.664-.177c-.875-.224-1.222-.51-1.222-1.006 0-.642.558-1.063 1.402-1.063.79 0 1.327.386 1.437 1.037h.795c-.066-1.024-.98-1.754-2.206-1.754-1.34 0-2.241.73-2.241 1.806 0 .901.497 1.42 1.643 1.71l.813.21c.875.22 1.27.563 1.27 1.104 0 .628-.628 1.09-1.48 1.09-.901 0-1.534-.422-1.63-1.086h-.8zm6.346 3.375c.84 0 1.217-.33 1.622-1.428l1.85-5.027h-.804l-1.297 3.898h-.07l-1.3-3.898h-.818l1.753 4.741-.088.282c-.198.57-.435.782-.87.782a1.82 1.82 0 0 1-.316-.022v.646c.105.017.237.026.338.026zm4.24-5.159c0 .686.405 1.068 1.293 1.283l.813.198c.505.123.751.343.751.668 0 .435-.457.738-1.094.738-.606 0-.984-.255-1.112-.654h-.778c.084.786.809 1.291 1.864 1.291 1.076 0 1.898-.584 1.898-1.432 0-.681-.43-1.068-1.323-1.283l-.73-.176c-.557-.136-.82-.338-.82-.664 0-.422.439-.707 1.001-.707.571 0 .94.25 1.042.628h.747c-.101-.778-.791-1.27-1.785-1.27-1.006 0-1.766.593-1.766 1.38zm5.094-2.478v1.182h-.795v.633h.795v2.874c0 .905.391 1.265 1.367 1.265.15 0 .285-.017.435-.044v-.637c-.14.013-.207.018-.343.018-.492 0-.703-.238-.703-.796v-2.68h1.099v-.633h-1.1V18.08h-.755zm4.777 1.766c-.756 0-1.283.554-1.34 1.393h2.61c-.018-.84-.519-1.393-1.27-1.393zm1.248 2.927h.756c-.229.813-.958 1.31-1.995 1.31-1.314 0-2.136-.95-2.136-2.448 0-1.49.835-2.457 2.136-2.457 1.279 0 2.056.91 2.056 2.382v.29h-3.405v.035c.04.936.562 1.53 1.366 1.53.611 0 1.024-.225 1.222-.642zM57.214 24h.756v-2.936c0-.668.479-1.204 1.098-1.204.598 0 .99.36.99.923V24h.755v-3.045c0-.602.44-1.095 1.099-1.095.668 0 .997.343.997 1.042V24h.756v-3.274c0-.993-.54-1.547-1.507-1.547-.655 0-1.196.33-1.45.83h-.07c-.22-.491-.669-.83-1.31-.83-.633 0-1.108.303-1.323.83h-.07v-.746h-.721V24zm11.206 0v-4.843h.053l2 4.8h.667l2-4.8h.052V24h.739v-6.341h-.919l-2.17 5.247h-.071l-2.17-5.247h-.92V24h.739zm8.49-.58c.778 0 1.354-.51 1.354-1.187v-.435l-1.275.084c-.72.048-1.037.299-1.037.773 0 .484.409.765.958.765zm-.14.663c-.919 0-1.6-.544-1.6-1.41 0-.848.624-1.336 1.727-1.402l1.367-.084v-.43c0-.585-.365-.905-1.073-.905-.566 0-.962.215-1.067.588h-.765c.101-.76.848-1.26 1.859-1.26 1.156 0 1.802.592 1.802 1.577V24h-.721v-.699h-.07c-.308.506-.827.782-1.46.782zM80.417 24h.756v-2.804c0-.83.5-1.336 1.331-1.336.756 0 1.117.405 1.117 1.257V24h.755v-3.067c0-1.125-.593-1.754-1.656-1.754-.725 0-1.275.308-1.512.83h-.07v-.746h-.721V24zm6.798-.58c.778 0 1.354-.51 1.354-1.187v-.435l-1.275.084c-.72.048-1.037.299-1.037.773 0 .484.409.765.958.765zm-.14.663c-.919 0-1.6-.544-1.6-1.41 0-.848.624-1.336 1.727-1.402l1.367-.084v-.43c0-.585-.365-.905-1.072-.905-.567 0-.963.215-1.068.588h-.765c.101-.76.848-1.26 1.859-1.26 1.156 0 1.802.592 1.802 1.577V24h-.721v-.699h-.07c-.308.506-.826.782-1.46.782zm6.97-2.522c0-1.033-.532-1.7-1.407-1.7-.879 0-1.37.667-1.37 1.7s.491 1.7 1.37 1.7c.88 0 1.406-.667 1.406-1.7zm-1.372 4.258c-1.142 0-1.872-.514-1.986-1.296h.8c.083.387.505.637 1.186.637.848 0 1.354-.417 1.354-1.116v-.932h-.07c-.3.523-.835.818-1.486.818-1.226 0-1.986-.95-1.986-2.369 0-1.42.769-2.382 1.986-2.382.664 0 1.248.325 1.52.835h.071v-.751h.72v4.82c0 1.06-.817 1.736-2.109 1.736zm5.423-5.972c-.756 0-1.283.554-1.34 1.393h2.61c-.017-.84-.518-1.393-1.27-1.393zm1.248 2.927h.756c-.228.813-.958 1.31-1.995 1.31-1.314 0-2.136-.95-2.136-2.448 0-1.49.835-2.457 2.136-2.457 1.279 0 2.057.91 2.057 2.382v.29h-3.406v.035c.04.936.562 1.53 1.367 1.53.61 0 1.023-.225 1.221-.642zM101.348 24h.756v-2.936c0-.668.479-1.204 1.099-1.204.597 0 .988.36.988.923V24h.756v-3.045c0-.602.44-1.095 1.099-1.095.668 0 .997.343.997 1.042V24h.756v-3.274c0-.993-.54-1.547-1.507-1.547-.655 0-1.195.33-1.45.83h-.07c-.22-.491-.668-.83-1.31-.83-.633 0-1.108.303-1.323.83h-.07v-.746h-.72V24zm9.72-4.153c-.755 0-1.282.554-1.34 1.393h2.61c-.017-.84-.518-1.393-1.27-1.393zm1.249 2.927h.756c-.229.813-.958 1.31-1.995 1.31-1.314 0-2.136-.95-2.136-2.448 0-1.49.835-2.457 2.136-2.457 1.278 0 2.056.91 2.056 2.382v.29h-3.405v.035c.04.936.562 1.53 1.366 1.53.611 0 1.024-.225 1.222-.642zM114.32 24h.756v-2.804c0-.83.5-1.336 1.331-1.336.756 0 1.116.405 1.116 1.257V24h.756v-3.067c0-1.125-.593-1.754-1.656-1.754-.726 0-1.275.308-1.512.83h-.07v-.746h-.721V24zm5.656-5.92v1.183h-.796v.633h.796v2.874c0 .905.39 1.265 1.366 1.265.15 0 .286-.017.435-.044v-.637c-.14.013-.206.018-.342.018-.493 0-.704-.238-.704-.796v-2.68h1.1v-.633h-1.1V18.08h-.755z"/>
        <g>
            <mask id="b" fill="#fff">
                <use xlink:href="#a"/>
            </mask>
            <path fill="#00CA9D" d="M21.858 13.329a15.562 15.562 0 0 1-8.926 13.313l-.68.321-.682-.321c-5.434-2.56-8.946-8.093-8.946-14.094v-7.08l9.627-2.74 9.626 2.74v4.074h-3.194v-1.66L12.251 6.05 5.82 7.881v4.667c0 4.478 2.514 8.7 6.433 10.858a12.369 12.369 0 0 0 6.217-8.56h-6.906V11.65h10.379l-.084 1.678zM12.251 0L0 3.488v9.06c0 7.605 4.798 14.473 11.938 17.089l.313.115.313-.115c7.14-2.616 11.938-9.484 11.938-17.089v-9.06L12.252 0z" mask="url(#b)"/>
        </g>
        <g fill="#000">
            <path d="M35.49 11.146c.142.394.34.73.598 1.002.257.272.564.48.924.622.36.143.753.214 1.189.214.267 0 .51-.026.727-.079.22-.053.43-.122.637-.21v-1.458h-.95a.469.469 0 0 1-.33-.112.38.38 0 0 1-.118-.283V9.616h3.415v4.053a4.98 4.98 0 0 1-1.572.785 6.209 6.209 0 0 1-1.742.245c-.792 0-1.51-.125-2.16-.373a5.001 5.001 0 0 1-1.665-1.028 4.54 4.54 0 0 1-1.068-1.556A5.007 5.007 0 0 1 33 9.787c0-.717.119-1.375.355-1.974.238-.6.578-1.118 1.018-1.553a4.629 4.629 0 0 1 1.604-1.015c.625-.24 1.326-.362 2.097-.362.402 0 .776.033 1.13.099a5.4 5.4 0 0 1 .97.27c.296.114.57.25.813.409.25.157.47.33.662.513l-.647.983a.612.612 0 0 1-.39.284c-.163.035-.336-.005-.52-.12a6.452 6.452 0 0 0-.499-.273 2.964 2.964 0 0 0-.991-.294 5.187 5.187 0 0 0-.604-.032c-.42 0-.796.074-1.13.221a2.436 2.436 0 0 0-.854.622c-.232.268-.416.59-.543.967-.126.375-.19.793-.19 1.255 0 .51.07.962.21 1.359M44.862 14.003a1.06 1.06 0 0 1-.246.36 1.183 1.183 0 0 1-.823.323c-.168 0-.324-.03-.465-.087a1.093 1.093 0 0 1-.61-.596 1.152 1.152 0 0 1 0-.886 1.144 1.144 0 0 1 .61-.596c.14-.061.297-.09.465-.09.162 0 .312.029.453.09.14.059.263.139.37.24.107.1.188.22.246.356a1.152 1.152 0 0 1 0 .886M57.16 14.593h-1.965V9.068a7.513 7.513 0 0 1 .047-.87l-2.549 4.938a.883.883 0 0 1-.322.35.896.896 0 0 1-.456.118h-.304a.901.901 0 0 1-.46-.117.857.857 0 0 1-.318-.351l-2.552-4.95c.013.157.026.313.033.464.009.151.013.292.013.418v5.525h-1.965V4.987h1.699c.1 0 .184.003.256.007a.676.676 0 0 1 .195.04.46.46 0 0 1 .156.102c.046.046.09.111.135.195l2.471 4.872a11.856 11.856 0 0 1 .488 1.074c.075-.194.154-.383.232-.567a7.51 7.51 0 0 1 .262-.527l2.466-4.852a.96.96 0 0 1 .133-.195c.048-.047.1-.08.155-.102a.702.702 0 0 1 .195-.04c.074-.004.157-.007.256-.007h1.7v9.606zM60.801 14.003a1.06 1.06 0 0 1-.246.36 1.17 1.17 0 0 1-.825.323c-.167 0-.32-.03-.462-.087a1.115 1.115 0 0 1-.611-.596 1.184 1.184 0 0 1 0-.886c.062-.137.143-.256.246-.356a1.168 1.168 0 0 1 .827-.33c.167 0 .316.029.458.09.138.059.261.139.367.24.104.1.19.22.246.356.061.136.09.282.09.441 0 .158-.029.306-.09.445M67.354 11.146c.14.394.34.73.597 1.002.255.272.56.48.923.622.354.143.753.214 1.188.214.268 0 .51-.026.73-.079.215-.053.43-.122.635-.21v-1.458h-.948a.46.46 0 0 1-.331-.112.374.374 0 0 1-.12-.283V9.616h3.415v4.053a5.017 5.017 0 0 1-1.572.785 6.208 6.208 0 0 1-1.744.245c-.79 0-1.511-.125-2.159-.373a4.918 4.918 0 0 1-1.663-1.028 4.53 4.53 0 0 1-1.068-1.556 5.007 5.007 0 0 1-.375-1.955c0-.717.12-1.375.355-1.974.237-.6.577-1.118 1.017-1.553.443-.435.979-.773 1.603-1.015.626-.24 1.326-.362 2.102-.362.398 0 .773.033 1.125.099.35.065.676.155.971.27a4.396 4.396 0 0 1 1.474.923l-.645.982a.626.626 0 0 1-.394.284c-.16.035-.33-.005-.514-.12a7.85 7.85 0 0 0-.5-.273 3.064 3.064 0 0 0-.992-.294 5.222 5.222 0 0 0-.607-.032 2.75 2.75 0 0 0-1.125.221 2.412 2.412 0 0 0-.855.622c-.235.268-.417.59-.545.967a3.87 3.87 0 0 0-.19 1.255c0 .51.071.962.212 1.359M79.726 8.59a1.26 1.26 0 0 1-.296.478 1.391 1.391 0 0 1-.526.32c-.211.077-.472.116-.773.116h-.896V6.656h.896c.575 0 1 .118 1.274.355.275.239.413.569.413.99 0 .211-.032.407-.092.59zm1.093 2.661a1.99 1.99 0 0 0-.341-.4 2.02 2.02 0 0 0-.41-.28c.311-.118.589-.27.827-.455.24-.183.441-.393.605-.629.164-.234.284-.491.37-.767a3.19 3.19 0 0 0 .123-.885c0-.409-.07-.786-.21-1.132a2.29 2.29 0 0 0-.676-.904c-.31-.256-.708-.454-1.2-.596-.487-.143-1.082-.216-1.776-.216h-3.125v9.606h2.23V11.04h.564c.173 0 .305.029.395.082a.77.77 0 0 1 .252.262l1.593 2.788c.164.281.436.422.808.422h2.017l-2.046-3.342zM90.53 11.076c-.123.38-.302.703-.53.965-.23.265-.513.465-.849.604-.333.138-.71.207-1.14.207-.43 0-.81-.069-1.151-.207a2.288 2.288 0 0 1-.85-.604 2.737 2.737 0 0 1-.53-.965 4.186 4.186 0 0 1-.184-1.288c0-.475.061-.903.184-1.283a2.76 2.76 0 0 1 .53-.966c.233-.263.516-.465.85-.606.34-.14.72-.212 1.151-.212.43 0 .807.072 1.14.212.336.14.62.343.85.606.227.264.406.586.529.966.124.38.185.808.185 1.283 0 .479-.06.908-.185 1.288m2.108-3.22A4.673 4.673 0 0 0 91.625 6.3a4.706 4.706 0 0 0-1.57-1.039 5.34 5.34 0 0 0-2.044-.378c-.747 0-1.426.126-2.043.375a4.712 4.712 0 0 0-1.58 1.036c-.435.439-.774.958-1.012 1.555a5.137 5.137 0 0 0-.36 1.939c0 .693.12 1.339.36 1.936a4.63 4.63 0 0 0 1.012 1.56c.437.442.965.788 1.58 1.039.617.251 1.296.376 2.043.376.749 0 1.429-.125 2.043-.376a4.616 4.616 0 0 0 1.57-1.04c.436-.44.773-.961 1.014-1.559.24-.597.358-1.243.358-1.936 0-.691-.118-1.334-.358-1.932M102.509 10.677c0 .588-.095 1.13-.286 1.622-.19.492-.465.916-.82 1.273a3.71 3.71 0 0 1-1.301.83c-.51.198-1.083.297-1.72.297-.64 0-1.218-.1-1.728-.297a3.694 3.694 0 0 1-1.297-.83 3.575 3.575 0 0 1-.818-1.273 4.495 4.495 0 0 1-.284-1.622v-5.69h2.227v5.684c0 .339.044.64.128.906.088.265.213.492.376.68.162.185.36.33.596.427.233.099.5.15.8.15.298 0 .565-.051.8-.15.238-.098.433-.24.598-.425.163-.184.287-.41.372-.676.087-.266.129-.567.129-.906v-5.69h2.228v5.69zM108.955 9.286c-.252.276-.672.415-1.252.415h-1.159V6.656h1.159c.282 0 .526.034.728.106.208.07.374.17.506.299.136.13.238.285.303.465.065.18.096.38.096.6 0 .498-.125.883-.381 1.16m2.387-2.399a2.57 2.57 0 0 0-.696-.996c-.313-.28-.71-.502-1.199-.663-.486-.16-1.068-.24-1.744-.24h-3.388v9.606h2.23v-3.211h1.158c.665 0 1.238-.08 1.725-.24.485-.162.885-.385 1.2-.67.32-.286.555-.63.71-1.028.153-.4.23-.84.23-1.318 0-.445-.075-.858-.226-1.24M118.526 12.76a2.929 2.929 0 0 1-.667 1.012 3.137 3.137 0 0 1-1.08.68 4.072 4.072 0 0 1-1.464.247c-.297 0-.6-.03-.912-.093a5.322 5.322 0 0 1-.897-.26 4.948 4.948 0 0 1-.818-.4 3.439 3.439 0 0 1-.668-.513l.66-1.041a.66.66 0 0 1 .206-.188.553.553 0 0 1 .283-.076c.128 0 .263.041.398.124.136.086.285.177.456.277.17.102.362.194.581.277.22.084.481.127.778.127.405 0 .72-.09.944-.269.223-.177.336-.46.336-.847a.805.805 0 0 0-.185-.547 1.436 1.436 0 0 0-.483-.348 4.541 4.541 0 0 0-.683-.245c-.256-.07-.517-.148-.784-.235a5.724 5.724 0 0 1-.786-.315 2.497 2.497 0 0 1-.682-.495 2.3 2.3 0 0 1-.485-.764c-.124-.306-.185-.683-.185-1.132 0-.36.073-.71.218-1.054.147-.342.36-.648.641-.917.28-.268.627-.48 1.035-.642.407-.16.876-.24 1.402-.24.297 0 .583.023.863.068.279.046.543.115.793.205.25.09.486.198.703.323.217.126.41.268.582.425l-.554 1.036a.85.85 0 0 1-.206.237.475.475 0 0 1-.279.078.69.69 0 0 1-.329-.095 24.483 24.483 0 0 0-.395-.213 3.238 3.238 0 0 0-.504-.216 2.014 2.014 0 0 0-.646-.095c-.42 0-.728.09-.934.267-.203.178-.304.419-.304.722 0 .193.06.354.185.481.119.128.282.237.482.33.2.093.428.176.685.253.257.078.52.163.79.258.265.094.531.205.788.333.254.127.485.289.684.487.2.199.361.439.484.721.124.285.186.627.186 1.027 0 .444-.077.86-.233 1.245"/>
        </g>
    </g>
</svg>
