<?xml version="1.0" encoding="UTF-8"?>
<svg id="Layer_1" data-name="Layer 1" xmlns="http://www.w3.org/2000/svg" viewBox="0 0 176.66 237.63">
  <defs>
    <style>
      .cls-1 {
        fill: #fff;
      }

      .cls-2 {
        fill: #3cb996;
        stroke: #3cb996;
        stroke-miterlimit: 10;
      }

      .cls-3 {
        font-family: DBHelvethaicaX-75Bd, 'DB Helvethaica X';
        font-size: 25px;
      }

      .cls-4 {
        fill: #4a4a4a;
        fill-rule: evenodd;
      }
    </style>
  </defs>
  <path class="cls-4" d="m0,230.68c.17,2.19,2.02,3.61,4.71,3.61,2.9,0,4.74-1.49,4.74-3.82,0-1.86-1.06-2.88-3.68-3.54l-1.33-.35c-1.75-.45-2.44-1.02-2.44-2.01,0-1.28,1.12-2.13,2.8-2.13,1.58,0,2.65.77,2.87,2.07h1.59c-.13-2.05-1.96-3.51-4.41-3.51-2.68,0-4.48,1.46-4.48,3.61,0,1.8.99,2.84,3.29,3.42l1.63.42c1.75.44,2.54,1.12,2.54,2.21,0,1.26-1.26,2.18-2.96,2.18-1.8,0-3.07-.84-3.26-2.17H0Zm12.69,6.75c1.68,0,2.44-.66,3.24-2.86l3.7-10.06h-1.61l-2.59,7.8h-.14l-2.6-7.8h-1.64l3.51,9.48-.18.56c-.4,1.14-.87,1.57-1.74,1.57-.21,0-.42,0-.63-.04v1.29c.21.04.48.05.68.05h0Zm8.48-10.32c0,1.37.81,2.14,2.58,2.57l1.63.4c1.01.25,1.5.69,1.5,1.34,0,.87-.91,1.48-2.19,1.48s-1.97-.51-2.22-1.31h-1.55c.17,1.57,1.62,2.58,3.73,2.58s3.8-1.17,3.8-2.87c0-1.36-.86-2.14-2.65-2.57l-1.46-.35c-1.12-.27-1.64-.68-1.64-1.33,0-.84.88-1.41,2-1.41s1.88.5,2.08,1.26h1.49c-.2-1.55-1.58-2.54-3.57-2.54s-3.53,1.19-3.53,2.76h0Zm10.19-4.96v2.36h-1.59v1.27h1.59v5.75c0,1.81.78,2.53,2.73,2.53.3,0,.57-.04.87-.09v-1.27c-.23.02-.46.04-.69.04-.98,0-1.41-.47-1.41-1.59v-5.36h2.2v-1.27h-2.2v-2.36h-1.51.01Zm9.55,3.53c-1.51,0-2.57,1.11-2.68,2.79h5.22c-.03-1.68-1.04-2.79-2.54-2.79Zm2.5,5.85h1.51c-.46,1.63-1.92,2.62-3.99,2.62-2.63,0-4.27-1.9-4.27-4.9s1.67-4.91,4.27-4.91,4.11,1.82,4.11,4.76v.58h-6.81v.07c.08,1.87,1.12,3.06,2.73,3.06,1.22,0,2.05-.45,2.44-1.28h.01Zm4.01,2.45h1.51v-5.87c0-1.34.96-2.41,2.2-2.41s1.98.72,1.98,1.85v6.43h1.51v-6.09c0-1.21.88-2.19,2.2-2.19s1.99.69,1.99,2.08v6.2h1.51v-6.55c0-1.99-1.08-3.09-3.01-3.09-1.31,0-2.39.66-2.9,1.66h-.14c-.44-.99-1.34-1.66-2.62-1.66s-2.22.61-2.65,1.66h-.14v-1.49h-1.44v9.47Zm22.41,0v-9.69h.11l4,9.6h1.33l4-9.6h.11v9.69h1.48v-12.68h-1.84l-4.34,10.49h-.14l-4.34-10.49h-1.84v12.68h1.48-.01Zm16.98-1.16c1.56,0,2.71-1.02,2.71-2.37v-.87l-2.55.17c-1.44.1-2.07.6-2.07,1.55s.82,1.53,1.92,1.53h0Zm-.28,1.33c-1.84,0-3.2-1.09-3.2-2.82s1.25-2.67,3.45-2.8l2.73-.17v-.86c0-1.17-.73-1.81-2.14-1.81-1.13,0-1.93.43-2.14,1.18h-1.53c.2-1.52,1.7-2.52,3.72-2.52,2.31,0,3.6,1.19,3.6,3.16v6.49h-1.44v-1.4h-.14c-.61,1.01-1.65,1.56-2.92,1.56h0Zm7.29-.17h1.51v-5.61c0-1.66,1-2.67,2.66-2.67,1.51,0,2.23.81,2.23,2.51v5.77h1.51v-6.13c0-2.25-1.19-3.51-3.31-3.51-1.45,0-2.55.62-3.02,1.66h-.14v-1.49h-1.44v9.47h0Zm13.6-1.16c1.56,0,2.71-1.02,2.71-2.37v-.87l-2.55.17c-1.44.1-2.07.6-2.07,1.55s.82,1.53,1.92,1.53h0Zm-.28,1.33c-1.84,0-3.2-1.09-3.2-2.82s1.25-2.67,3.45-2.8l2.73-.17v-.86c0-1.17-.73-1.81-2.14-1.81-1.13,0-1.93.43-2.14,1.18h-1.53c.2-1.52,1.7-2.52,3.72-2.52,2.31,0,3.6,1.19,3.6,3.16v6.49h-1.44v-1.4h-.14c-.62,1.01-1.65,1.56-2.92,1.56h0Zm13.94-5.04c0-2.07-1.06-3.4-2.81-3.4s-2.74,1.34-2.74,3.4.99,3.4,2.74,3.4,2.81-1.34,2.81-3.4h0Zm-2.74,8.52c-2.29,0-3.74-1.03-3.97-2.59h1.6c.17.77,1.01,1.27,2.37,1.27,1.7,0,2.71-.84,2.71-2.23v-1.86h-.14c-.6,1.05-1.67,1.63-2.97,1.63-2.45,0-3.97-1.9-3.97-4.74s1.54-4.76,3.97-4.76c1.33,0,2.5.65,3.04,1.67h.14v-1.5h1.44v9.64c0,2.12-1.63,3.47-4.22,3.47h0Zm10.85-11.95c-1.51,0-2.57,1.11-2.68,2.79h5.22c-.04-1.68-1.04-2.79-2.54-2.79Zm2.5,5.85h1.51c-.46,1.63-1.92,2.62-3.99,2.62-2.63,0-4.27-1.9-4.27-4.9s1.67-4.91,4.27-4.91,4.11,1.82,4.11,4.76v.58h-6.81v.07c.08,1.87,1.12,3.06,2.73,3.06,1.22,0,2.05-.45,2.44-1.28h.01Zm4.01,2.45h1.51v-5.87c0-1.34.96-2.41,2.2-2.41s1.98.72,1.98,1.85v6.43h1.51v-6.09c0-1.21.88-2.19,2.2-2.19s1.99.69,1.99,2.08v6.2h1.51v-6.55c0-1.99-1.08-3.09-3.01-3.09-1.31,0-2.39.66-2.9,1.66h-.14c-.44-.99-1.34-1.66-2.62-1.66s-2.21.61-2.65,1.66h-.14v-1.49h-1.44v9.47h0Zm19.44-8.31c-1.51,0-2.57,1.11-2.68,2.79h5.22c-.03-1.68-1.04-2.79-2.54-2.79h0Zm2.5,5.85h1.51c-.46,1.63-1.92,2.62-3.99,2.62-2.63,0-4.27-1.9-4.27-4.9s1.67-4.91,4.27-4.91,4.11,1.82,4.11,4.76v.58h-6.81v.07c.08,1.87,1.12,3.06,2.73,3.06,1.22,0,2.05-.45,2.44-1.28h.01Zm4.01,2.45h1.51v-5.61c0-1.66,1-2.67,2.66-2.67,1.51,0,2.23.81,2.23,2.51v5.77h1.51v-6.13c0-2.25-1.19-3.51-3.31-3.51-1.45,0-2.55.62-3.02,1.66h-.14v-1.49h-1.44v9.47h0Zm11.31-11.84v2.36h-1.59v1.27h1.59v5.75c0,1.81.78,2.53,2.73,2.53.3,0,.57-.04.87-.09v-1.27c-.23.02-.46.04-.69.04-.98,0-1.41-.47-1.41-1.59v-5.36h2.2v-1.27h-2.2v-2.36h-1.51.01Z"/>
  <path class="cls-2" d="m88.9.52h0L10.15,22.94v58.25c0,48.88,30.84,93.03,76.74,109.84l2.01.74h0l2.01-.74c45.9-16.82,76.74-60.97,76.74-109.84V22.94L88.9.52Z"/>
  <g>
    <path class="cls-1" d="m29.25,84.74c-.02.34.02.63.12.86.1.23.23.42.4.57.17.15.36.25.58.32.22.07.44.11.65.12l4.51.27-.09,1.53-4.4-.27c-.28-.02-.56-.05-.83-.11-.27-.06-.53-.14-.77-.26-.24-.11-.46-.26-.66-.43-.2-.17-.37-.39-.5-.64-.14-.25-.24-.54-.3-.88-.07-.34-.08-.72-.06-1.16.03-.44.09-.82.2-1.15.11-.33.25-.61.41-.84.17-.23.36-.42.58-.57.22-.15.46-.26.71-.35.25-.08.52-.14.8-.16.28-.03.56-.03.84-.01l4.36.28-.09,1.51-4.51-.27c-.22-.01-.44,0-.66.04-.22.04-.43.13-.62.25-.19.12-.34.3-.47.51-.13.22-.2.5-.22.84Z"/>
    <path class="cls-1" d="m30.43,91.12c-.25.03-.46.08-.63.16-.17.07-.31.18-.42.3-.11.13-.18.28-.23.46-.04.18-.06.39-.06.63,0,.14.02.28.06.44.03.16.09.3.17.43.08.13.18.24.31.32.13.08.29.12.49.11.15,0,.28-.04.39-.11.1-.07.2-.17.29-.3.09-.13.17-.3.25-.51.08-.2.17-.44.26-.72.09-.24.17-.48.25-.7.08-.22.17-.43.25-.63.09-.19.19-.37.29-.53.1-.16.22-.3.36-.41.13-.12.29-.21.46-.28.17-.07.37-.11.59-.12.24-.01.46.01.67.08.2.06.38.16.54.27.16.12.3.26.42.43.12.17.22.34.3.54.08.19.14.39.18.6.04.21.07.42.08.63.01.41-.01.79-.08,1.13-.07.34-.19.64-.37.9-.18.26-.43.46-.74.62-.31.16-.71.25-1.19.29l-.05-1.51c.23-.03.42-.08.58-.15.16-.07.28-.16.37-.27.09-.11.16-.23.2-.38.04-.14.05-.3.05-.48,0-.13-.02-.26-.06-.4-.03-.13-.09-.26-.15-.37-.07-.11-.16-.2-.27-.27-.11-.07-.24-.1-.39-.09-.12,0-.22.04-.31.1-.09.07-.17.17-.24.3-.07.13-.15.3-.22.51-.07.2-.16.44-.25.73-.16.5-.32.92-.48,1.26-.15.33-.32.6-.5.79-.18.2-.38.34-.6.42-.22.08-.48.13-.77.14-.42.02-.78-.04-1.07-.18-.29-.14-.53-.34-.72-.59-.19-.26-.33-.56-.42-.92-.09-.36-.14-.74-.16-1.16-.01-.41.02-.78.1-1.14.08-.35.23-.67.43-.94.2-.27.47-.49.8-.67.33-.17.74-.28,1.22-.33l.05,1.53Z"/>
    <path class="cls-1" d="m36.38,89.46l1.25.52.38,4.87-1.2.09-.42-5.48Z"/>
    <path class="cls-1" d="m32.06,99.73l1.74-.23.19,1.43-.53.07.1.75,2.8-.35.2,1.52-2.8.35.09.68-1.21.15-.09-.67-.45.06c-.27.04-.54.05-.8.05-.27,0-.53-.03-.78-.09-.25-.06-.48-.15-.71-.29-.22-.13-.42-.3-.6-.53-.18-.22-.33-.49-.46-.82-.13-.32-.22-.71-.28-1.16-.06-.45-.07-.85-.03-1.2.04-.35.12-.65.23-.91.12-.26.26-.48.45-.67.18-.18.39-.34.61-.46.22-.12.47-.22.73-.28.26-.07.52-.12.79-.15l4.46-.58.2,1.5-4.59.58c-.21.03-.42.08-.62.16-.21.07-.39.18-.54.33-.16.15-.27.34-.35.58-.08.24-.09.54-.05.91.05.37.14.66.28.87s.3.37.49.48c.19.11.39.17.61.18.22.02.43,0,.64-.02l.59-.07-.28-2.18Z"/>
    <path class="cls-1" d="m37.02,98.68l1.78-.33.25,1.38-.64.11.65,3.55-1.14.22-.91-4.93Z"/>
    <path class="cls-1" d="m37.13,105.66l-.89.22c.41.17.75.43,1.03.76.27.33.47.75.59,1.25.12.52.16.96.1,1.34-.06.37-.19.69-.39.96-.2.27-.47.48-.8.65-.33.17-.71.3-1.13.4l-4.68,1.14-.35-1.47,4.82-1.17c.2-.05.38-.13.53-.23.15-.1.27-.23.36-.38.09-.15.15-.31.17-.5.02-.18,0-.38-.04-.59-.08-.35-.21-.64-.38-.86-.17-.23-.37-.41-.61-.53-.24-.12-.5-.2-.78-.22-.29-.02-.58,0-.89.08l-4,.97-.36-1.49,7.35-1.77.35,1.44Z"/>
    <path class="cls-1" d="m35.45,117.82c-.22.11-.4.23-.54.36-.14.13-.23.27-.29.43-.06.16-.07.33-.05.51.02.18.07.39.16.61.05.13.12.26.2.4.08.14.18.25.3.35.12.1.25.16.4.2.15.04.32.01.5-.06.14-.06.25-.13.33-.23.08-.1.13-.22.17-.38.04-.16.06-.34.06-.56,0-.22,0-.47,0-.76,0-.26,0-.51,0-.74,0-.24,0-.46.03-.67.02-.21.05-.41.09-.6.05-.19.11-.36.2-.51.09-.15.2-.29.33-.41.14-.12.31-.23.51-.31.22-.09.44-.14.65-.15.21,0,.41.02.6.08.19.06.37.15.54.26.17.12.32.25.46.4.14.16.27.32.38.5.11.18.21.37.28.57.15.38.26.75.31,1.09.05.35.04.67-.04.97-.08.3-.24.58-.48.83-.24.25-.58.48-1.02.68l-.56-1.41c.21-.11.37-.22.49-.34.12-.12.21-.25.26-.38.05-.13.07-.28.06-.42-.01-.15-.05-.3-.12-.47-.05-.12-.11-.24-.19-.35-.08-.11-.17-.21-.27-.29-.1-.08-.22-.14-.34-.16-.13-.03-.26-.01-.4.04-.11.04-.2.11-.26.21-.06.09-.1.21-.13.36-.02.15-.04.33-.04.55,0,.22,0,.47.01.77.02.53.01.98-.02,1.34-.03.36-.1.67-.2.92-.1.25-.24.45-.42.6-.18.16-.41.29-.68.39-.39.16-.75.22-1.07.19-.32-.03-.62-.13-.88-.31-.26-.18-.5-.42-.71-.72-.21-.3-.39-.65-.54-1.03-.15-.38-.25-.74-.29-1.1-.04-.36-.01-.7.08-1.03.1-.32.27-.62.53-.9.25-.28.6-.52,1.04-.72l.57,1.42Z"/>
    <path class="cls-1" d="m41.08,115.56l1.65-.75.58,1.27-.59.26,1.5,3.29-1.05.49-2.08-4.56Z"/>
    <path class="cls-1" d="m42.64,124.22c-.14-.28-.3-.5-.47-.67-.17-.17-.34-.3-.51-.4-.17-.09-.33-.15-.48-.17-.15-.02-.28-.02-.38,0-.03.1-.07.2-.12.3-.05.1-.12.2-.2.29-.08.1-.17.19-.27.27-.1.08-.21.15-.33.21l-3.59,1.92-.71-1.34,3.62-1.92c.09-.05.18-.11.26-.17.08-.06.16-.14.23-.23.07-.09.12-.19.16-.3.04-.11.06-.24.06-.39.2-.06.41-.09.63-.11.22-.01.44,0,.67.03.23.04.46.1.69.2.23.09.45.22.67.39.22.17.43.37.63.61.2.24.39.53.57.86.21.39.36.76.45,1.11.09.34.13.66.12.96,0,.3-.06.57-.15.82-.09.25-.22.48-.37.69-.16.21-.34.39-.55.56-.21.16-.43.31-.67.44l-4.02,2.15-.72-1.35,4.13-2.21c.19-.1.36-.23.51-.38.15-.15.27-.34.34-.55.07-.21.1-.45.07-.72-.03-.27-.12-.57-.29-.9Z"/>
    <path class="cls-1" d="m44.25,132.54l1.44-1,.82,1.18-.44.3.43.62,2.32-1.6.87,1.26-2.32,1.6.39.56-1,.69-.39-.56-.37.27c-.22.15-.45.29-.69.41-.24.12-.48.21-.73.27-.25.06-.5.08-.76.07-.26-.01-.52-.08-.78-.19-.26-.11-.52-.29-.78-.52-.26-.23-.52-.53-.78-.9-.26-.37-.45-.73-.58-1.05-.12-.33-.2-.63-.21-.92-.02-.28.01-.55.09-.8.08-.25.19-.48.33-.69.14-.21.32-.41.51-.59.2-.18.41-.35.63-.5l3.7-2.57.86,1.24-3.81,2.63c-.17.12-.33.27-.48.43-.15.16-.26.34-.33.55-.07.2-.08.43-.04.68.04.25.17.53.38.83.21.3.43.52.65.65.22.13.44.19.65.2.22,0,.43-.03.62-.12.2-.09.39-.19.56-.32l.49-.33-1.26-1.8Z"/>
    <path class="cls-1" d="m48.36,135.6c.21-.19.44-.34.67-.44.23-.1.46-.17.69-.21.23-.03.46-.03.69,0,.23.03.45.09.66.18.21.09.41.2.6.34.19.14.36.3.52.47.26.29.46.6.6.92.14.32.21.65.21.97,0,.33-.08.65-.24.98-.16.32-.4.63-.74.93l-3.79,3.37-1-1.13,3.6-3.2c.41-.36.64-.69.69-1.02.05-.32-.06-.63-.32-.93-.23-.26-.5-.4-.81-.42-.31-.02-.63.11-.98.38l-1.05-1.19Z"/>
    <path class="cls-1" d="m50.92,145.75l-1.14-1,2.88-3.29c.19-.21.39-.41.6-.59.21-.18.44-.33.68-.45.24-.12.49-.2.76-.25.27-.05.54-.05.83,0,.29.05.59.15.89.31.31.16.63.38.96.67.33.29.59.57.78.86.19.29.33.57.41.85.08.28.11.55.1.82-.02.27-.07.53-.16.78-.09.25-.21.5-.36.73-.15.24-.32.46-.5.67l-2.89,3.29-1.15-1.01,3-3.41c.09-.11.18-.22.26-.35.08-.13.14-.26.19-.4.05-.14.08-.29.09-.44,0-.15,0-.3-.04-.46-.04-.16-.11-.31-.21-.47-.1-.16-.23-.31-.41-.46-.17-.15-.34-.27-.51-.34-.17-.08-.33-.13-.49-.15-.16-.02-.31-.02-.46.01-.15.03-.29.08-.42.14-.13.06-.26.14-.37.23-.12.09-.22.19-.31.3l-.68.76c.23-.06.46-.09.66-.09.21,0,.41.02.61.08.2.06.4.14.59.27.19.12.4.28.61.47l-.89.99c-.33-.29-.65-.49-.95-.6-.3-.11-.59-.14-.87-.1-.28.05-.55.16-.82.34-.26.18-.52.42-.78.71l-.49.58Z"/>
    <path class="cls-1" d="m62.37,149.79c.25-.38.44-.74.56-1.06.12-.33.19-.62.19-.88,0-.26-.05-.49-.15-.69-.11-.2-.26-.37-.47-.51-.16-.1-.32-.17-.49-.21-.17-.04-.34-.04-.51,0-.17.04-.35.13-.52.25-.17.13-.35.3-.52.52l-1.28-.84c.25-.35.53-.62.84-.84.32-.21.65-.35,1-.43.35-.07.71-.07,1.08.01.37.08.74.24,1.1.48.45.3.8.64,1.02,1.02.23.38.36.79.39,1.22.03.43-.04.89-.2,1.37-.16.48-.4.96-.73,1.46-.33.5-.68.91-1.05,1.25-.37.34-.77.58-1.17.72-.41.14-.83.19-1.27.12-.44-.06-.88-.25-1.34-.55-.36-.24-.65-.51-.87-.82-.22-.31-.37-.64-.44-.99-.07-.35-.07-.71,0-1.09.07-.37.22-.74.44-1.1l1.28.84c-.14.24-.23.47-.28.67-.05.21-.06.4-.03.57.03.17.1.33.2.47.1.14.23.26.39.37.21.14.42.22.65.24.23.02.46-.02.7-.13.24-.11.48-.28.73-.52.25-.24.5-.55.75-.93Z"/>
    <path class="cls-1" d="m65.19,150.04c.12-.26.27-.48.44-.66.17-.19.36-.34.56-.46.2-.12.41-.21.63-.27.22-.06.45-.09.68-.09.23,0,.46.03.69.08.23.05.45.13.66.24.35.17.66.38.91.62.26.24.44.51.57.82.13.3.18.63.16.99-.02.36-.13.74-.33,1.14l-2.19,4.57-1.36-.66,2.08-4.34c.24-.49.32-.89.24-1.21-.08-.32-.3-.56-.66-.73-.32-.15-.62-.18-.91-.07-.29.1-.54.35-.76.73l-1.43-.69Z"/>
    <path class="cls-1" d="m70.24,157.97l2.22-7.23,1.46.45-1.22,3.93c-.09.31-.13.6-.13.89,0,.29.06.55.17.79.11.24.27.46.49.64.22.19.5.33.84.43.21.06.4.09.59.08.19-.01.36-.06.51-.14.15-.08.29-.19.4-.34.11-.14.2-.32.26-.52l1.47-4.74,1.45.45-1.43,4.6c-.13.41-.29.78-.48,1.1-.19.32-.43.57-.7.75-.28.18-.61.29-.99.33-.38.03-.82-.03-1.33-.19-.5-.15-.9-.38-1.2-.67-.3-.29-.53-.65-.69-1.08l-.27.88-1.41-.43Z"/>
    <path class="cls-1" d="m82.46,159.7c.34.04.63.02.87-.06.24-.08.43-.2.59-.37.16-.16.28-.35.36-.56.08-.21.14-.43.16-.64l.98-7.76,1.52.19-.97,7.66c-.03.28-.09.55-.17.82-.08.27-.18.51-.31.75-.13.23-.28.44-.47.63-.19.19-.41.34-.67.46-.26.12-.56.2-.9.25-.34.04-.73.04-1.16-.02-.43-.05-.81-.15-1.13-.27-.32-.13-.59-.28-.82-.47-.22-.18-.4-.39-.53-.62-.13-.23-.24-.48-.3-.73-.07-.26-.1-.53-.11-.81,0-.28,0-.56.04-.84l.56-4.33,1.5.19-.56,4.48c-.03.21-.03.44,0,.66.03.23.1.44.21.63.11.19.27.36.48.5.21.14.48.23.82.27Z"/>
    <path class="cls-1" d="m92.87,157.48c-.09.05-.19.09-.3.12-.11.03-.23.07-.34.09-.12.03-.24.05-.37.08-.12.02-.25.04-.37.06-.17.03-.34.06-.52.09-.17.03-.34.07-.5.12-.16.05-.31.1-.44.17-.13.07-.25.15-.35.24-.1.09-.17.2-.22.33-.05.13-.07.27-.06.44,0,.19.06.35.14.47.09.12.2.22.33.29.13.07.28.12.45.14.16.03.33.03.5.03.14,0,.28-.03.43-.06.15-.03.3-.07.46-.11l.05,1.2c-.21.06-.4.12-.59.16-.18.04-.38.07-.58.08-.35.02-.69,0-1.02-.07-.32-.06-.61-.18-.86-.34-.25-.16-.45-.38-.61-.65-.15-.27-.24-.6-.25-1-.02-.3,0-.56.06-.79.06-.23.15-.43.28-.6.13-.17.29-.32.47-.45.19-.13.41-.24.65-.33.24-.1.52-.18.81-.26.3-.07.62-.14.96-.21.22-.04.43-.09.63-.13.21-.04.39-.09.55-.16.16-.06.29-.15.38-.24.09-.1.13-.23.13-.38-.01-.24-.07-.44-.16-.58-.1-.14-.22-.25-.37-.32-.15-.07-.31-.11-.5-.13-.18-.02-.36-.02-.54-.01-.24.01-.46.05-.66.1-.2.06-.37.15-.52.27-.14.12-.26.27-.34.46-.08.19-.13.42-.13.69l-1.55.07c0-.34.03-.64.1-.91.07-.27.18-.51.32-.71.14-.21.31-.38.51-.53.2-.15.42-.27.66-.37.24-.1.5-.17.78-.23.28-.05.56-.09.85-.1.23-.01.47,0,.71,0,.24.02.47.06.69.11.22.06.43.14.63.24.2.1.37.23.52.39.15.16.27.35.36.58.09.22.14.48.16.78l.27,5.45-1.51.07-.18-3.67Z"/>
    <path class="cls-1" d="m95.79,155.82c0-.41.05-.79.15-1.15.1-.36.27-.68.49-.96s.51-.53.85-.74c.35-.2.76-.36,1.25-.47.41-.09.79-.12,1.14-.11.35.02.66.08.95.2.29.11.54.26.77.46.23.2.43.43.61.69.17.26.32.56.45.88.12.32.23.67.31,1.03.07.34.12.68.14,1.02.02.33,0,.66-.05.96-.05.31-.14.6-.26.88-.13.27-.29.53-.5.75-.21.23-.47.42-.77.59-.3.16-.66.29-1.06.38-.41.09-.78.12-1.13.1-.34-.02-.66-.09-.94-.2-.28-.12-.54-.27-.77-.47-.23-.2-.43-.43-.6-.69-.17-.26-.32-.55-.44-.86-.12-.31-.22-.64-.29-.99,0-.03-.02-.07-.03-.13-.02-.06-.03-.12-.04-.18l-.05-.23,3.34-.73.25,1.17-1.8.39c.08.29.19.55.33.77.15.22.32.4.51.53.2.14.41.23.65.28.24.05.48.04.74-.01.28-.06.53-.18.73-.34.2-.16.36-.37.47-.63.11-.26.17-.55.19-.9.02-.34-.02-.72-.11-1.13-.19-.85-.48-1.46-.88-1.84-.41-.38-.92-.5-1.54-.37-.23.05-.44.13-.63.23-.19.1-.34.22-.47.37-.13.15-.22.31-.28.5-.06.19-.08.39-.07.61l-1.57.34Z"/>
    <path class="cls-1" d="m107.02,154.43l-.55.22-.44-1.07,2.12-.86.41.99-1.5,4.39-1.33.54-1.7-4.19c-.1-.25-.19-.5-.25-.76-.06-.26-.09-.52-.09-.78,0-.26.04-.51.12-.76.08-.25.21-.49.38-.72.17-.23.4-.45.69-.65.28-.2.63-.39,1.05-.56.41-.16.78-.27,1.12-.32.34-.05.66-.05.94,0,.29.04.54.13.77.25.23.12.44.28.62.46.19.18.35.39.49.61.14.23.26.47.36.71l1.7,4.19-1.42.57-1.77-4.32c-.07-.19-.18-.38-.3-.56-.13-.18-.28-.32-.47-.43-.19-.11-.41-.17-.67-.18-.26,0-.56.05-.9.19-.23.09-.43.2-.58.32-.16.12-.28.24-.38.37-.1.13-.16.27-.21.41-.04.14-.06.28-.06.42,0,.14.01.28.04.42.03.14.07.28.13.4l1.01,2.5.64-1.82Z"/>
    <path class="cls-1" d="m116.32,148.19c-.11-.18-.25-.34-.41-.49-.16-.14-.35-.24-.57-.3-.22-.06-.46-.07-.73-.03-.27.04-.56.16-.88.35-.27.16-.48.33-.64.51-.16.18-.28.36-.36.54-.08.18-.13.34-.14.49-.01.15,0,.28.03.38.1.02.2.05.31.1.1.05.21.11.3.18.1.07.19.15.28.25.09.1.17.2.24.32l2.15,3.46-1.92,1.18-.65-1.05.63-.39-1.5-2.44c-.06-.08-.12-.17-.19-.25-.07-.08-.15-.15-.24-.21-.09-.06-.2-.11-.31-.14-.12-.03-.25-.05-.39-.04-.07-.2-.12-.41-.14-.63-.03-.22-.03-.44,0-.67.02-.23.07-.46.15-.7.08-.24.2-.47.35-.7.15-.23.34-.45.57-.67.23-.22.5-.42.82-.62.38-.23.74-.4,1.08-.52.34-.11.66-.17.95-.19.3-.01.57.02.83.1s.49.19.71.33c.22.14.42.31.59.51.18.2.33.41.48.64l2.39,3.88-1.3.8-2.47-3.98Z"/>
    <path class="cls-1" d="m112.09,146.3l-1.07-1.46,1.13-.82.37.53,2.92-2.13.69.93-4.05,2.95Z"/>
    <path class="cls-1" d="m118.29,145.64c-.16-.19-.27-.38-.34-.56-.07-.19-.11-.37-.11-.54,0-.18.02-.35.07-.51.05-.17.12-.32.21-.47.09-.15.19-.28.3-.41.11-.13.23-.24.34-.33l.88-.74.82.99-.63.53c-.05.04-.12.1-.19.18-.07.08-.13.16-.18.26-.05.1-.07.2-.06.31,0,.11.06.23.16.35.11.13.22.22.33.27.11.05.22.07.33.06.11-.01.22-.05.33-.1.11-.06.22-.13.33-.21l.56-.47.82.98-.57.48c-.11.1-.2.2-.28.3-.07.1-.12.21-.14.32-.02.11,0,.23.05.36.05.13.14.28.28.44.14.17.3.3.48.36.18.07.36.09.55.08.19-.02.38-.07.57-.16.19-.09.37-.21.54-.35.19-.16.34-.33.46-.51.12-.18.19-.38.22-.59.03-.21,0-.43-.09-.66-.08-.23-.23-.47-.45-.72l-2.99-3.56,1.16-.98,3.15,3.76c.3.35.5.72.59,1.1.1.38.11.75.04,1.13-.07.37-.21.73-.43,1.08-.22.35-.5.66-.83.94-.21.18-.43.33-.67.47-.23.14-.47.25-.72.34-.24.08-.49.14-.74.17-.25.03-.49.02-.73-.03-.24-.05-.47-.14-.69-.26-.22-.13-.42-.3-.61-.53-.12-.15-.23-.3-.32-.44-.09-.15-.16-.3-.2-.45-.04-.15-.06-.31-.05-.47,0-.16.05-.32.13-.49-.2.04-.39.04-.55.01-.17-.03-.32-.08-.46-.15-.14-.07-.26-.15-.37-.25-.11-.1-.21-.2-.3-.3Z"/>
    <path class="cls-1" d="m130.85,133.83c.15.13.31.29.47.5.16.21.33.44.5.7.17.26.34.53.5.82.17.29.33.59.49.88.16.3.31.59.45.88.14.29.27.56.39.8l-1.21,1.47-3.36-1.19-.64.78-.93-.76,1.4-1.7,2.95,1.1c-.14-.26-.28-.53-.44-.81-.16-.29-.32-.57-.48-.84-.16-.27-.33-.52-.51-.75-.17-.23-.34-.42-.51-.57-.38-.32-.74-.46-1.09-.41-.35.04-.69.26-1.02.65-.26.32-.39.62-.4.93,0,.3.12.62.38.96l-1.06,1.28c-.25-.29-.43-.59-.56-.92-.12-.33-.18-.66-.17-1.01,0-.35.09-.7.24-1.06.15-.36.37-.73.67-1.09.15-.18.31-.35.49-.52.18-.16.37-.31.57-.43.2-.12.42-.22.64-.29.22-.07.46-.1.7-.08.24.01.49.07.75.18.26.11.52.27.78.5Z"/>
    <path class="cls-1" d="m124.03,134.87l2.04-2.8-.88-.61.85-1.16,1.84,1.33-3.24,4.45-.61-1.2Z"/>
    <path class="cls-1" d="m135.93,135.35l-6.22-4.3.87-1.26,6.22,4.3-.87,1.26Z"/>
    <path class="cls-1" d="m136.74,129.3c.2.12.4.19.59.22.19.03.37.02.54-.02.17-.04.32-.12.46-.23.14-.11.25-.25.34-.4.09-.16.15-.31.19-.47.04-.16.04-.31,0-.47-.04-.15-.11-.3-.23-.44-.12-.14-.28-.28-.5-.4l-.42-.24c-.23-.13-.43-.21-.61-.24-.17-.03-.33,0-.47.05-.14.06-.26.15-.37.27-.11.12-.21.27-.31.43l-.97-.54c.12-.25.18-.48.19-.69,0-.22-.04-.42-.14-.62-.1-.19-.25-.38-.45-.56-.2-.18-.46-.35-.75-.53l.75-1.31c.24.14.47.29.68.46.22.17.4.36.57.57.16.21.28.43.36.67.08.24.11.5.09.78.21-.19.42-.32.63-.38.21-.06.41-.08.59-.06.19.02.37.07.53.14.17.07.31.15.44.23l.51.3c.26.14.47.31.65.49.17.19.31.38.41.59.1.21.17.42.2.65.03.22.04.45.02.68-.02.23-.07.45-.15.68-.08.23-.17.44-.29.65-.12.21-.26.41-.43.59-.16.18-.34.34-.52.48-.19.14-.39.25-.61.33-.22.08-.44.13-.67.15-.23.02-.47,0-.71-.05-.24-.05-.49-.15-.73-.29-.26-.15-.49-.29-.69-.41-.2-.13-.38-.26-.53-.41-.15-.15-.28-.31-.38-.5-.1-.19-.18-.42-.24-.7-.02-.06-.04-.12-.06-.2-.03-.08-.06-.16-.09-.25-.04-.09-.08-.17-.12-.25-.04-.08-.1-.15-.15-.21.01.13,0,.25-.03.38-.03.13-.08.25-.15.37-.04.08-.1.16-.18.25-.07.09-.17.18-.27.27-.11.08-.23.16-.37.22-.14.06-.3.1-.47.11-.17.01-.37,0-.58-.06-.21-.05-.43-.15-.68-.29l.72-1.25c.08.05.17.09.25.11.09.03.17.04.25.03.08,0,.15-.02.22-.06.07-.04.12-.09.16-.16.04-.07.06-.15.07-.22,0-.08-.01-.15-.05-.23-.03-.07-.08-.14-.15-.21-.07-.07-.14-.13-.23-.18l.74-1.28,1.36.78c.13.08.23.16.32.25.09.09.16.2.23.32.07.12.13.27.18.43.05.16.11.35.18.56.05.16.12.31.21.44.09.13.2.25.32.36.12.11.25.2.39.29.14.09.27.16.4.23Z"/>
    <path class="cls-1" d="m137.15,117.33l5.41.97-7.38-4.84.64-1.54,9.09,6.44-.64,1.54-5.43-.92,4.52,3.11-.65,1.55-7.72-1.13.64-1.55,5.43,1.06-4.56-3.16.64-1.55Z"/>
    <path class="cls-1" d="m143.51,104.6c.19.05.4.13.64.24.24.12.49.25.75.41s.54.33.81.51.56.38.83.57c.27.19.54.39.79.59.26.2.49.38.71.54l-.43,1.85-3.54.42-.23.99-1.17-.27.5-2.14,3.13-.32c-.24-.17-.49-.35-.75-.54-.27-.19-.53-.37-.8-.54-.27-.17-.53-.32-.79-.45-.26-.13-.49-.23-.71-.28-.48-.12-.87-.08-1.16.11-.3.19-.51.54-.62,1.04-.09.4-.08.73.05,1.01.13.27.38.5.77.69l-.38,1.62c-.35-.15-.65-.34-.91-.58-.26-.24-.46-.51-.6-.83-.15-.32-.23-.67-.26-1.06-.03-.39.01-.81.12-1.27.05-.23.12-.46.21-.68.09-.23.2-.44.32-.64.13-.2.28-.38.45-.54.17-.16.37-.29.59-.39.22-.1.47-.15.75-.17.28-.02.58.02.92.1Z"/>
    <path class="cls-1" d="m138.34,106.17c-.2-.03-.38-.09-.54-.18-.16-.1-.3-.22-.41-.36-.11-.14-.19-.31-.25-.49-.05-.18-.06-.37-.04-.57.03-.19.09-.37.19-.53.1-.16.22-.3.37-.41.15-.11.31-.2.5-.25.18-.06.37-.07.57-.04.2.03.38.09.54.19.16.1.3.23.41.38.11.15.19.31.24.5.05.19.06.37.04.56-.03.19-.09.37-.19.53-.1.16-.22.29-.37.4-.15.11-.31.19-.5.24-.18.05-.37.06-.57.04Zm.13-.92c.07,0,.14,0,.2-.01.07-.02.12-.05.18-.08.05-.04.1-.08.13-.14.04-.06.06-.12.07-.19,0-.07,0-.14-.02-.2-.02-.07-.05-.13-.09-.18-.04-.05-.09-.1-.15-.13-.06-.04-.12-.06-.19-.07-.07,0-.14,0-.2.01-.07.02-.13.05-.18.09-.05.04-.1.09-.13.15-.04.06-.06.12-.07.19,0,.07,0,.13.02.2.02.06.05.12.09.18.04.05.09.1.15.13.06.03.12.05.19.06Zm5.22-1.62c-.28-.04-.54-.11-.77-.22-.23-.11-.43-.24-.61-.39-.18-.15-.33-.33-.45-.52-.12-.19-.22-.4-.29-.62-.07-.22-.12-.45-.14-.68-.02-.23-.01-.47.02-.7.05-.39.16-.74.31-1.06.15-.32.35-.58.6-.79.25-.21.55-.36.9-.46.35-.09.74-.1,1.19-.04l5.03.68-.21,1.5-4.77-.65c-.54-.08-.95-.03-1.22.14-.28.17-.44.46-.5.85-.05.35.02.64.21.89.19.25.5.41.92.5l-.22,1.57Z"/>
    <path class="cls-1" d="m143.39,93.46c-.02.31,0,.59.07.82.06.24.14.44.24.6.1.17.21.3.33.39.12.1.23.16.33.19.07-.07.16-.14.26-.2.1-.06.2-.11.32-.16.12-.04.24-.07.37-.09.13-.02.26-.03.4-.02l4.07.16-.07,1.51-4.09-.18c-.1,0-.21,0-.31.02-.11.01-.21.04-.31.08-.1.04-.2.1-.29.18-.09.08-.18.18-.25.3-.2-.05-.4-.13-.6-.23-.2-.1-.38-.22-.56-.37-.18-.15-.34-.32-.49-.52-.15-.2-.28-.42-.39-.68-.11-.25-.19-.54-.24-.85-.05-.31-.07-.66-.06-1.03.02-.44.08-.84.17-1.18.1-.34.22-.64.38-.89.16-.25.34-.46.54-.63.2-.17.43-.3.67-.4.24-.1.49-.17.76-.2.26-.04.53-.05.8-.04l4.56.19-.07,1.53-4.68-.18c-.21,0-.42.01-.63.07s-.4.16-.57.3c-.17.14-.31.34-.43.59-.11.25-.18.55-.21.92Z"/>
    <path class="cls-1" d="m141.26,94.01l-1.81.02-.02-1.4h.65l-.05-3.61,1.16-.03.07,5.01Z"/>
    <path class="cls-1" d="m146.4,85.57l.03.59-1.16.07-.13-2.28,1.07-.07,3.68,2.82.09,1.43-4.52.27c-.27.02-.54.02-.8-.01-.27-.03-.52-.08-.76-.17-.24-.08-.47-.21-.68-.36-.21-.16-.4-.35-.56-.59-.16-.24-.3-.53-.4-.86-.1-.33-.17-.72-.19-1.17-.03-.44,0-.83.05-1.17.06-.34.16-.64.3-.89.13-.26.3-.47.49-.65.19-.18.4-.33.64-.44.23-.12.48-.21.74-.26.26-.06.52-.1.79-.12l4.51-.27.09,1.53-4.66.29c-.21,0-.41.05-.62.11-.21.06-.39.17-.55.31-.16.14-.29.34-.38.58-.09.24-.13.55-.11.91.02.25.05.47.11.65.06.18.14.34.23.48.09.13.2.24.32.32.12.08.25.15.38.19.13.05.27.08.42.09.14.02.28.02.42.01l2.69-.16-1.51-1.19Z"/>
  </g>
  <g>
    <path class="cls-1" d="m39.08,57.16c.06.32.08.63.07.95-.01.32-.05.63-.12.93-.07.31-.16.6-.28.89-.12.29-.26.56-.42.81-.31.5-.66.92-1.05,1.28-.39.36-.8.64-1.24.86-.44.22-.89.37-1.36.46-.47.09-.94.11-1.42.07-.48-.04-.95-.14-1.42-.29-.47-.16-.92-.37-1.35-.64-.46-.29-.89-.62-1.27-.99-.39-.37-.72-.76-.99-1.18-.28-.42-.49-.87-.65-1.33-.16-.47-.24-.95-.25-1.45,0-.5.06-1.01.21-1.53.15-.52.39-1.05.72-1.58.33-.53.71-1,1.14-1.41.42-.4.89-.71,1.4-.92.51-.21,1.06-.3,1.65-.28.59.02,1.22.2,1.88.52l-1.06,1.68c-.4-.16-.77-.24-1.12-.24-.35,0-.67.06-.96.19-.3.13-.57.31-.82.54-.25.24-.47.51-.67.83-.23.36-.38.72-.47,1.07-.09.35-.11.69-.09,1.03.03.34.11.66.24.97.13.31.3.61.51.89.21.28.45.54.72.78.27.24.56.46.87.66.31.19.62.34.95.47.33.12.66.21.99.25.33.05.66.05.99.01.32-.04.64-.12.94-.24.3-.13.58-.3.84-.53.26-.22.5-.5.7-.83.27-.42.44-.85.52-1.27.08-.43.08-.83,0-1.22-.08-.39-.23-.75-.46-1.08-.23-.33-.51-.62-.86-.87l-1.91,3.04-1.47-.91,2.9-4.62,5.31,3.31-.76,1.21-1.08-.26Z"/>
    <path class="cls-1" d="m42.14,41.6c-.29-.1-.56-.13-.82-.1-.26.03-.52.13-.77.28-.25.16-.5.36-.75.62-.2.2-.37.42-.52.65-.15.23-.25.47-.31.71-.06.24-.06.48,0,.71.06.24.19.46.41.67.18.18.38.27.61.28.22.01.47-.03.73-.13.26-.1.53-.24.83-.42.29-.18.59-.38.9-.59.29-.2.59-.4.89-.59.3-.2.61-.37.92-.53.31-.16.62-.28.94-.37.32-.09.63-.13.95-.12.32.01.63.09.95.23.32.14.63.36.95.67.3.29.53.61.68.93.15.33.24.66.28,1,.03.34,0,.68-.07,1.02-.08.34-.19.67-.35,1-.16.33-.35.64-.57.94-.22.3-.46.59-.71.85-.31.32-.64.61-.97.86-.34.25-.68.45-1.03.61-.35.16-.71.26-1.07.32-.36.05-.73.05-1.1-.02-.37-.07-.74-.21-1.12-.41-.37-.2-.74-.49-1.11-.84l1.33-1.37c.34.33.68.55,1.02.66.34.11.68.15,1.01.1.33-.05.66-.17.97-.37.31-.19.61-.44.89-.73.22-.23.42-.47.6-.73.18-.26.31-.52.39-.78.08-.27.09-.53.04-.8-.05-.27-.21-.52-.46-.77-.15-.14-.3-.23-.46-.28-.16-.05-.33-.07-.51-.05-.18.02-.36.06-.56.13-.19.07-.39.16-.59.28-.2.11-.41.24-.62.38-.21.14-.43.29-.65.44-.29.2-.58.39-.87.58-.29.19-.59.36-.88.5-.29.15-.59.26-.89.35-.3.09-.59.13-.88.12-.29,0-.58-.07-.87-.19-.29-.12-.57-.32-.86-.59-.28-.27-.5-.56-.65-.87-.15-.31-.25-.62-.3-.94-.05-.32-.04-.64.02-.97.06-.33.15-.65.29-.96.14-.32.31-.63.51-.93.21-.3.44-.58.7-.85.43-.44.87-.79,1.33-1.06.46-.27.93-.43,1.42-.49.49-.05.98,0,1.48.19.5.18,1.01.49,1.53.95l-1.34,1.38c-.32-.25-.62-.42-.91-.52Z"/>
    <path class="cls-1" d="m48.73,32.73l10.4,6.5-1.82,1.36-2.84-1.88-3.5,2.6c.08.28.16.56.24.83.08.27.17.54.25.8.08.27.17.53.25.8.09.27.17.54.26.82l-1.69,1.26-3.32-11.77,1.77-1.31Zm4.15,4.97l-3.71-2.47,1.33,4.24,2.38-1.77Z"/>
    <path class="cls-1" d="m61.39,25.31l.79,1.54-5.2,2.69,1.39,2.63,4.53-2.35.79,1.55-4.53,2.35,2.31,4.42-1.79.93-5.28-10.14,6.99-3.62Z"/>
    <path class="cls-1" d="m71.73,21.73l.53,1.65-5.94,1.95.95,2.82,5.51-1.81.54,1.65-5.52,1.81,1.02,3.11,5.97-1.96.54,1.62-7.87,2.58-3.59-10.85,7.86-2.58Z"/>
    <path class="cls-1" d="m85.43,22.45c-.15-.26-.33-.47-.55-.62-.22-.15-.47-.25-.76-.3-.29-.05-.61-.06-.97-.04-.28.02-.55.07-.82.14-.26.07-.5.18-.7.32-.2.14-.36.32-.48.53-.11.21-.16.47-.14.78.02.25.11.45.27.61.16.16.37.29.63.39.26.1.56.18.9.23.34.06.69.11,1.06.16.35.05.71.1,1.06.15.36.05.7.13,1.04.22.33.09.65.21.95.35.3.14.56.33.79.55.23.22.41.49.56.8.14.31.23.69.26,1.13.03.42,0,.81-.11,1.15-.1.35-.26.65-.46.93-.2.27-.45.51-.73.71-.28.2-.59.37-.93.51-.33.14-.68.25-1.05.33-.37.08-.73.13-1.1.16-.45.03-.88.03-1.3,0-.42-.04-.81-.12-1.17-.23-.37-.12-.7-.28-1.01-.48-.31-.2-.58-.45-.81-.75-.23-.3-.41-.65-.56-1.05-.14-.4-.23-.86-.27-1.37l1.91-.13c.03.47.14.86.32,1.17.18.31.41.56.69.74.28.19.61.31.97.37.36.06.75.08,1.15.05.32-.02.63-.07.93-.14.31-.07.58-.18.81-.32.24-.15.42-.34.56-.57.14-.24.2-.53.17-.88-.02-.2-.07-.37-.16-.52-.09-.15-.2-.27-.35-.38-.14-.11-.31-.2-.5-.27-.19-.07-.4-.14-.63-.19-.22-.05-.46-.09-.72-.13-.25-.04-.51-.07-.77-.11-.34-.04-.69-.09-1.03-.15-.34-.05-.67-.12-.99-.21-.32-.09-.62-.2-.89-.33-.28-.13-.53-.3-.74-.5-.21-.2-.39-.44-.52-.72-.14-.28-.22-.62-.24-1.01-.03-.39,0-.75.1-1.08.09-.33.23-.63.41-.9.18-.27.4-.51.66-.71.26-.21.54-.38.86-.53.31-.15.65-.26,1-.35.35-.09.71-.14,1.08-.17.61-.04,1.18-.01,1.7.09.52.11.98.3,1.38.58.4.28.72.66.98,1.13.26.47.43,1.04.51,1.73l-1.92.14c-.08-.4-.19-.73-.33-.99Z"/>
    <path class="cls-1" d="m99.14,20.7l-.19,1.72-6.22-.67-.29,2.96,5.77.62-.19,1.73-5.78-.62-.35,3.26,6.24.67-.17,1.7-8.24-.88,1.19-11.37,8.22.88Z"/>
    <path class="cls-1" d="m108.54,26.01c-.08-.32-.2-.59-.38-.84-.18-.24-.41-.45-.68-.62-.27-.17-.59-.31-.95-.42-.39-.12-.76-.18-1.11-.17-.35,0-.68.06-.99.17-.3.11-.59.26-.85.45-.26.2-.5.42-.71.68-.21.26-.4.55-.56.86-.16.31-.29.64-.4.98-.17.56-.26,1.11-.28,1.65-.02.54.05,1.04.22,1.5.16.46.43.86.79,1.21.36.35.84.61,1.44.79.44.13.85.18,1.22.14.38-.04.73-.16,1.04-.34.31-.19.59-.44.83-.76.24-.32.44-.68.6-1.1l1.93.58c-.29.71-.65,1.31-1.06,1.8-.41.49-.88.87-1.4,1.13-.52.26-1.09.4-1.72.43-.63.03-1.31-.07-2.04-.29-.58-.18-1.1-.4-1.54-.68-.44-.28-.82-.59-1.14-.95-.32-.36-.57-.75-.75-1.18-.19-.43-.31-.88-.38-1.35-.07-.47-.07-.97-.02-1.48.05-.51.16-1.04.32-1.56.16-.54.37-1.04.63-1.5.25-.46.55-.87.88-1.24.33-.37.7-.68,1.11-.93.41-.26.84-.45,1.31-.58.47-.13.97-.19,1.5-.17.53.01,1.08.11,1.66.28.61.18,1.15.43,1.62.75.47.31.87.69,1.18,1.13.31.44.53.93.66,1.48.13.55.15,1.16.06,1.82l-1.98-.6c.04-.4.02-.76-.05-1.07Z"/>
    <path class="cls-1" d="m119.69,36.37c-.35.65-.75,1.17-1.19,1.56-.45.39-.93.65-1.46.79-.53.14-1.09.15-1.69.03-.6-.11-1.23-.35-1.89-.7-.68-.37-1.25-.77-1.69-1.2-.45-.44-.77-.91-.96-1.43-.19-.51-.25-1.07-.18-1.66.07-.59.29-1.23.65-1.9l3.4-6.39,1.78.95-3.41,6.39c-.43.8-.54,1.51-.34,2.14.21.62.73,1.16,1.57,1.61.78.42,1.48.54,2.08.35.6-.19,1.12-.68,1.56-1.48l3.4-6.39,1.78.95-3.41,6.39Z"/>
    <path class="cls-1" d="m130.42,35.44c.46.37.83.75,1.1,1.14.27.4.45.8.53,1.2.08.4.07.81-.04,1.21-.11.41-.32.8-.63,1.19-.19.23-.39.44-.6.63-.21.18-.44.34-.68.45-.24.12-.49.2-.75.24-.26.04-.53.04-.81-.02.1.29.13.57.1.85-.03.28-.1.55-.2.81-.1.26-.23.52-.38.77-.15.25-.3.48-.44.7-.11.18-.22.35-.34.53-.12.17-.22.36-.32.55-.09.19-.16.41-.2.64-.04.23-.05.5,0,.79l-1.79-1.43c-.01-.15,0-.29.03-.42.03-.14.07-.27.14-.41.06-.14.14-.28.24-.42.09-.14.2-.29.31-.45.11-.16.22-.33.35-.51.12-.18.23-.36.33-.55.1-.19.18-.38.25-.58.06-.19.09-.39.09-.59,0-.2-.05-.39-.14-.58-.09-.19-.23-.38-.43-.55l-2.62-2.08-2.9,3.68-1.58-1.25,7.09-8.96,4.31,3.43Zm-3.68,3.54c.24.19.48.35.74.49.26.14.51.22.76.26.25.04.5,0,.75-.09.24-.09.47-.28.68-.55.15-.19.26-.38.33-.57.07-.2.09-.4.06-.6-.03-.2-.11-.4-.24-.6-.13-.2-.32-.4-.56-.59l-2.66-2.11-2.07,2.61,2.2,1.75Z"/>
    <path class="cls-1" d="m136.75,41.26l-8.08,8.08-1.42-1.43,8.08-8.08,1.42,1.42Z"/>
    <path class="cls-1" d="m137,43.87l1.34-1.09,5.71,6.98-1.34,1.09-2.24-2.74-7.49,6.16-1.27-1.56,7.49-6.16-2.19-2.68Z"/>
    <path class="cls-1" d="m138.45,62.19l-1.06-1.73,3.9-2.42,3.53-7.32,1.27,2.07-2.59,5.17,5.75-.02,1.24,2.01-8.12-.19-3.92,2.43Z"/>
  </g>
  <path class="cls-1" d="m88.89,63.43l-24.25,6.9v17.6c0,2.93.29,5.83.84,8.66h-.02c.04.2.09.4.13.6.02.11.05.22.07.33,2.35,11.21,8.72,21.1,17.85,27.87.06.04.12.09.18.13.38.28.75.55,1.14.82.53.37,1.06.72,1.61,1.06.15.1.3.19.45.28.66.41,1.32.8,2,1.18,0,0,0,0,0,0,0,0,0,0,0,0,.34-.19.67-.4,1.01-.6.45-.26.91-.52,1.35-.8.1-.06.2-.13.3-.2,10.85-6.92,18.38-18,20.77-30.68h-.02c.19-.97.35-1.95.48-2.94h-21.29v-9.1h21.66v-14.21l-24.25-6.9h0s0,0,0,0Z"/>
  <path class="cls-1" d="m88.9,46.12h0l-41.61,11.85v30.78c0,25.83,16.3,49.15,40.55,58.04l1.06.39h0l1.06-.39c24.26-8.89,40.55-32.21,40.55-58.04v-30.78l-41.61-11.85Zm32.7,32.41h0v7.16h0v3.05c0,1.15-.04,2.3-.12,3.44-.01.19-.02.38-.04.56-.04.5-.08.99-.14,1.49,0,.09-.02.19-.03.28-2.01,18.1-13.36,34.23-30.06,42.1l-2.31,1.09-2.31-1.09c-16.7-7.87-28.05-24-30.06-42.1-.01-.09-.02-.18-.03-.28-.05-.5-.1-.99-.14-1.49-.01-.19-.02-.38-.04-.56-.08-1.14-.12-2.29-.12-3.44v-3.05h0v-7.16h0v-13.84l32.7-9.31,32.7,9.31v13.84Z"/>
  <text class="cls-3" transform="translate(13.09 212.47)"><tspan x="0" y="0">G SAFE SECURITY</tspan></text>
</svg>