<?xml version="1.0" encoding="UTF-8"?>
<svg id="Layer_1" data-name="Layer 1" xmlns="http://www.w3.org/2000/svg" viewBox="0 0 117.42 29">
  <defs>
    <style>
      .cls-1, .cls-2 {
        fill: #fff;
      }

      .cls-3 {
        fill: #3cb996;
      }

      .cls-2 {
        fill-rule: evenodd;
      }
    </style>
  </defs>
  <path class="cls-2" d="m28.28,25.2c.08,1.09,1.01,1.81,2.36,1.81,1.45,0,2.37-.74,2.37-1.91,0-.93-.53-1.44-1.84-1.77l-.66-.18c-.88-.22-1.22-.51-1.22-1.01,0-.64.56-1.06,1.4-1.06.79,0,1.33.39,1.44,1.04h.79c-.07-1.02-.98-1.75-2.21-1.75-1.34,0-2.24.73-2.24,1.81,0,.9.5,1.42,1.64,1.71l.81.21c.88.22,1.27.56,1.27,1.1,0,.63-.63,1.09-1.48,1.09-.9,0-1.53-.42-1.63-1.09,0,0-.8,0-.8,0Zm6.35,3.38c.84,0,1.22-.33,1.62-1.43l1.85-5.03h-.8l-1.3,3.9h-.07l-1.3-3.9h-.82l1.75,4.74-.09.28c-.2.57-.44.78-.87.78-.11,0-.21,0-.32-.02v.65c.1.02.24.03.34.03h0Zm4.24-5.16c0,.69.4,1.07,1.29,1.28l.81.2c.51.12.75.34.75.67,0,.43-.46.74-1.09.74s-.98-.25-1.11-.65h-.78c.08.79.81,1.29,1.86,1.29s1.9-.58,1.9-1.43c0-.68-.43-1.07-1.32-1.28l-.73-.18c-.56-.14-.82-.34-.82-.66,0-.42.44-.71,1-.71s.94.25,1.04.63h.75c-.1-.78-.79-1.27-1.78-1.27s-1.77.59-1.77,1.38h0Zm5.09-2.48v1.18h-.79v.63h.79v2.87c0,.91.39,1.26,1.37,1.26.15,0,.28-.02.44-.04v-.64c-.14.01-.21.02-.34.02-.49,0-.7-.24-.7-.8v-2.68h1.1v-.63h-1.1v-1.18h-.77Zm4.78,1.77c-.76,0-1.28.55-1.34,1.39h2.61c-.02-.84-.52-1.39-1.27-1.39Zm1.25,2.93h.76c-.23.81-.96,1.31-1.99,1.31-1.31,0-2.14-.95-2.14-2.45s.83-2.46,2.14-2.46,2.06.91,2.06,2.38v.29h-3.4v.03c.04.94.56,1.53,1.37,1.53.61,0,1.02-.23,1.22-.64h-.02Zm2,1.23h.76v-2.94c0-.67.48-1.2,1.1-1.2s.99.36.99.92v3.22h.76v-3.05c0-.6.44-1.09,1.1-1.09s1,.34,1,1.04v3.1h.76v-3.27c0-.99-.54-1.55-1.51-1.55-.65,0-1.2.33-1.45.83h-.07c-.22-.49-.67-.83-1.31-.83s-1.11.3-1.32.83h-.07v-.75h-.72v4.74h-.02Zm11.21,0v-4.84h.05l2,4.8h.67l2-4.8h.05v4.84h.74v-6.34h-.92l-2.17,5.25h-.07l-2.17-5.25h-.92v6.34s.74,0,.74,0Zm8.49-.58c.78,0,1.35-.51,1.35-1.19v-.43l-1.28.08c-.72.05-1.04.3-1.04.77s.41.76.96.76h.01Zm-.14.66c-.92,0-1.6-.54-1.6-1.41s.62-1.34,1.73-1.4l1.37-.08v-.43c0-.58-.36-.91-1.07-.91-.57,0-.96.22-1.07.59h-.76c.1-.76.85-1.26,1.86-1.26,1.16,0,1.8.59,1.8,1.58v3.24h-.72v-.7h-.07c-.31.51-.83.78-1.46.78h-.01Zm3.65-.08h.76v-2.8c0-.83.5-1.34,1.33-1.34.76,0,1.12.41,1.12,1.26v2.88h.75v-3.07c0-1.12-.59-1.75-1.66-1.75-.72,0-1.28.31-1.51.83h-.07v-.75h-.72v4.74Zm6.8-.58c.78,0,1.35-.51,1.35-1.19v-.43l-1.28.08c-.72.05-1.04.3-1.04.77s.41.76.96.76h.01Zm-.14.66c-.92,0-1.6-.54-1.6-1.41s.62-1.34,1.73-1.4l1.37-.08v-.43c0-.58-.36-.91-1.07-.91-.57,0-.96.22-1.07.59h-.76c.1-.76.85-1.26,1.86-1.26,1.16,0,1.8.59,1.8,1.58v3.24h-.72v-.7h-.07c-.31.51-.83.78-1.46.78h-.01Zm6.97-2.52c0-1.03-.53-1.7-1.41-1.7s-1.37.67-1.37,1.7.49,1.7,1.37,1.7,1.41-.67,1.41-1.7h0Zm-1.37,4.26c-1.14,0-1.87-.51-1.99-1.3h.8c.08.39.5.64,1.19.64.85,0,1.35-.42,1.35-1.12v-.93h-.07c-.3.52-.83.82-1.49.82-1.23,0-1.99-.95-1.99-2.37s.77-2.38,1.99-2.38c.66,0,1.25.33,1.52.83h.07v-.75h.72v4.82c0,1.06-.82,1.74-2.11,1.74h0Zm5.42-5.97c-.76,0-1.28.55-1.34,1.39h2.61c-.02-.84-.52-1.39-1.27-1.39Zm1.25,2.93h.76c-.23.81-.96,1.31-2,1.31-1.31,0-2.14-.95-2.14-2.45s.83-2.46,2.14-2.46,2.06.91,2.06,2.38v.29h-3.41v.03c.04.94.56,1.53,1.37,1.53.61,0,1.02-.23,1.22-.64h0Zm2,1.23h.76v-2.94c0-.67.48-1.2,1.1-1.2s.99.36.99.92v3.22h.76v-3.05c0-.6.44-1.09,1.1-1.09s1,.34,1,1.04v3.1h.76v-3.27c0-.99-.54-1.55-1.51-1.55-.65,0-1.19.33-1.45.83h-.07c-.22-.49-.67-.83-1.31-.83s-1.11.3-1.32.83h-.07v-.75h-.72v4.74h-.02Zm9.72-4.15c-.75,0-1.28.55-1.34,1.39h2.61c-.02-.84-.52-1.39-1.27-1.39Zm1.25,2.93h.76c-.23.81-.96,1.31-2,1.31-1.31,0-2.14-.95-2.14-2.45s.83-2.46,2.14-2.46,2.06.91,2.06,2.38v.29h-3.4v.03c.04.94.56,1.53,1.37,1.53.61,0,1.02-.23,1.22-.64h-.01Zm2,1.23h.76v-2.8c0-.83.5-1.34,1.33-1.34.76,0,1.12.41,1.12,1.26v2.88h.76v-3.07c0-1.12-.59-1.75-1.66-1.75-.73,0-1.28.31-1.51.83h-.07v-.75h-.72v4.74h-.01Zm5.66-5.92v1.18h-.8v.63h.8v2.87c0,.91.39,1.26,1.37,1.26.15,0,.29-.02.43-.04v-.64c-.14.01-.21.02-.34.02-.49,0-.7-.24-.7-.8v-2.68h1.1v-.63h-1.1v-1.18h-.76Z"/>
  <g>
    <path class="cls-3" d="m11.94,0h0L0,3.4v8.83c0,7.41,4.68,14.1,11.64,16.65l.3.11h0l.3-.11c6.96-2.55,11.64-9.24,11.64-16.65V3.4L11.94,0Z"/>
    <g>
      <path class="cls-1" d="m2.89,12.77c0,.05,0,.1.02.13.01.04.04.06.06.09.03.02.06.04.09.05.03.01.07.02.1.02l.68.04v.23s-.68-.04-.68-.04c-.04,0-.08,0-.13-.02-.04,0-.08-.02-.12-.04-.04-.02-.07-.04-.1-.07-.03-.03-.06-.06-.08-.1-.02-.04-.04-.08-.05-.13,0-.05-.01-.11,0-.18,0-.07.01-.12.03-.17.02-.05.04-.09.06-.13.03-.04.06-.06.09-.09.03-.02.07-.04.11-.05.04-.01.08-.02.12-.02.04,0,.08,0,.13,0l.66.04v.23s-.7-.04-.7-.04c-.03,0-.07,0-.1,0-.03,0-.07.02-.09.04-.03.02-.05.04-.07.08-.02.03-.03.08-.03.13Z"/>
      <path class="cls-1" d="m3.07,13.74s-.07.01-.1.02c-.03.01-.05.03-.06.05-.02.02-.03.04-.03.07,0,.03,0,.06,0,.1,0,.02,0,.04,0,.07,0,.02.01.05.03.07.01.02.03.04.05.05.02.01.04.02.07.02.02,0,.04,0,.06-.02.02-.01.03-.03.04-.05.01-.02.03-.05.04-.08.01-.03.03-.07.04-.11.01-.04.03-.07.04-.11.01-.03.03-.07.04-.09.01-.03.03-.06.04-.08.02-.02.03-.05.05-.06.02-.02.04-.03.07-.04.03-.01.06-.02.09-.02.04,0,.07,0,.1.01.03,0,.06.02.08.04.02.02.04.04.06.06.02.03.03.05.05.08.01.03.02.06.03.09,0,.03.01.06.01.1,0,.06,0,.12-.01.17-.01.05-.03.1-.06.14-.03.04-.06.07-.11.09-.05.02-.11.04-.18.04v-.23s.06-.01.08-.02c.02-.01.04-.02.06-.04.01-.02.02-.04.03-.06,0-.02,0-.05,0-.07,0-.02,0-.04,0-.06,0-.02-.01-.04-.02-.06-.01-.02-.02-.03-.04-.04-.02-.01-.04-.02-.06-.01-.02,0-.03,0-.05.02-.01.01-.03.03-.04.05-.01.02-.02.05-.03.08-.01.03-.02.07-.04.11-.02.08-.05.14-.07.19-.02.05-.05.09-.08.12-.03.03-.06.05-.09.06-.03.01-.07.02-.12.02-.06,0-.12,0-.16-.03-.04-.02-.08-.05-.11-.09-.03-.04-.05-.09-.06-.14-.01-.05-.02-.11-.02-.18,0-.06,0-.12.02-.17.01-.05.03-.1.06-.14.03-.04.07-.07.12-.1.05-.03.11-.04.19-.05v.23Z"/>
      <path class="cls-1" d="m3.97,13.48l.19.08.06.74h-.18s-.06-.82-.06-.82Z"/>
      <path class="cls-1" d="m3.32,15.04l.26-.03.03.22h-.08s.01.12.01.12l.42-.05.03.23-.42.05v.1s-.17.02-.17.02v-.1s-.08,0-.08,0c-.04,0-.08,0-.12,0-.04,0-.08,0-.12-.01-.04,0-.07-.02-.11-.04-.03-.02-.06-.05-.09-.08-.03-.03-.05-.07-.07-.12-.02-.05-.03-.11-.04-.18,0-.07-.01-.13,0-.18,0-.05.02-.1.04-.14.02-.04.04-.07.07-.1.03-.03.06-.05.09-.07.03-.02.07-.03.11-.04.04-.01.08-.02.12-.02l.68-.09.03.23-.7.09s-.06.01-.09.02c-.03.01-.06.03-.08.05-.02.02-.04.05-.05.09-.01.04-.01.08,0,.14,0,.06.02.1.04.13s.05.06.07.07c.03.02.06.03.09.03.03,0,.07,0,.1,0h.09s-.04-.34-.04-.34Z"/>
      <path class="cls-1" d="m4.07,14.88l.27-.05.04.21-.1.02.1.54-.17.03-.14-.75Z"/>
      <path class="cls-1" d="m4.09,15.94l-.14.03c.06.03.11.06.16.11.04.05.07.11.09.19.02.08.02.15.02.2,0,.06-.03.11-.06.15-.03.04-.07.07-.12.1-.05.03-.11.05-.17.06l-.71.17-.05-.22.73-.18s.06-.02.08-.04c.02-.02.04-.03.05-.06.01-.02.02-.05.03-.08,0-.03,0-.06,0-.09-.01-.05-.03-.1-.06-.13-.03-.03-.06-.06-.09-.08-.04-.02-.08-.03-.12-.03-.04,0-.09,0-.14.01l-.61.15-.05-.23,1.11-.27.05.22Z"/>
      <path class="cls-1" d="m3.83,17.78s-.06.04-.08.06c-.02.02-.04.04-.04.07,0,.02-.01.05,0,.08,0,.03.01.06.02.09,0,.02.02.04.03.06.01.02.03.04.05.05.02.01.04.02.06.03.02,0,.05,0,.08,0,.02,0,.04-.02.05-.04.01-.01.02-.03.03-.06,0-.02,0-.05,0-.08,0-.03,0-.07,0-.12,0-.04,0-.08,0-.11,0-.04,0-.07,0-.1,0-.03,0-.06.01-.09,0-.03.02-.05.03-.08.01-.02.03-.04.05-.06.02-.02.05-.03.08-.05.03-.01.07-.02.1-.02.03,0,.06,0,.09.01.03,0,.06.02.08.04.03.02.05.04.07.06.02.02.04.05.06.08.02.03.03.06.04.09.02.06.04.11.05.17,0,.05,0,.1,0,.15-.01.05-.04.09-.07.13-.04.04-.09.07-.15.1l-.09-.21s.06-.03.07-.05c.02-.02.03-.04.04-.06,0-.02.01-.04,0-.06,0-.02,0-.05-.02-.07,0-.02-.02-.04-.03-.05-.01-.02-.03-.03-.04-.04-.02-.01-.03-.02-.05-.02-.02,0-.04,0-.06,0-.02,0-.03.02-.04.03,0,.01-.02.03-.02.06,0,.02,0,.05,0,.08,0,.03,0,.07,0,.12,0,.08,0,.15,0,.2,0,.06-.01.1-.03.14-.02.04-.04.07-.06.09-.03.02-.06.04-.1.06-.06.02-.11.03-.16.03-.05,0-.09-.02-.13-.05-.04-.03-.08-.06-.11-.11-.03-.05-.06-.1-.08-.16-.02-.06-.04-.11-.04-.17,0-.05,0-.11.01-.16.01-.05.04-.09.08-.14.04-.04.09-.08.16-.11l.09.22Z"/>
      <path class="cls-1" d="m4.69,17.44l.25-.11.09.19-.09.04.23.5-.16.07-.32-.69Z"/>
      <path class="cls-1" d="m4.92,18.75s-.05-.08-.07-.1c-.03-.03-.05-.05-.08-.06-.03-.01-.05-.02-.07-.03-.02,0-.04,0-.06,0,0,.01-.01.03-.02.05,0,.02-.02.03-.03.04-.01.01-.03.03-.04.04-.02.01-.03.02-.05.03l-.54.29-.11-.2.55-.29s.03-.02.04-.03c.01,0,.02-.02.03-.03.01-.01.02-.03.02-.05,0-.02,0-.04,0-.06.03,0,.06-.01.1-.02.03,0,.07,0,.1,0,.03,0,.07.02.1.03.03.01.07.03.1.06.03.03.07.06.1.09.03.04.06.08.09.13.03.06.05.12.07.17.01.05.02.1.02.15,0,.05,0,.09-.02.12-.01.04-.03.07-.06.1-.02.03-.05.06-.08.08-.03.02-.07.05-.1.07l-.61.33-.11-.21.63-.34s.05-.03.08-.06c.02-.02.04-.05.05-.08.01-.03.02-.07.01-.11,0-.04-.02-.09-.04-.14Z"/>
      <path class="cls-1" d="m5.17,20.02l.22-.15.12.18-.07.05.07.09.35-.24.13.19-.35.24.06.09-.15.11-.06-.08-.06.04s-.07.04-.1.06c-.04.02-.07.03-.11.04-.04,0-.08.01-.12.01-.04,0-.08-.01-.12-.03-.04-.02-.08-.04-.12-.08-.04-.03-.08-.08-.12-.14-.04-.06-.07-.11-.09-.16-.02-.05-.03-.1-.03-.14,0-.04,0-.08.01-.12.01-.04.03-.07.05-.1.02-.03.05-.06.08-.09.03-.03.06-.05.1-.08l.56-.39.13.19-.58.4s-.05.04-.07.06c-.02.02-.04.05-.05.08-.01.03-.01.07,0,.1,0,.04.03.08.06.13.03.05.06.08.1.1.03.02.07.03.1.03.03,0,.06,0,.09-.02.03-.01.06-.03.08-.05l.07-.05-.19-.27Z"/>
      <path class="cls-1" d="m5.79,20.48s.07-.05.1-.07c.03-.02.07-.03.1-.03.03,0,.07,0,.1,0,.03,0,.07.01.1.03.03.01.06.03.09.05.03.02.06.04.08.07.04.04.07.09.09.14.02.05.03.1.03.15,0,.05-.01.1-.04.15-.02.05-.06.1-.11.14l-.57.51-.15-.17.55-.49c.06-.05.1-.11.1-.15,0-.05,0-.1-.05-.14-.04-.04-.08-.06-.12-.06-.05,0-.1.02-.15.06l-.16-.18Z"/>
      <path class="cls-1" d="m6.18,22.02l-.17-.15.44-.5s.06-.06.09-.09c.03-.03.07-.05.1-.07.04-.02.07-.03.11-.04.04,0,.08,0,.13,0,.04,0,.09.02.14.05.05.02.1.06.15.1.05.04.09.09.12.13.03.04.05.09.06.13.01.04.02.08.01.12,0,.04-.01.08-.02.12-.01.04-.03.08-.05.11-.02.04-.05.07-.08.1l-.44.5-.17-.15.45-.52s.03-.03.04-.05c.01-.02.02-.04.03-.06,0-.02.01-.04.01-.07,0-.02,0-.05,0-.07,0-.02-.02-.05-.03-.07-.02-.02-.04-.05-.06-.07-.03-.02-.05-.04-.08-.05-.03-.01-.05-.02-.07-.02-.02,0-.05,0-.07,0-.02,0-.04.01-.06.02-.02,0-.04.02-.06.04-.02.01-.03.03-.05.04l-.1.11s.07-.01.1-.01c.03,0,.06,0,.09.01.03,0,.06.02.09.04.03.02.06.04.09.07l-.13.15c-.05-.04-.1-.07-.14-.09-.05-.02-.09-.02-.13-.01-.04,0-.08.02-.12.05-.04.03-.08.06-.12.11l-.07.09Z"/>
      <path class="cls-1" d="m7.91,22.63c.04-.06.07-.11.09-.16.02-.05.03-.09.03-.13,0-.04,0-.07-.02-.1-.02-.03-.04-.06-.07-.08-.02-.02-.05-.03-.07-.03-.03,0-.05,0-.08,0-.03,0-.05.02-.08.04-.03.02-.05.05-.08.08l-.19-.13c.04-.05.08-.09.13-.13.05-.03.1-.05.15-.06.05-.01.11-.01.16,0,.06.01.11.04.17.07.07.05.12.1.16.15.03.06.05.12.06.18,0,.07,0,.13-.03.21-.02.07-.06.15-.11.22-.05.08-.1.14-.16.19-.06.05-.12.09-.18.11-.06.02-.13.03-.19.02-.07,0-.13-.04-.2-.08-.05-.04-.1-.08-.13-.12-.03-.05-.06-.1-.07-.15-.01-.05-.01-.11,0-.16.01-.06.03-.11.07-.17l.19.13s-.03.07-.04.1c0,.03,0,.06,0,.09,0,.03.01.05.03.07.02.02.04.04.06.06.03.02.06.03.1.04.03,0,.07,0,.11-.02.04-.02.07-.04.11-.08.04-.04.08-.08.11-.14Z"/>
      <path class="cls-1" d="m8.34,22.67s.04-.07.07-.1c.03-.03.05-.05.08-.07.03-.02.06-.03.1-.04.03,0,.07-.01.1-.01.03,0,.07,0,.1.01.03,0,.07.02.1.04.05.03.1.06.14.09.04.04.07.08.09.12.02.05.03.1.02.15,0,.05-.02.11-.05.17l-.33.69-.21-.1.32-.66c.04-.07.05-.13.04-.18-.01-.05-.05-.09-.1-.11-.05-.02-.09-.03-.14-.01-.04.02-.08.05-.11.11l-.22-.1Z"/>
      <path class="cls-1" d="m9.11,23.87l.34-1.1.22.07-.19.6s-.02.09-.02.13c0,.04,0,.08.03.12.02.04.04.07.07.1.03.03.08.05.13.07.03,0,.06.01.09.01.03,0,.05,0,.08-.02.02-.01.04-.03.06-.05.02-.02.03-.05.04-.08l.22-.72.22.07-.22.7c-.02.06-.04.12-.07.17-.03.05-.06.09-.11.11-.04.03-.09.04-.15.05-.06,0-.12,0-.2-.03-.08-.02-.14-.06-.18-.1-.05-.04-.08-.1-.1-.16l-.04.13-.21-.07Z"/>
      <path class="cls-1" d="m10.96,24.13c.05,0,.1,0,.13,0,.04-.01.07-.03.09-.06.02-.02.04-.05.05-.08.01-.03.02-.06.03-.1l.15-1.18.23.03-.15,1.16s-.01.08-.03.12c-.01.04-.03.08-.05.11-.02.04-.04.07-.07.1-.03.03-.06.05-.1.07-.04.02-.08.03-.14.04-.05,0-.11,0-.18,0-.07,0-.12-.02-.17-.04-.05-.02-.09-.04-.12-.07-.03-.03-.06-.06-.08-.09-.02-.03-.04-.07-.05-.11,0-.04-.02-.08-.02-.12,0-.04,0-.08,0-.13l.08-.66.23.03-.09.68s0,.07,0,.1c0,.03.01.07.03.1.02.03.04.05.07.08.03.02.07.03.12.04Z"/>
      <path class="cls-1" d="m12.54,23.8s-.03.01-.05.02c-.02,0-.03.01-.05.01-.02,0-.04,0-.06.01-.02,0-.04,0-.06,0-.03,0-.05,0-.08.01-.03,0-.05.01-.08.02-.02,0-.05.02-.07.03-.02.01-.04.02-.05.04-.01.01-.03.03-.03.05,0,.02-.01.04,0,.07,0,.03,0,.05.02.07.01.02.03.03.05.04.02.01.04.02.07.02.03,0,.05,0,.08,0,.02,0,.04,0,.07,0,.02,0,.05-.01.07-.02v.18s-.05.02-.08.02c-.03,0-.06.01-.09.01-.05,0-.1,0-.15-.01-.05,0-.09-.03-.13-.05-.04-.02-.07-.06-.09-.1-.02-.04-.04-.09-.04-.15,0-.04,0-.08,0-.12,0-.03.02-.07.04-.09.02-.03.04-.05.07-.07.03-.02.06-.04.1-.05.04-.01.08-.03.12-.04.05-.01.09-.02.14-.03.03,0,.06-.01.1-.02.03,0,.06-.01.08-.02.02,0,.04-.02.06-.04.01-.01.02-.03.02-.06,0-.04,0-.07-.02-.09-.01-.02-.03-.04-.06-.05-.02-.01-.05-.02-.08-.02-.03,0-.06,0-.08,0-.04,0-.07,0-.1.02-.03,0-.06.02-.08.04-.02.02-.04.04-.05.07-.01.03-.02.06-.02.1h-.23s0-.09.02-.13c.01-.04.03-.08.05-.11.02-.03.05-.06.08-.08.03-.02.06-.04.1-.06.04-.01.08-.03.12-.03.04,0,.08-.01.13-.02.04,0,.07,0,.11,0,.04,0,.07,0,.1.02.03,0,.07.02.09.04.03.02.06.04.08.06.02.02.04.05.05.09.01.03.02.07.02.12l.04.83h-.23s-.03-.55-.03-.55Z"/>
      <path class="cls-1" d="m12.98,23.55c0-.06,0-.12.02-.17.02-.05.04-.1.07-.15s.08-.08.13-.11c.05-.03.12-.05.19-.07.06-.01.12-.02.17-.02.05,0,.1.01.14.03.04.02.08.04.12.07.03.03.07.06.09.1.03.04.05.08.07.13.02.05.03.1.05.16.01.05.02.1.02.15,0,.05,0,.1,0,.15,0,.05-.02.09-.04.13-.02.04-.04.08-.08.11-.03.03-.07.06-.12.09-.05.02-.1.04-.16.06-.06.01-.12.02-.17.02-.05,0-.1-.01-.14-.03-.04-.02-.08-.04-.12-.07-.03-.03-.07-.06-.09-.1-.03-.04-.05-.08-.07-.13-.02-.05-.03-.1-.04-.15,0,0,0-.01,0-.02,0,0,0-.02,0-.03v-.03s.5-.11.5-.11l.04.18-.27.06s.03.08.05.12c.02.03.05.06.08.08.03.02.06.03.1.04.04,0,.07,0,.11,0,.04,0,.08-.03.11-.05.03-.02.05-.06.07-.1.02-.04.03-.08.03-.14,0-.05,0-.11-.02-.17-.03-.13-.07-.22-.13-.28-.06-.06-.14-.08-.23-.06-.04,0-.07.02-.1.03-.03.02-.05.03-.07.06-.02.02-.03.05-.04.08,0,.03-.01.06-.01.09l-.24.05Z"/>
      <path class="cls-1" d="m14.68,23.34l-.08.03-.07-.16.32-.13.06.15-.23.67-.2.08-.26-.64s-.03-.08-.04-.12c0-.04-.01-.08-.01-.12,0-.04,0-.08.02-.12.01-.04.03-.07.06-.11.03-.03.06-.07.1-.1.04-.03.1-.06.16-.08.06-.02.12-.04.17-.05.05,0,.1,0,.14,0,.04,0,.08.02.12.04.03.02.07.04.09.07.03.03.05.06.07.09.02.03.04.07.06.11l.26.64-.22.09-.27-.65s-.03-.06-.05-.08c-.02-.03-.04-.05-.07-.06-.03-.02-.06-.03-.1-.03-.04,0-.08,0-.14.03-.04.01-.06.03-.09.05-.02.02-.04.04-.06.06-.01.02-.03.04-.03.06,0,.02,0,.04,0,.06,0,.02,0,.04,0,.06,0,.02.01.04.02.06l.15.38.1-.28Z"/>
      <path class="cls-1" d="m16.09,22.39s-.04-.05-.06-.07c-.02-.02-.05-.04-.09-.05-.03,0-.07-.01-.11,0-.04,0-.08.02-.13.05-.04.02-.07.05-.1.08-.02.03-.04.05-.05.08-.01.03-.02.05-.02.07,0,.02,0,.04,0,.06.02,0,.03,0,.05.02.02,0,.03.02.05.03.01.01.03.02.04.04.01.01.03.03.04.05l.33.53-.29.18-.1-.16.1-.06-.23-.37s-.02-.03-.03-.04c-.01-.01-.02-.02-.04-.03-.01,0-.03-.02-.05-.02-.02,0-.04,0-.06,0-.01-.03-.02-.06-.02-.09,0-.03,0-.07,0-.1,0-.03.01-.07.02-.11.01-.04.03-.07.05-.11.02-.03.05-.07.09-.1.03-.03.08-.06.12-.09.06-.04.11-.06.16-.08.05-.02.1-.03.14-.03.05,0,.09,0,.13.01s.07.03.11.05c.03.02.06.05.09.08.03.03.05.06.07.1l.36.59-.2.12-.37-.6Z"/>
      <path class="cls-1" d="m15.45,22.1l-.16-.22.17-.13.06.08.44-.32.1.14-.61.45Z"/>
      <path class="cls-1" d="m16.39,22s-.04-.06-.05-.09c-.01-.03-.02-.06-.02-.08,0-.03,0-.05.01-.08,0-.03.02-.05.03-.07.01-.02.03-.04.05-.06.02-.02.03-.04.05-.05l.13-.11.12.15-.1.08s-.02.02-.03.03c-.01.01-.02.02-.03.04,0,.01,0,.03,0,.05,0,.02,0,.03.02.05.02.02.03.03.05.04.02,0,.03.01.05,0,.02,0,.03,0,.05-.02.02,0,.03-.02.05-.03l.09-.07.12.15-.09.07s-.03.03-.04.05c-.01.02-.02.03-.02.05,0,.02,0,.04,0,.06,0,.02.02.04.04.07.02.03.05.04.07.06.03.01.05.01.08.01.03,0,.06-.01.09-.02.03-.01.06-.03.08-.05.03-.02.05-.05.07-.08.02-.03.03-.06.03-.09,0-.03,0-.06-.01-.1-.01-.03-.04-.07-.07-.11l-.45-.54.18-.15.48.57c.05.05.08.11.09.17.02.06.02.11,0,.17-.01.06-.03.11-.07.16-.03.05-.08.1-.13.14-.03.03-.07.05-.1.07-.04.02-.07.04-.11.05-.04.01-.07.02-.11.03-.04,0-.07,0-.11,0-.04,0-.07-.02-.1-.04-.03-.02-.06-.05-.09-.08-.02-.02-.04-.04-.05-.07-.01-.02-.02-.05-.03-.07,0-.02,0-.05,0-.07,0-.02,0-.05.02-.08-.03,0-.06,0-.08,0-.03,0-.05-.01-.07-.02-.02-.01-.04-.02-.06-.04-.02-.01-.03-.03-.05-.05Z"/>
      <path class="cls-1" d="m18.3,20.21s.05.04.07.08c.02.03.05.07.08.11.03.04.05.08.08.12.03.04.05.09.07.13.02.04.05.09.07.13.02.04.04.08.06.12l-.18.22-.51-.18-.1.12-.14-.12.21-.26.45.17s-.04-.08-.07-.12c-.02-.04-.05-.09-.07-.13-.03-.04-.05-.08-.08-.11-.03-.03-.05-.06-.08-.09-.06-.05-.11-.07-.17-.06-.05,0-.1.04-.15.1-.04.05-.06.09-.06.14,0,.05.02.09.06.15l-.16.19s-.07-.09-.08-.14c-.02-.05-.03-.1-.03-.15,0-.05.01-.11.04-.16.02-.05.06-.11.1-.17.02-.03.05-.05.07-.08.03-.02.06-.05.09-.06.03-.02.06-.03.1-.04.03-.01.07-.01.11-.01.04,0,.07.01.11.03.04.02.08.04.12.08Z"/>
      <path class="cls-1" d="m17.26,20.37l.31-.42-.13-.09.13-.18.28.2-.49.67-.09-.18Z"/>
      <path class="cls-1" d="m19.07,20.44l-.94-.65.13-.19.94.65-.13.19Z"/>
      <path class="cls-1" d="m19.19,19.53s.06.03.09.03c.03,0,.06,0,.08,0,.03,0,.05-.02.07-.03.02-.02.04-.04.05-.06.01-.02.02-.05.03-.07,0-.02,0-.05,0-.07,0-.02-.02-.05-.03-.07-.02-.02-.04-.04-.08-.06l-.06-.04s-.07-.03-.09-.04c-.03,0-.05,0-.07,0-.02,0-.04.02-.06.04-.02.02-.03.04-.05.07l-.15-.08s.03-.07.03-.11c0-.03,0-.06-.02-.09-.02-.03-.04-.06-.07-.09-.03-.03-.07-.05-.11-.08l.11-.2s.07.04.1.07c.03.03.06.05.09.09.02.03.04.07.06.1.01.04.02.08.01.12.03-.03.06-.05.09-.06.03,0,.06-.01.09,0,.03,0,.06.01.08.02.03.01.05.02.07.03l.08.05s.07.05.1.07c.03.03.05.06.06.09.02.03.03.06.03.1,0,.03,0,.07,0,.1,0,.03-.01.07-.02.1-.01.03-.03.07-.04.1-.02.03-.04.06-.06.09-.02.03-.05.05-.08.07-.03.02-.06.04-.09.05-.03.01-.07.02-.1.02-.03,0-.07,0-.11,0-.04,0-.07-.02-.11-.04-.04-.02-.07-.04-.11-.06-.03-.02-.06-.04-.08-.06-.02-.02-.04-.05-.06-.08-.02-.03-.03-.06-.04-.11,0,0,0-.02,0-.03,0-.01,0-.02-.01-.04,0-.01-.01-.03-.02-.04,0-.01-.01-.02-.02-.03,0,.02,0,.04,0,.06,0,.02-.01.04-.02.06,0,.01-.02.02-.03.04-.01.01-.03.03-.04.04-.02.01-.04.02-.06.03-.02,0-.05.02-.07.02-.03,0-.06,0-.09,0-.03,0-.07-.02-.1-.04l.11-.19s.03.01.04.02c.01,0,.03,0,.04,0,.01,0,.02,0,.03,0,.01,0,.02-.01.02-.02,0-.01,0-.02.01-.03,0-.01,0-.02,0-.03,0-.01-.01-.02-.02-.03,0-.01-.02-.02-.04-.03l.11-.19.21.12s.04.02.05.04c.01.01.02.03.03.05.01.02.02.04.03.06,0,.02.02.05.03.09,0,.02.02.05.03.07.01.02.03.04.05.05.02.02.04.03.06.04.02.01.04.02.06.04Z"/>
      <path class="cls-1" d="m19.25,17.71l.82.15-1.12-.73.1-.23,1.38.98-.1.23-.82-.14.69.47-.1.24-1.17-.17.1-.23.82.16-.69-.48.1-.24Z"/>
      <path class="cls-1" d="m20.22,15.78s.06.02.1.04c.04.02.07.04.11.06s.08.05.12.08.08.06.13.09c.04.03.08.06.12.09.04.03.07.06.11.08l-.07.28-.54.06-.03.15-.18-.04.08-.32.47-.05s-.07-.05-.11-.08c-.04-.03-.08-.06-.12-.08-.04-.03-.08-.05-.12-.07-.04-.02-.07-.03-.11-.04-.07-.02-.13-.01-.18.02-.05.03-.08.08-.09.16-.01.06-.01.11,0,.15.02.04.06.08.12.11l-.06.25c-.05-.02-.1-.05-.14-.09-.04-.04-.07-.08-.09-.13-.02-.05-.03-.1-.04-.16,0-.06,0-.12.02-.19,0-.03.02-.07.03-.1.01-.03.03-.07.05-.1.02-.03.04-.06.07-.08.03-.02.06-.04.09-.06.03-.01.07-.02.11-.03.04,0,.09,0,.14.02Z"/>
      <path class="cls-1" d="m19.43,16.02s-.06-.01-.08-.03c-.02-.01-.05-.03-.06-.05-.02-.02-.03-.05-.04-.07,0-.03,0-.06,0-.09,0-.03.01-.06.03-.08.02-.02.03-.05.06-.06.02-.02.05-.03.08-.04.03,0,.06-.01.09,0,.03,0,.06.01.08.03.02.02.05.03.06.06.02.02.03.05.04.08,0,.03,0,.06,0,.09,0,.03-.01.06-.03.08-.01.02-.03.04-.06.06-.02.02-.05.03-.08.04-.03,0-.06,0-.09,0Zm.02-.14s.02,0,.03,0c.01,0,.02,0,.03-.01,0,0,.01-.01.02-.02,0,0,0-.02.01-.03,0-.01,0-.02,0-.03,0-.01,0-.02-.01-.03,0,0-.01-.01-.02-.02,0,0-.02,0-.03-.01-.01,0-.02,0-.03,0-.01,0-.02,0-.03.01,0,0-.01.01-.02.02,0,0,0,.02-.01.03,0,.01,0,.02,0,.03,0,0,0,.02.01.03,0,0,.01.01.02.02,0,0,.02,0,.03,0Zm.79-.25s-.08-.02-.12-.03c-.03-.02-.07-.04-.09-.06-.03-.02-.05-.05-.07-.08-.02-.03-.03-.06-.04-.09-.01-.03-.02-.07-.02-.1,0-.04,0-.07,0-.11,0-.06.02-.11.05-.16.02-.05.05-.09.09-.12.04-.03.08-.06.14-.07.05-.01.11-.02.18,0l.76.1-.03.23-.72-.1c-.08-.01-.14,0-.19.02-.04.03-.07.07-.08.13,0,.05,0,.1.03.13.03.04.08.06.14.08l-.03.24Z"/>
      <path class="cls-1" d="m20.2,14.09s0,.09.01.12c0,.04.02.07.04.09.02.03.03.04.05.06.02.01.03.02.05.03.01-.01.02-.02.04-.03.01,0,.03-.02.05-.02.02,0,.04-.01.06-.01.02,0,.04,0,.06,0l.62.02v.23s-.63-.03-.63-.03c-.02,0-.03,0-.05,0-.02,0-.03,0-.05.01-.02,0-.03.02-.04.03-.01.01-.03.03-.04.05-.03,0-.06-.02-.09-.03-.03-.01-.06-.03-.09-.06-.03-.02-.05-.05-.07-.08-.02-.03-.04-.06-.06-.1-.02-.04-.03-.08-.04-.13,0-.05-.01-.1,0-.16,0-.07.01-.13.03-.18.01-.05.03-.1.06-.14.02-.04.05-.07.08-.1.03-.03.07-.05.1-.06.04-.02.07-.03.11-.03.04,0,.08,0,.12,0l.69.03v.23s-.72-.03-.72-.03c-.03,0-.06,0-.1.01s-.06.02-.09.05c-.03.02-.05.05-.07.09-.02.04-.03.08-.03.14Z"/>
      <path class="cls-1" d="m19.87,14.18h-.27s0-.21,0-.21h.1v-.55s.17,0,.17,0v.76Z"/>
      <path class="cls-1" d="m20.65,12.9v.09s-.17.01-.17.01l-.02-.35h.16s.56.42.56.42v.22s-.67.04-.67.04c-.04,0-.08,0-.12,0-.04,0-.08-.01-.12-.03-.04-.01-.07-.03-.1-.05-.03-.02-.06-.05-.08-.09-.02-.04-.04-.08-.06-.13-.02-.05-.03-.11-.03-.18,0-.07,0-.13,0-.18,0-.05.02-.1.04-.14.02-.04.04-.07.07-.1.03-.03.06-.05.1-.07.04-.02.07-.03.11-.04.04,0,.08-.01.12-.02l.68-.04v.23s-.69.04-.69.04c-.03,0-.06,0-.09.02-.03,0-.06.03-.08.05-.02.02-.04.05-.06.09-.01.04-.02.08-.02.14,0,.04,0,.07.02.1,0,.03.02.05.03.07.01.02.03.04.05.05.02.01.04.02.06.03.02,0,.04.01.06.01.02,0,.04,0,.06,0l.41-.02-.23-.18Z"/>
    </g>
    <g>
      <path class="cls-1" d="m4.55,8.59s.01.1.01.14c0,.05,0,.1-.02.14-.01.05-.02.09-.04.13-.02.04-.04.08-.06.12-.05.08-.1.14-.16.19-.06.05-.12.1-.19.13-.07.03-.14.06-.21.07-.07.01-.14.02-.22.01-.07,0-.14-.02-.21-.04-.07-.02-.14-.06-.2-.1-.07-.04-.13-.09-.19-.15-.06-.06-.11-.12-.15-.18-.04-.06-.07-.13-.1-.2-.02-.07-.04-.14-.04-.22,0-.08,0-.15.03-.23.02-.08.06-.16.11-.24.05-.08.11-.15.17-.21.06-.06.14-.11.21-.14.08-.03.16-.05.25-.04.09,0,.18.03.29.08l-.16.26c-.06-.02-.12-.04-.17-.04-.05,0-.1,0-.15.03-.05.02-.09.05-.12.08-.04.04-.07.08-.1.13-.03.05-.06.11-.07.16-.01.05-.02.11-.01.16,0,.05.02.1.04.15.02.05.05.09.08.13.03.04.07.08.11.12.04.04.09.07.13.1.05.03.09.05.14.07.05.02.1.03.15.04.05,0,.1,0,.15,0,.05,0,.1-.02.14-.04.05-.02.09-.05.13-.08.04-.03.08-.08.11-.13.04-.06.07-.13.08-.19.01-.06.01-.13,0-.19-.01-.06-.04-.11-.07-.16-.03-.05-.08-.09-.13-.13l-.29.46-.22-.14.44-.7.8.5-.12.18-.16-.04Z"/>
      <path class="cls-1" d="m5.02,6.23s-.08-.02-.12-.01c-.04,0-.08.02-.12.04-.04.02-.08.05-.11.09-.03.03-.06.06-.08.1-.02.04-.04.07-.05.11,0,.04,0,.07,0,.11,0,.04.03.07.06.1.03.03.06.04.09.04.03,0,.07,0,.11-.02.04-.01.08-.04.13-.06.04-.03.09-.06.14-.09.04-.03.09-.06.14-.09.05-.03.09-.06.14-.08.05-.02.09-.04.14-.06.05-.01.1-.02.14-.02.05,0,.1.01.14.03.05.02.1.05.14.1.05.04.08.09.1.14.02.05.04.1.04.15,0,.05,0,.1-.01.15-.01.05-.03.1-.05.15-.02.05-.05.1-.09.14-.03.05-.07.09-.11.13-.05.05-.1.09-.15.13-.05.04-.1.07-.16.09-.05.02-.11.04-.16.05-.06,0-.11,0-.17,0-.06-.01-.11-.03-.17-.06-.06-.03-.11-.07-.17-.13l.2-.21c.05.05.1.08.15.1.05.02.1.02.15.01.05,0,.1-.03.15-.06.05-.03.09-.07.14-.11.03-.03.06-.07.09-.11.03-.04.05-.08.06-.12.01-.04.01-.08,0-.12,0-.04-.03-.08-.07-.12-.02-.02-.05-.03-.07-.04-.02,0-.05-.01-.08,0-.03,0-.05,0-.08.02-.03.01-.06.03-.09.04-.03.02-.06.04-.09.06-.03.02-.06.04-.1.07-.04.03-.09.06-.13.09-.04.03-.09.05-.13.08-.04.02-.09.04-.13.05-.04.01-.09.02-.13.02-.04,0-.09-.01-.13-.03-.04-.02-.09-.05-.13-.09-.04-.04-.08-.09-.1-.13-.02-.05-.04-.09-.04-.14,0-.05,0-.1,0-.15,0-.05.02-.1.04-.15.02-.05.05-.09.08-.14.03-.05.07-.09.11-.13.06-.07.13-.12.2-.16.07-.04.14-.07.21-.07.07,0,.15,0,.22.03.08.03.15.08.23.14l-.2.21s-.09-.06-.14-.08Z"/>
      <path class="cls-1" d="m6.01,4.88l1.58.99-.28.21-.43-.29-.53.39s.02.09.04.13c.01.04.03.08.04.12.01.04.03.08.04.12.01.04.03.08.04.12l-.26.19-.5-1.79.27-.2Zm.63.75l-.56-.37.2.64.36-.27Z"/>
      <path class="cls-1" d="m7.93,3.76l.12.23-.79.41.21.4.69-.36.12.23-.69.36.35.67-.27.14-.8-1.54,1.06-.55Z"/>
      <path class="cls-1" d="m9.5,3.22l.08.25-.9.3.14.43.84-.27.08.25-.84.27.15.47.9-.3.08.25-1.19.39-.54-1.65,1.19-.39Z"/>
      <path class="cls-1" d="m11.58,3.32s-.05-.07-.08-.09c-.03-.02-.07-.04-.12-.05-.04,0-.09,0-.15,0-.04,0-.08.01-.12.02-.04.01-.08.03-.11.05-.03.02-.05.05-.07.08-.02.03-.02.07-.02.12,0,.04.02.07.04.09.02.02.06.04.1.06.04.02.08.03.14.04.05,0,.1.02.16.02.05,0,.11.01.16.02.05,0,.11.02.16.03.05.01.1.03.14.05.05.02.09.05.12.08.03.03.06.07.08.12.02.05.04.1.04.17,0,.06,0,.12-.02.17-.02.05-.04.1-.07.14-.03.04-.07.08-.11.11-.04.03-.09.06-.14.08-.05.02-.1.04-.16.05-.06.01-.11.02-.17.02-.07,0-.13,0-.2,0-.06,0-.12-.02-.18-.04-.06-.02-.11-.04-.15-.07-.05-.03-.09-.07-.12-.11-.03-.05-.06-.1-.08-.16-.02-.06-.04-.13-.04-.21l.29-.02c0,.07.02.13.05.18.03.05.06.08.1.11.04.03.09.05.15.06.06,0,.11.01.17,0,.05,0,.1-.01.14-.02.05-.01.09-.03.12-.05.04-.02.06-.05.09-.09.02-.04.03-.08.03-.13,0-.03-.01-.06-.02-.08-.01-.02-.03-.04-.05-.06-.02-.02-.05-.03-.08-.04-.03-.01-.06-.02-.1-.03-.03,0-.07-.01-.11-.02-.04,0-.08-.01-.12-.02-.05,0-.1-.01-.16-.02-.05,0-.1-.02-.15-.03-.05-.01-.09-.03-.14-.05-.04-.02-.08-.05-.11-.08-.03-.03-.06-.07-.08-.11-.02-.04-.03-.09-.04-.15,0-.06,0-.11.01-.16.01-.05.03-.1.06-.14.03-.04.06-.08.1-.11.04-.03.08-.06.13-.08.05-.02.1-.04.15-.05.05-.01.11-.02.16-.03.09,0,.18,0,.26.01.08.02.15.05.21.09.06.04.11.1.15.17.04.07.06.16.08.26l-.29.02c-.01-.06-.03-.11-.05-.15Z"/>
      <path class="cls-1" d="m13.66,3.06l-.03.26-.94-.1-.04.45.87.09-.03.26-.88-.09-.05.49.95.1-.03.26-1.25-.13.18-1.72,1.25.13Z"/>
      <path class="cls-1" d="m15.08,3.87s-.03-.09-.06-.13c-.03-.04-.06-.07-.1-.09-.04-.03-.09-.05-.14-.06-.06-.02-.12-.03-.17-.03-.05,0-.1,0-.15.03-.05.02-.09.04-.13.07-.04.03-.08.06-.11.1-.03.04-.06.08-.08.13-.02.05-.04.1-.06.15-.03.09-.04.17-.04.25,0,.08,0,.16.03.23.02.07.06.13.12.18.05.05.13.09.22.12.07.02.13.03.19.02.06,0,.11-.02.16-.05.05-.03.09-.07.13-.11.04-.05.07-.1.09-.17l.29.09c-.04.11-.1.2-.16.27-.06.07-.13.13-.21.17-.08.04-.17.06-.26.07-.1,0-.2-.01-.31-.04-.09-.03-.17-.06-.23-.1-.07-.04-.12-.09-.17-.14-.05-.05-.09-.11-.11-.18-.03-.06-.05-.13-.06-.2,0-.07-.01-.15,0-.22,0-.08.02-.16.05-.24.02-.08.06-.16.09-.23.04-.07.08-.13.13-.19.05-.06.11-.1.17-.14.06-.04.13-.07.2-.09.07-.02.15-.03.23-.03.08,0,.16.02.25.04.09.03.17.07.25.11.07.05.13.1.18.17.05.07.08.14.1.22.02.08.02.18,0,.28l-.3-.09c0-.06,0-.11,0-.16Z"/>
      <path class="cls-1" d="m16.77,5.44c-.05.1-.11.18-.18.24-.07.06-.14.1-.22.12-.08.02-.17.02-.26,0-.09-.02-.19-.05-.29-.11-.1-.06-.19-.12-.26-.18-.07-.07-.12-.14-.15-.22-.03-.08-.04-.16-.03-.25.01-.09.04-.19.1-.29l.52-.97.27.14-.52.97c-.07.12-.08.23-.05.32.03.09.11.18.24.24.12.06.22.08.32.05.09-.03.17-.1.24-.22l.52-.97.27.14-.52.97Z"/>
      <path class="cls-1" d="m18.4,5.29c.07.06.13.11.17.17.04.06.07.12.08.18.01.06.01.12,0,.18-.02.06-.05.12-.1.18-.03.04-.06.07-.09.09-.03.03-.07.05-.1.07-.04.02-.07.03-.11.04-.04,0-.08,0-.12,0,.01.04.02.09.02.13,0,.04-.01.08-.03.12-.02.04-.03.08-.06.12-.02.04-.05.07-.07.11-.02.03-.03.05-.05.08-.02.03-.03.05-.05.08-.01.03-.02.06-.03.1,0,.04,0,.08,0,.12l-.27-.22s0-.04,0-.06c0-.02.01-.04.02-.06,0-.02.02-.04.04-.06.01-.02.03-.04.05-.07.02-.02.03-.05.05-.08.02-.03.04-.05.05-.08.01-.03.03-.06.04-.09,0-.03.01-.06.01-.09,0-.03,0-.06-.02-.09-.01-.03-.03-.06-.07-.08l-.4-.32-.44.56-.24-.19,1.08-1.36.65.52Zm-.56.54s.07.05.11.07c.04.02.08.03.12.04.04,0,.08,0,.11-.01.04-.01.07-.04.1-.08.02-.03.04-.06.05-.09.01-.03.01-.06,0-.09,0-.03-.02-.06-.04-.09-.02-.03-.05-.06-.08-.09l-.4-.32-.31.4.33.27Z"/>
      <path class="cls-1" d="m19.36,6.18l-1.23,1.23-.22-.22,1.23-1.23.22.22Z"/>
      <path class="cls-1" d="m19.4,6.57l.2-.17.87,1.06-.2.17-.34-.42-1.14.93-.19-.24,1.13-.93-.33-.41Z"/>
      <path class="cls-1" d="m19.62,9.35l-.16-.26.59-.37.53-1.11.19.31-.39.78h.87s.19.3.19.3l-1.23-.03-.59.37Z"/>
    </g>
    <path class="cls-1" d="m11.94,9.54l-3.68,1.05v2.67c0,.44.04.88.13,1.31h0s.01.06.02.09c0,.02,0,.03.01.05.36,1.7,1.32,3.2,2.71,4.23,0,0,.02.01.03.02.06.04.11.08.17.12.08.06.16.11.24.16.02.01.05.03.07.04.1.06.2.12.3.18,0,0,0,0,0,0,0,0,0,0,0,0,.05-.03.1-.06.15-.09.07-.04.14-.08.2-.12.02,0,.03-.02.05-.03,1.65-1.05,2.79-2.73,3.15-4.65h0c.03-.15.05-.3.07-.45h-3.23v-1.38h3.28v-2.15h0s-3.68-1.05-3.68-1.05h0s0,0,0,0Z"/>
    <path class="cls-1" d="m11.94,6.91h0l-6.31,1.8v4.67c0,3.92,2.47,7.45,6.15,8.8l.16.06h0l.16-.06c3.68-1.35,6.15-4.88,6.15-8.8v-4.67l-6.31-1.8Zm4.96,4.91h0v1.09h0v.46c0,.17,0,.35-.02.52,0,.03,0,.06,0,.09,0,.08-.01.15-.02.23,0,.01,0,.03,0,.04-.3,2.74-2.03,5.19-4.56,6.38l-.35.17-.35-.17c-2.53-1.19-4.25-3.64-4.56-6.38,0-.01,0-.03,0-.04,0-.08-.01-.15-.02-.23,0-.03,0-.06,0-.09-.01-.17-.02-.35-.02-.52v-.46h0v-1.09h0v-2.1l4.96-1.41,4.96,1.41v2.1Z"/>
  </g>
  <g>
    <path class="cls-1" d="m34.15,15.4c-.14.17-.28.32-.44.43-.16.11-.32.2-.49.27-.17.07-.35.11-.52.14-.18.03-.35.04-.53.04-.37,0-.71-.04-1.03-.13-.32-.09-.61-.21-.87-.37-.26-.16-.49-.35-.7-.57-.2-.22-.37-.47-.51-.75-.14-.28-.24-.57-.31-.89-.07-.32-.11-.65-.11-.99s.04-.69.11-1.02.18-.63.31-.91.31-.53.51-.76c.2-.23.43-.43.7-.59.26-.16.55-.29.87-.38s.66-.13,1.03-.13c.24,0,.48.03.72.08.24.05.46.12.68.22.22.1.42.22.6.36s.35.31.49.5c.14.19.26.4.35.63.09.23.15.48.18.75h-1.51c-.04-.2-.11-.37-.2-.52s-.21-.28-.34-.38c-.13-.1-.28-.18-.44-.23-.17-.05-.34-.08-.53-.08-.23,0-.45.03-.63.1s-.35.15-.5.26c-.14.11-.27.25-.37.4-.1.16-.19.32-.25.51-.07.18-.11.38-.15.58-.03.2-.05.41-.05.62,0,.2.02.4.05.59.03.19.08.38.15.55s.15.34.25.49.23.28.37.39c.15.11.31.19.5.26.19.06.4.09.63.09s.46-.03.66-.1.37-.16.52-.29c.15-.13.27-.28.36-.47.09-.19.15-.41.17-.66h-1.59v-1.26h3.01v3.97h-1l-.15-.74Z"/>
    <path class="cls-1" d="m40.28,13.71c0,.24.04.44.13.61.09.17.2.31.35.41.15.11.31.19.51.24s.39.08.6.08c.09,0,.19,0,.3-.02s.21-.03.32-.05c.1-.03.2-.06.3-.1.1-.04.18-.1.25-.17.07-.07.13-.15.18-.24.04-.09.07-.2.07-.32s-.03-.24-.09-.33c-.06-.09-.14-.17-.23-.24-.1-.07-.22-.13-.35-.18-.14-.05-.28-.1-.44-.14-.16-.04-.32-.08-.5-.12s-.35-.08-.52-.13c-.18-.05-.36-.1-.53-.16s-.34-.13-.5-.2-.31-.17-.44-.27-.25-.22-.35-.35-.18-.29-.23-.46c-.06-.17-.08-.37-.08-.6,0-.24.04-.47.11-.67.07-.2.17-.39.3-.55.13-.16.28-.3.45-.42.17-.12.36-.22.55-.3.2-.08.41-.14.62-.18.22-.04.43-.06.65-.06.25,0,.49.02.73.06.24.04.47.1.68.18.21.08.41.19.59.31.18.13.33.28.46.45.13.17.23.37.31.6.07.22.11.47.11.75h-1.53c-.01-.22-.06-.39-.13-.54-.08-.14-.18-.26-.3-.34-.13-.08-.27-.14-.44-.18s-.34-.05-.53-.05c-.13,0-.26.01-.39.04-.13.03-.25.07-.35.14-.11.06-.19.15-.26.25-.07.1-.1.23-.1.38,0,.09.01.17.03.24.02.07.06.13.12.18.06.05.14.1.24.15.1.05.23.09.39.14s.35.1.57.16c.22.06.48.13.78.2.09.02.2.05.34.09.14.04.29.09.45.15.16.06.32.15.48.25s.31.22.44.37c.13.15.23.32.32.52s.12.44.12.71c0,.33-.06.64-.19.92s-.32.53-.57.73c-.25.21-.57.37-.94.48-.37.12-.8.17-1.29.17-.27,0-.53-.02-.78-.07-.25-.05-.5-.12-.72-.21s-.44-.21-.63-.36-.36-.31-.49-.5c-.14-.19-.24-.41-.32-.65-.08-.24-.11-.51-.11-.81h1.53Z"/>
    <path class="cls-1" d="m47.85,8.96h1.68l2.67,7.17h-1.66l-.54-1.6h-2.69l-.56,1.6h-1.63l2.73-7.17Zm-.13,4.4h1.87l-.91-2.63h-.01l-.94,2.63Z"/>
    <path class="cls-1" d="m57.93,8.96v1.3h-3.53v1.56h3.07v1.28h-3.07v3.04h-1.54v-7.17h5.07Z"/>
    <path class="cls-1" d="m64.03,8.96v1.3h-3.77v1.57h3.5v1.26h-3.5v1.77h3.78v1.28h-5.32v-7.17h5.31Z"/>
    <path class="cls-1" d="m68.57,13.71c0,.24.04.44.13.61.09.17.2.31.35.41.15.11.31.19.51.24s.39.08.6.08c.09,0,.19,0,.3-.02s.21-.03.32-.05c.1-.03.2-.06.3-.1s.18-.1.25-.17c.07-.07.13-.15.18-.24.04-.09.07-.2.07-.32s-.03-.24-.09-.33-.14-.17-.23-.24c-.1-.07-.22-.13-.35-.18-.14-.05-.28-.1-.44-.14-.16-.04-.32-.08-.5-.12-.17-.04-.35-.08-.52-.13-.18-.05-.36-.1-.53-.16-.17-.06-.34-.13-.5-.2s-.31-.17-.44-.27-.25-.22-.35-.35-.18-.29-.23-.46c-.06-.17-.08-.37-.08-.6,0-.24.04-.47.11-.67.07-.2.17-.39.3-.55.13-.16.28-.3.45-.42.17-.12.36-.22.55-.3.2-.08.41-.14.62-.18.22-.04.43-.06.65-.06.25,0,.49.02.73.06.24.04.47.1.68.18.21.08.41.19.59.31s.33.28.46.45c.13.17.23.37.3.6.07.22.11.47.11.75h-1.53c-.01-.22-.06-.39-.13-.54-.08-.14-.18-.26-.3-.34-.12-.08-.27-.14-.44-.18s-.34-.05-.53-.05c-.13,0-.26.01-.39.04-.13.03-.25.07-.35.14s-.19.15-.26.25c-.07.1-.1.23-.1.38,0,.09.01.17.03.24.02.07.06.13.12.18.06.05.14.1.24.15s.23.09.39.14c.16.05.35.1.57.16.22.06.48.13.78.2.09.02.2.05.34.09.14.04.29.09.45.15.16.06.32.15.48.25s.31.22.44.37c.13.15.23.32.32.52s.12.44.12.71c0,.33-.06.64-.19.92-.13.28-.32.53-.57.73-.25.21-.56.37-.94.48-.37.12-.8.17-1.29.17-.27,0-.53-.02-.78-.07-.25-.05-.5-.12-.72-.21-.23-.09-.44-.21-.63-.36s-.36-.31-.49-.5c-.14-.19-.24-.41-.32-.65-.08-.24-.11-.51-.11-.81h1.53Z"/>
    <path class="cls-1" d="m79.38,8.96v1.3h-3.77v1.57h3.5v1.26h-3.5v1.77h3.78v1.28h-5.32v-7.17h5.31Z"/>
    <path class="cls-1" d="m85.08,11.37c-.03-.18-.09-.35-.18-.5-.09-.15-.21-.29-.35-.4-.14-.11-.3-.2-.48-.27-.18-.06-.37-.1-.56-.1-.35,0-.65.07-.9.21-.25.14-.45.32-.61.55-.16.23-.27.49-.34.79-.07.3-.11.6-.11.92,0,.2.02.4.05.59.03.19.08.38.15.55.07.18.15.34.25.49.1.15.23.28.37.39.15.11.31.19.5.26.19.06.4.09.63.09s.46-.04.65-.12c.19-.08.35-.19.49-.33s.25-.31.33-.51c.08-.2.14-.41.17-.65h1.53c-.04.45-.15.85-.31,1.21-.17.36-.39.67-.67.93-.27.25-.6.45-.97.59-.37.14-.77.21-1.21.21-.37,0-.71-.04-1.03-.13-.32-.09-.61-.21-.87-.37-.26-.16-.49-.35-.7-.57s-.37-.47-.51-.75c-.14-.28-.24-.57-.31-.89-.07-.32-.11-.65-.11-.99s.04-.69.11-1.02c.07-.33.18-.63.31-.91s.31-.53.51-.76c.2-.23.43-.43.7-.59s.55-.29.87-.38c.32-.09.66-.13,1.03-.13.39,0,.77.06,1.12.17.35.11.67.28.95.5.28.22.51.49.69.81.18.32.3.69.34,1.11h-1.53Z"/>
    <path class="cls-1" d="m93.72,13.44c0,.47-.07.88-.2,1.23s-.33.64-.58.88-.57.41-.94.52c-.37.12-.79.17-1.26.17s-.93-.05-1.32-.16c-.38-.11-.71-.28-.97-.51-.26-.23-.47-.52-.6-.88s-.21-.78-.21-1.26v-4.48h1.54v4.48c0,.49.13.87.39,1.13.26.26.65.39,1.17.39.48,0,.83-.13,1.08-.39.24-.26.36-.63.36-1.13v-4.48h1.54v4.48Z"/>
    <path class="cls-1" d="m98.56,8.96c.38,0,.72.05,1.01.14.3.09.55.23.75.4.21.17.36.39.47.64.11.25.16.53.16.85,0,.18-.01.35-.03.51-.02.16-.06.31-.12.45-.06.14-.13.27-.22.39s-.21.22-.35.31c.11.08.19.17.26.27.07.1.12.2.16.32.04.11.07.23.1.36.02.13.04.26.06.39,0,.21.02.4.02.59,0,.19.02.37.06.55.03.18.08.35.16.52.07.17.19.33.34.49h-1.66c-.11-.13-.19-.27-.23-.41-.05-.14-.08-.3-.1-.46s-.04-.32-.05-.5c0-.17-.03-.35-.06-.53-.02-.12-.04-.23-.07-.35s-.07-.22-.12-.31c-.06-.09-.13-.16-.23-.22-.1-.06-.22-.08-.38-.08h-1.84v2.85h-1.56v-7.17h3.48Zm-.41,3.07c.16,0,.32-.02.47-.05.15-.03.29-.08.41-.16.12-.07.21-.17.28-.29.07-.12.11-.26.11-.44,0-.12-.02-.23-.06-.33-.04-.1-.09-.19-.17-.27-.08-.08-.17-.14-.29-.18-.11-.04-.25-.07-.4-.07h-1.87v1.78h1.51Z"/>
    <path class="cls-1" d="m103.68,8.96v7.17h-1.53v-7.17h1.53Z"/>
    <path class="cls-1" d="m104.53,10.33v-1.37h5.7v1.37h-2.09v5.81h-1.56v-5.81h-2.06Z"/>
    <path class="cls-1" d="m114.69,16.13h-1.57v-2.91l-2.76-4.26h1.87l1.72,2.82,1.67-2.82h1.81l-2.73,4.26v2.91Z"/>
  </g>
</svg>