<svg xmlns="http://www.w3.org/2000/svg" width="1440" height="512" viewBox="0 0 1440 512">
    <g fill="none" fill-rule="evenodd">
        <path fill="#EFF3FA" d="M237.206 38v168.298h-26.223v-39.972h-81.885v78.893h-26.285v105.716H79.567v-197.23H.984V515h1438.032V350.935H1320.63V212.612h-33.091V94.802h-82.743v256.133h-36.99V212.612h-65.222v-58.905h-41.368v16.832h-17.521v7.36h-20.688v12.624h-11.68v160.412H998.18v-197.23h-61.077v197.23h-9V245.219h-78.606v105.716h-4.14V73.767h-78.603v277.168h-21.659v-206.17L666.49 96.379v135.166h-21.66v-29.452h-51.347v148.842h-104.04V120.573h-81.885v230.362H319.09V38z"/>
        <path fill="#EBEFF9" d="M1397.637 216.043v192.035h-7.753V278.18h-42.5v129.9h-68.48V202.57h-51.001v205.507h-10.773V160.444c0-13.862-10.594-25.166-23.947-25.99l-1.554-65.803-1.551 65.803c-13.36.824-23.948 12.128-23.948 25.99v247.634h-66.378v-185.02h-51v185.02h-41.658v-145.42h-58.217v145.42h-32.874V155.091h-22.031l-1.866-79.135-1.866 79.135h-29.31v50.877h-36.301l-17.987-31.844-17.984 31.844h-3.635v-30.003H733.72v232.113h-9.945v-104.21h-23.558v-31.576h-39.26v-21.943h-41.883v36.394h-18.846V105.855h-13.551c-4.229-10.983-14.289-18.938-26.294-19.891L558.37.66l-2.012 85.264c-12.356.654-22.768 8.71-27.088 19.931h-10.708v302.223h-9.945v-186.09H459.93v186.09h-15.702v-186.09h-34.38l-33.737-59.735-33.735 59.735h-33.213v186.09h-7.85v-95.216h-53.398v95.216H236.4v-75.312h-26.7v75.312h-24.083V280.216H145.31v127.862h-2.62v-83.981h-26.7V312.86H89.297v95.218H81.44V264.8H43.75v-42.812H16.552l-2.176-92.408-2.182 92.408H.984V514h1438.201V216.043h-41.548z"/>
        <path fill="#E1E7F5" d="M1359.072 254.334v70.639h-25.68v126.624h-49.598v-77.686h-47.996v32.42h-15.308v77.839h-59.773V362.287h-82.663v-28.749h-91.47v36.702h-74.088v113.93h-79.371V357.394h-54.733V484.17h-29.156V306.01H725.97v-50.772h-54.735V484.17h-22.044V317.02h-85.726v167.15h-18.367V340.264h-85.726V484.17h-49.596V332.31h-94.298v27.528H227.3V484.17h-71.031V370.848H61.977V484.17H50.949V328.03H.983V514h1438.202V254.334z"/>
        <path fill="#C8D7F0" d="M1385.02 399.938v75.04h-32.9v-39.02h-74.974v27.614h-74.976v25.213h-59.568v-83.447h-52.75v51.632h-26.377v31.815h-15.115v-57.03h-94.238v58.009h-48.32v-58.009h-38.63v57.03H849.19v-20.872h-38.629v20.872h-22.535v-57.03h-71.451v57.03H705.19v-57.03h-38.63v57.03h-8.637V356.689h-38.63v133.075H573.29v-89.826h-55.124v21.886h-55.123v31.892h-34.68v-48.378h-59.112v-11.905h-93.5v11.905h-67.865v30.62h-26.376v-18.031h-42.792v-17.989H.984V514h1438.202V399.938z"/>
    </g>
</svg>
